<?xml version="1.0" encoding="UTF-8"?>
<svg width="30px" height="48px" viewBox="0 0 30 48" version="1.1" xmlns="http://www.w3.org/2000/svg" xmlns:xlink="http://www.w3.org/1999/xlink">
    <!-- Generator: Sketch 47 (45396) - http://www.bohemiancoding.com/sketch -->
    <title>chemistry - simple-line-icons</title>
    <desc>Created with Sketch.</desc>
    <defs></defs>
    <g id="Page-2" stroke="none" stroke-width="1" fill="none" fill-rule="evenodd">
        <g id="Artboard-Copy-7" transform="translate(-278.000000, -2999.000000)" fill="#788D94">
            <path d="M306.96875,3044.51562 L299,3035.04688 L299,3018.5 L299.984375,3018.5 C300.421877,3018.5 300.781249,3018.35156 301.0625,3018.05469 C301.343751,3017.75781 301.484375,3017.40625 301.484375,3017 C301.484375,3016.5625 301.343751,3016.20313 301.0625,3015.92188 C300.781249,3015.64062 300.421877,3015.5 299.984375,3015.5 L297.5,3015.5 C297.093748,3015.5 296.742189,3015.64062 296.445312,3015.92188 C296.148436,3016.20313 296,3016.5625 296,3017 L296,3035.60938 C296,3035.79688 296.03125,3035.97656 296.09375,3036.14844 C296.15625,3036.32031 296.249999,3036.48437 296.375,3036.64062 L302.515625,3044 L283.484375,3044 L289.625,3036.64062 C289.750001,3036.48437 289.84375,3036.32031 289.90625,3036.14844 C289.96875,3035.97656 290,3035.79688 290,3035.60938 L290,3017 C290,3016.5625 289.851564,3016.20313 289.554688,3015.92188 C289.257811,3015.64062 288.906252,3015.5 288.5,3015.5 L286.015625,3015.5 C285.578123,3015.5 285.218751,3015.64062 284.9375,3015.92188 C284.656249,3016.20313 284.515625,3016.5625 284.515625,3017 C284.515625,3017.40625 284.656249,3017.75781 284.9375,3018.05469 C285.218751,3018.35156 285.578123,3018.5 286.015625,3018.5 L287,3018.5 L287,3035.04688 L279.03125,3044.51562 C278.812499,3044.73438 278.679688,3044.98437 278.632812,3045.26562 C278.585937,3045.54688 278.624999,3045.82812 278.75,3046.10938 C278.875001,3046.39063 279.062499,3046.60937 279.3125,3046.76562 C279.562501,3046.92188 279.828124,3047 280.109375,3047 L305.890625,3047 C306.171876,3047 306.437499,3046.92188 306.6875,3046.76562 C306.937501,3046.60937 307.124999,3046.39063 307.25,3046.10938 C307.375001,3045.82812 307.414063,3045.54688 307.367188,3045.26562 C307.320312,3044.98437 307.187501,3044.73438 306.96875,3044.51562 Z M291.5,3014 C292.312504,3014 293.015622,3013.70313 293.609375,3013.10938 C294.203128,3012.51562 294.5,3011.8125 294.5,3011 C294.5,3010.15625 294.203128,3009.44532 293.609375,3008.86719 C293.015622,3008.28906 292.312504,3008 291.5,3008 C290.687496,3008 289.984378,3008.28906 289.390625,3008.86719 C288.796872,3009.44532 288.5,3010.15625 288.5,3011 C288.5,3011.8125 288.796872,3012.51562 289.390625,3013.10938 C289.984378,3013.70313 290.687496,3014 291.5,3014 Z M301.25,3009.54688 C299.812493,3009.54688 298.57813,3009.03126 297.546875,3008 C296.51562,3006.96874 296,3005.71876 296,3004.25 C296,3002.81249 296.51562,3001.57813 297.546875,3000.54688 C298.57813,2999.51562 299.812493,2999 301.25,2999 C302.718757,2999 303.968745,2999.51562 305,3000.54688 C306.031255,3001.57813 306.546875,3002.81249 306.546875,3004.25 C306.546875,3005.71876 306.031255,3006.96874 305,3008 C303.968745,3009.03126 302.718757,3009.54688 301.25,3009.54688 Z M301.25,3002 C300.624997,3002 300.093752,3002.21875 299.65625,3002.65625 C299.218748,3003.09375 299,3003.625 299,3004.25 C299,3004.875 299.218748,3005.40625 299.65625,3005.84375 C300.093752,3006.28125 300.624997,3006.5 301.25,3006.5 C301.875003,3006.5 302.406248,3006.28125 302.84375,3005.84375 C303.281252,3005.40625 303.5,3004.875 303.5,3004.25 C303.5,3003.625 303.281252,3003.09375 302.84375,3002.65625 C302.406248,3002.21875 301.875003,3002 301.25,3002 Z" id="chemistry---simple-line-icons"></path>
        </g>
    </g>
</svg>