<?xml version="1.0" encoding="UTF-8"?>
<svg width="34px" height="30px" viewBox="0 0 34 30" version="1.1" xmlns="http://www.w3.org/2000/svg" xmlns:xlink="http://www.w3.org/1999/xlink">
    <!-- Generator: Sketch 47 (45396) - http://www.bohemiancoding.com/sketch -->
    <title>Speech - simple-line-icons</title>
    <desc>Created with Sketch.</desc>
    <defs></defs>
    <g id="Page-2" stroke="none" stroke-width="1" fill="none" fill-rule="evenodd">
        <g id="Artboard-Copy-7" transform="translate(-107.000000, -1601.000000)" fill="#B9C9CE">
            <path d="M138.875,1601.25 C139.472659,1601.25 139.976235,1601.45475 140.385742,1601.86426 C140.795249,1602.27377 141,1602.77734 141,1603.375 L141,1622.5332 C141,1623.13086 140.795249,1623.63444 140.385742,1624.04395 C139.976235,1624.45345 139.472659,1624.6582 138.875,1624.6582 L121.310547,1624.6582 L115.167969,1630.70117 C115.057291,1630.81185 114.941081,1630.88932 114.819336,1630.93359 C114.697591,1630.97786 114.570313,1631 114.4375,1631 C114.348958,1631 114.271485,1630.99447 114.205078,1630.9834 C114.138672,1630.97233 114.072266,1630.95573 114.005859,1630.93359 C113.80664,1630.84505 113.651693,1630.71224 113.541016,1630.53516 C113.430338,1630.35807 113.375,1630.15886 113.375,1629.9375 L113.375,1624.6582 L109.125,1624.6582 C108.527341,1624.6582 108.023765,1624.45345 107.614258,1624.04395 C107.204751,1623.63444 107,1623.13086 107,1622.5332 L107,1603.375 C107,1602.77734 107.204751,1602.27377 107.614258,1601.86426 C108.023765,1601.45475 108.527341,1601.25 109.125,1601.25 L138.875,1601.25 Z M138.875,1622.5332 L138.875,1603.375 L109.125,1603.375 L109.125,1622.5332 L115.5,1622.5332 L115.5,1627.41406 L120.447266,1622.5332 L138.875,1622.5332 Z M114.4375,1614.0332 C114.149738,1614.0332 113.900717,1613.92806 113.69043,1613.71777 C113.480142,1613.50749 113.375,1613.25846 113.375,1612.9707 C113.375,1612.68294 113.480142,1612.43392 113.69043,1612.22363 C113.900717,1612.01335 114.149738,1611.9082 114.4375,1611.9082 L133.5625,1611.9082 C133.850262,1611.9082 134.099283,1612.01335 134.30957,1612.22363 C134.519858,1612.43392 134.625,1612.68294 134.625,1612.9707 C134.625,1613.25846 134.519858,1613.50749 134.30957,1613.71777 C134.099283,1613.92806 133.850262,1614.0332 133.5625,1614.0332 L114.4375,1614.0332 Z M114.4375,1609.7832 C114.149738,1609.7832 113.900717,1609.67806 113.69043,1609.46777 C113.480142,1609.25749 113.375,1609.00846 113.375,1608.7207 C113.375,1608.43294 113.480142,1608.18392 113.69043,1607.97363 C113.900717,1607.76335 114.149738,1607.6582 114.4375,1607.6582 L133.5625,1607.6582 C133.850262,1607.6582 134.099283,1607.76335 134.30957,1607.97363 C134.519858,1608.18392 134.625,1608.43294 134.625,1608.7207 C134.625,1609.00846 134.519858,1609.25749 134.30957,1609.46777 C134.099283,1609.67806 133.850262,1609.7832 133.5625,1609.7832 L114.4375,1609.7832 Z M114.4375,1618.2832 C114.149738,1618.2832 113.900717,1618.17806 113.69043,1617.96777 C113.480142,1617.75749 113.375,1617.50846 113.375,1617.2207 C113.375,1616.93294 113.480142,1616.68392 113.69043,1616.47363 C113.900717,1616.26335 114.149738,1616.1582 114.4375,1616.1582 L127.1875,1616.1582 C127.475262,1616.1582 127.724283,1616.26335 127.93457,1616.47363 C128.144858,1616.68392 128.25,1616.93294 128.25,1617.2207 C128.25,1617.50846 128.144858,1617.75749 127.93457,1617.96777 C127.724283,1618.17806 127.475262,1618.2832 127.1875,1618.2832 L114.4375,1618.2832 Z" id="Speech---simple-line-icons"></path>
        </g>
    </g>
</svg>