<?xml version="1.0" encoding="UTF-8"?>
<svg width="486px" height="455px" viewBox="0 0 486 455" version="1.1" xmlns="http://www.w3.org/2000/svg" xmlns:xlink="http://www.w3.org/1999/xlink">
    <!-- Generator: Sketch 47 (45396) - http://www.bohemiancoding.com/sketch -->
    <title>Group 36</title>
    <desc>Created with Sketch.</desc>
    <defs>
        <path d="M34.6935023,19.2501343 C46.2754689,20.7891719 51.8173114,16.1652466 57.8915539,21.4740356 C63.9657965,26.7828247 77.8641864,39.1034744 76.7773438,59.8104858 C75.2848704,59.8104858 73.5710032,59.9991455 71.6357422,60.3764648 C70.9064117,54.0804579 70.0564768,49.6873915 69.0859375,47.1972656 C67.7654388,43.8092442 66.2071199,40.0275876 63.5264148,38.0009231 C57.8903154,33.7399236 56.0120284,32.3789225 57.8915539,33.9179199 C61.8134612,48.9686153 63.2739372,57.3350195 62.2729821,59.0171325 C62.0199925,59.4422835 61.433393,59.8953942 60.5131836,60.3764648 C61.2202704,63.1932454 61.5738138,65.1525553 61.5738138,66.2543945 C61.5738138,76.9598073 56.8911014,91.6068237 57.8915539,100.204468 C58.5585223,105.93623 59.7859423,117.734448 61.5738138,135.599121 L54.824707,137.006348 C50.0484828,115.609961 47.6603706,102.444108 47.6603706,97.5087891 C47.6603706,90.1058105 48.4624262,70.6389404 46.6157227,73.1147461 C44.7690192,75.5905518 40.0013815,92.1942871 39.9363567,98.5031738 C39.8713319,104.812061 37.9159442,138.398047 37.6391244,141.416199 C33.9872094,142.1387 31.7382813,142.1387 30.8923399,141.416199 C29.7701982,112.641997 29.3218369,95.2186168 29.5472561,89.1460571 C29.7624769,83.348231 31.1975338,77.080857 33.338623,64.921875 C33.0633952,64.6682943 32.7502035,64.3667399 32.3990479,64.0172119 C33.5707383,42.6676839 33.6125429,31.9929199 32.5244617,31.9929199 C30.8923399,31.9929199 1.74365234,25.6337891 0,1.75970459 C2.15882241,0.953234863 3.74697504,0.55 4.76445789,0.55 C7.56919303,8.32832845 10.8789539,13.3895996 14.6937405,15.7338135 C20.4159204,19.2501343 24.6765622,17.9190609 34.6935023,19.2501343 Z" id="path-1"></path>
    </defs>
    <g id="Page-2" stroke="none" stroke-width="1" fill="none" fill-rule="evenodd">
        <g id="Artboard-Copy-5" transform="translate(-91.000000, -1927.000000)">
            <g id="Group-36" transform="translate(91.000000, 1927.000000)">
                <polygon id="Path-54" fill="#FF5050" points="411.539104 87.8432811 419 136.01399 375.433766 190.642664 352.706789 214.291881 218.191568 289.352525 122 342 133.030937 312.94698 165.200427 283.367857 177.471586 243.059358 218.191568 204.618624 231.200209 161.757841 260.783621 95.2517523 313.993855 75.660766 343.97046 68 368.199788 71.4871447 382.820327 101.408528"></polygon>
                <polygon id="Path-62" fill="#B2AC8A" points="356 102 356 104.739586 275 150 275 147.446314"></polygon>
                <polygon id="Path-63" fill="#A39F8C" points="254 135 254 137.56307 275 149 275 146.343998"></polygon>
                <polygon id="Path-61" fill="#EBE7D6" points="329.241164 91 254 134.481965 274.801601 146 355 101.409207"></polygon>
                <polygon id="Path-55" fill="#E63939" points="374 123 296 83.2762866 332.492514 71 359.671507 75.5423627 371.295252 90.6061414"></polygon>
                <path d="M404.453309,92.721795 C412.863644,121.997404 408.508896,147.540965 391.389063,169.352479 C374.269231,191.163992 359.808683,204.553657 348.007418,209.521474 L118.130549,340.632761 L116,377.778094 L137.116238,394 L169.335913,387.976116 L435.437968,228.93307 L480,155.912029 L480,107.191618 L462.92244,86.2681914 L439.92929,78 L412.183377,86.2681914 L404.453309,92.721795 Z" id="Path-53" fill="#FF9595"></path>
                <path d="M214,202.834902 C192.819794,212.870573 178.64166,225.924893 171.465596,241.99786 C164.289532,258.070828 160.394569,270.738208 159.780707,280 L51,222.475009 C51.8862556,204.357906 58.5077579,187.283065 70.864507,171.250485 C83.2212561,155.217905 94.597259,145.801076 104.992516,143 L214,202.834902 Z" id="Path-48" fill="#EFF2F5"></path>
                <path d="M50.6149272,221 C20.2242118,241.25258 3.60510379,266.234277 0.757603225,295.945093 C-3.51364763,340.511317 11.2119051,340.097202 21.4961388,345.904582 C55.9429612,365.356279 90.2608816,385.054752 124.4499,405 C109.790159,397.383144 104.402063,381.694297 108.28561,357.933458 C112.169158,334.172619 122.546571,313.509831 139.417849,295.945093 L160,279.069897 L50.6149272,221 Z" id="Path-50" fill="#F3F4F6"></path>
                <polygon id="Path-87" fill="#EAECEF" points="285.68064 96 302 107.243991 302 108.47029 295.855281 111 280 100.604754"></polygon>
                <polygon id="Path-73" fill="#B0E290" points="281 103.097951 281.601077 100.59677 296.541714 109.95158 301.445877 107.337339 286.904983 98.169017 286.904983 97 288.149062 97 303 106.782494 303 128.234248 296.541714 132 294.150081 130.796457 292.871878 111.210073"></polygon>
                <path d="M280.257275,100 L296,110.211217 L296,132 L284.846501,128.279486 C281.311843,123.672564 279.395457,120.361947 279.09734,118.347634 C278.799224,116.333322 279.185869,110.217444 280.257275,100 Z" id="Path-86" fill="#8DD85D"></path>
                <g id="Group-29" transform="translate(219.000000, 158.000000)">
                    <polygon id="Path-60" fill="#B4AC88" points="71.7480469 14 71.7480469 16.7949219 0 57.4208984 0 54.3242188"></polygon>
                    <polygon id="Path-59" fill="#EBE7D4" points="52.2021484 2.78125 71.8076172 14.1308594 0 55.0361328 0 27.5180664 48.1513672 2.27373675e-13"></polygon>
                </g>
                <g id="Group-28-Copy-8" transform="translate(233.000000, 157.000000)">
                    <polygon id="Path-88" fill="#FFFFFF" points="7.90942383 2.52416992 24.1171875 11.1882324 17.9370117 14.4121094 2 5.35522461"></polygon>
                    <polygon id="Path-77" fill="#FF9800" points="2.27373675e-13 4 18.0517578 13.9072266 18.0517578 35.4033203 2.27373675e-13 25.3623047"></polygon>
                    <polygon id="Path-78" fill="#FFB635" points="17.8378906 13.9589844 23.934082 11.0776367 8.15795898 2.63623047 7.17675781 2.90185547 7.17675781 0.416503906 25.4848633 10.4521484 25.4848633 31.1904297 17.8378906 35.4763184"></polygon>
                </g>
                <g id="Group-28-Copy-7" transform="translate(222.000000, 163.000000)">
                    <polygon id="Path-88" fill="#FFFFFF" points="7.90942383 2.52416992 24.1171875 11.1882324 17.9370117 14.4121094 2 5.35522461"></polygon>
                    <polygon id="Path-77" fill="#FF9800" points="2.27373675e-13 4 18.0517578 13.9072266 18.0517578 35.4033203 2.27373675e-13 25.3623047"></polygon>
                    <polygon id="Path-78" fill="#FFB635" points="17.8378906 13.9589844 23.934082 11.0776367 8.15795898 2.63623047 7.17675781 2.90185547 7.17675781 0.416503906 25.4848633 10.4521484 25.4848633 31.1904297 17.8378906 35.4763184"></polygon>
                </g>
                <g id="Group-28-Copy-6" transform="translate(210.000000, 169.000000)">
                    <polygon id="Path-88" fill="#FFFFFF" points="7.90942383 2.52416992 24.1171875 11.1882324 17.9370117 14.4121094 2 5.35522461"></polygon>
                    <polygon id="Path-77" fill="#FF9800" points="2.27373675e-13 4 18.0517578 13.9072266 18.0517578 35.4033203 2.27373675e-13 25.3623047"></polygon>
                    <polygon id="Path-78" fill="#FFB635" points="17.8378906 13.9589844 23.934082 11.0776367 8.15795898 2.63623047 7.17675781 2.90185547 7.17675781 0.416503906 25.4848633 10.4521484 25.4848633 31.1904297 17.8378906 35.4763184"></polygon>
                </g>
                <g id="Group-27" transform="translate(274.000000, 101.000000)">
                    <polygon id="Path-85" fill="#FFFFFF" points="6.59814453 2 19.6333008 11.1210938 15.2963867 15.0625 0 6.33935547"></polygon>
                    <polygon id="Path-72" fill="#FEBA49" points="10.2285156 12.0778809 13.8564453 13.8739014 19.4841309 11.065918 3.53515625 0.875549316 4.26318359 0.0944824219 20.1772461 10.5292969 19.8364258 33.5698242 13.753418 36.9726563 10.2285156 35.2700195"></polygon>
                    <polygon id="Path-84" fill="#ED9E19" points="13.7721558 37.0088501 13.7721558 13.9138184 10.2897949 12 10 35.0119629"></polygon>
                </g>
                <g id="Group-26" transform="translate(258.000000, 103.000000)">
                    <polygon id="Path-83" fill="#FFFFFF" points="16.7390137 4.05029297 25.3037109 9.4934082 17.1928711 12.6655273 9.13647461 8.09716797"></polygon>
                    <polygon id="Path-70" fill="#B2E7EA" points="5.9375 6 18.1230469 12.0361328 18.1230469 40.8339844 0 30.8945312 0 7.26464844"></polygon>
                    <polygon id="Path-71" fill="#88D9DE" points="17.876709 11.9780273 24.5849609 9.37084961 10.2770996 0.876708984 11.6972656 0 26.2851563 8.98046875 26.2851563 36.2490234 18.1425781 40.8613281"></polygon>
                </g>
                <path d="M356,62.7093823 C317.071077,40.5084689 281.640608,20.6196902 249.708594,3.04304623 C232.912501,-2.45030504 217.836383,-0.552885521 197.943552,9.11556871 C178.050722,18.7840229 121.770742,57.0781037 105,142.894898 C167.830482,178.188618 203.766673,198.223652 212.808573,203 C220.197125,153.500335 242.361319,114.683336 279.301154,86.5490057 C302.620705,68.788235 328.186987,60.8416939 356,62.7093823 Z" id="Path-47" fill="#F3F4F6"></path>
                <path d="M460,69.7051513 C442.144806,59.8113441 408.00678,39.5458963 357.585925,8.90880799 C345.0239,2 332.932092,0.272798002 321.310498,3.727202 C309.688904,7.18160599 297.585405,13.4128892 285,22.4210516 L350.141065,59.8340363 C368.295015,69.5495475 379.160627,81.9382021 382.7379,97 C401.378303,81.7586094 427.631128,61.508722 460,69.7051513 Z" id="Path-49" fill="#D3D9E0"></path>
                <path d="M458.997357,68.8336765 C474.931251,77.413625 483.669087,89.2421526 485.210867,104.31926 C487.523536,126.93492 485.210867,157.590618 472.104112,185.333146 C458.997357,213.075674 442.003245,232.203736 433.340999,239.976099 C427.566168,245.157674 417.749868,251.605986 403.892098,259.321036 L173.121722,391.941613 C151.721875,406.06134 135.437399,410.869732 124.268295,406.36679 C107.514638,399.612376 98.0391456,373.075365 103.591116,348.742283 C109.144286,324.403941 118.665497,300.703298 159.050215,278.863311 C159.050215,247.639046 167.215235,239.897473 177.63563,227.309375 C184.582561,218.91731 196.248215,210.388161 212.632591,201.721929 C218.150676,152.375828 241.555619,112.817798 282.84742,83.0478389 C344.78512,38.3929 368.596035,68.8336765 372.756102,72.9113338 C378.454652,78.4969963 381.884884,86.7174387 383.046796,97.5726612 C401.456921,80.8491212 415.901818,71.2694597 426.381487,68.8336765 C436.861157,66.3978934 447.733113,66.3978934 458.997357,68.8336765 Z M374.057564,124.785687 C369.216224,94.9180441 360.668838,79.1154168 348.415405,77.3778046 C330.035256,74.7713864 301.299901,82.3815805 268.046727,114.307273 C234.793554,146.232965 221.890573,199.793479 219.059851,215.447619 C212.483503,216.406953 198.194999,222.973798 184.786209,238.695937 C171.37742,254.418075 170.220108,271.202305 168.190902,293.225952 C138.143795,300.335964 124.776059,336.437006 120.420499,351.676932 C116.06494,366.916859 120.420499,383.389657 131.542034,389.268751 C138.95639,393.188148 151.172679,390.101737 168.190902,380.009519 L399.354216,244.278434 C410.998023,239.192589 422.004869,231.302996 432.374754,220.609656 C447.929583,204.569646 468.779772,173.815279 471.791787,133.98435 C474.803803,94.1534211 462.226368,82.9091036 435.453752,84.1888666 C417.605341,85.042042 397.139945,98.5743153 374.057564,124.785687 Z" id="Combined-Shape" fill="#EAECEF"></path>
                <polygon id="Path-56" fill="#EBE7D4" points="187 270.841442 336.835357 187 363 200.666779 211.533748 285"></polygon>
                <polygon id="Path-57" fill="#A39F8A" points="187 271 187 273.921768 212 288 212 285.391907"></polygon>
                <polygon id="Path-58" fill="#B4AC88" points="211.151845 288 362 203.186719 362 201 211 285.305096"></polygon>
                <polygon id="Path-66" fill="#A39F8B" points="332 161 356 173.239124 356 176 332 163.865672"></polygon>
                <polygon id="Path-69" fill="#B4AC88" points="444 192 444 195.014026 401 220 401 216.04471"></polygon>
                <polygon id="Path-64" fill="#EBE7D5" points="438 128.118244 356.052677 174 332 161.454839 411.87867 116"></polygon>
                <polygon id="Path-65" fill="#B3AC89" points="438 128 438 130.124111 356 176 356 173.429271"></polygon>
                <polygon id="Path-67" fill="#EBE7D4" points="415.822138 177 372 199.900352 400.675963 216 444 192.406607"></polygon>
                <polygon id="Path-68" fill="#A39F8A" points="372 200 372 203.519371 401 220 401 216.031188"></polygon>
                <g id="Group-28" transform="translate(356.000000, 123.000000)">
                    <polygon id="Path-88" fill="#FFFFFF" points="7.90942383 2.52416992 24.1171875 11.1882324 17.9370117 14.4121094 2 5.35522461"></polygon>
                    <polygon id="Path-77" fill="#72DBDF" points="2.27373675e-13 4 18.0517578 13.9072266 18.0517578 35.4033203 2.27373675e-13 26.3623047"></polygon>
                    <polygon id="Path-78" fill="#A6E9EA" points="17.8378906 13.9589844 23.934082 11.0776367 8.15795898 2.63623047 7.17675781 2.90185547 7.17675781 0.416503906 25.4848633 10.4521484 25.4848633 31.1904297 17.8378906 35.4763184"></polygon>
                </g>
                <g id="Group-28-Copy-2" transform="translate(279.000000, 197.000000)">
                    <polygon id="Path-88" fill="#FFFFFF" points="7.90942383 2.52416992 24.1171875 11.1882324 17.9370117 14.4121094 2 5.35522461"></polygon>
                    <polygon id="Path-77" fill="#72DBDF" points="2.27373675e-13 4 18.0517578 13.9072266 18.0517578 35.4033203 2.27373675e-13 26.3623047"></polygon>
                    <polygon id="Path-78" fill="#A6E9EA" points="17.8378906 13.9589844 23.934082 11.0776367 8.15795898 2.63623047 7.17675781 2.90185547 7.17675781 0.416503906 25.4848633 10.4521484 25.4848633 31.1904297 17.8378906 35.4763184"></polygon>
                </g>
                <g id="Group-28-Copy" transform="translate(346.000000, 129.000000)">
                    <polygon id="Path-88" fill="#FFFFFF" points="7.90942383 2.52416992 24.1171875 11.1882324 17.9370117 14.4121094 2 5.35522461"></polygon>
                    <polygon id="Path-77" fill="#F79B00" points="2.27373675e-13 4 18.0517578 13.9072266 18.0517578 35.4033203 2.27373675e-13 26.3623047"></polygon>
                    <polygon id="Path-78" fill="#FFB840" points="17.8378906 13.9589844 23.934082 11.0776367 8.15795898 2.63623047 7.17675781 2.90185547 7.17675781 0.416503906 25.4848633 10.4521484 25.4848633 31.1904297 17.8378906 35.4763184"></polygon>
                </g>
                <g id="Group-28-Copy-3" transform="translate(269.000000, 203.000000)">
                    <polygon id="Path-88" fill="#FFFFFF" points="7.90942383 2.52416992 24.1171875 11.1882324 17.9370117 14.4121094 2 5.35522461"></polygon>
                    <polygon id="Path-77" fill="#FF8F94" points="2.27373675e-13 4 18.0517578 13.9072266 18.0517578 35.4033203 2.27373675e-13 26.3623047"></polygon>
                    <polygon id="Path-78" fill="#FE7177" points="17.8378906 13.9589844 23.934082 11.0776367 8.15795898 2.63623047 7.17675781 2.90185547 7.17675781 0.416503906 25.4848633 10.4521484 25.4848633 31.1904297 17.8378906 35.4763184"></polygon>
                </g>
                <g id="Group-28-Copy-4" transform="translate(258.000000, 209.000000)">
                    <polygon id="Path-88" fill="#FFFFFF" points="7.90942383 2.52416992 24.1171875 11.1882324 17.9370117 14.4121094 2 5.35522461"></polygon>
                    <polygon id="Path-77" fill="#77DC58" points="2.27373675e-13 4 18.0517578 13.9072266 18.0517578 35.4033203 2.27373675e-13 26.3623047"></polygon>
                    <polygon id="Path-78" fill="#A4E58D" points="17.8378906 13.9589844 23.934082 11.0776367 8.15795898 2.63623047 7.17675781 2.90185547 7.17675781 0.416503906 25.4848633 10.4521484 25.4848633 31.1904297 17.8378906 35.4763184"></polygon>
                </g>
                <g id="Group-28-Copy-5" transform="translate(248.000000, 215.000000)">
                    <polygon id="Path-88" fill="#FFFFFF" points="7.90942383 2.52416992 24.1171875 11.1882324 17.9370117 14.4121094 2 5.35522461"></polygon>
                    <polygon id="Path-77" fill="#FF9800" points="2.27373675e-13 4 18.0517578 13.9072266 18.0517578 35.4033203 2.27373675e-13 25.3623047"></polygon>
                    <polygon id="Path-78" fill="#FFB635" points="17.8378906 13.9589844 23.934082 11.0776367 8.15795898 2.63623047 7.17675781 2.90185547 7.17675781 0.416503906 25.4848633 10.4521484 25.4848633 31.1904297 17.8378906 35.4763184"></polygon>
                </g>
                <g id="Group-16-Copy-3" transform="translate(248.000000, 236.000000)">
                    <g id="Rectangle" transform="translate(1.000000, 8.000000)">
                        <mask id="mask-2" fill="white">
                            <use xlink:href="#path-1"></use>
                        </mask>
                        <use id="Mask" fill="#BED7D9" xlink:href="#path-1"></use>
                        <polygon fill="#4181CC" mask="url(#mask-2)" points="18 67.1933594 70.1201172 58.5205078 73 148 18 148"></polygon>
                        <path d="M71.9946289,60.5063477 C71.1075846,63.0743815 70.6625977,64.9355469 70.659668,66.0898438 C70.6567383,67.2441406 71.1017253,67.8212891 71.9946289,67.8212891" id="Path-20" stroke="#979797" mask="url(#mask-2)"></path>
                    </g>
                    <path d="M45,24.6166992 C50.3544922,23.7446289 52.4238281,18.8011678 52.4238281,13.2783203 C52.4238281,7.75547281 49.418278,5 45,5 C42.5144856,5 40.1015914,5.20001971 38.6342773,7.42285156 C37.4932777,9.15135031 37,12.5840455 37,15 C37,17.9941159 38.1926096,21.4218724 39.4394531,23.7446289 C40.401123,25.5361328 42.993486,24.9434942 45,24.6166992 Z" id="Oval-2" fill="#E7D5AD"></path>
                    <path d="M2.47958017,9.83938985 C1.23104193,7.56113613 0.654922113,5.87590332 0.751220703,4.78369141 C0.895668588,3.14537354 1.49937476,0.749298096 2.82495117,0.587158203 C4.15052758,0.425018311 4.43775471,2.21047363 6.08613266,2.05444336 C7.73451062,1.89841309 6.19110122,8.79511494 6.08613266,9.3172524 C6.01615362,9.66534403 4.81396946,9.83938985 2.47958017,9.83938985 Z" id="Path-18" fill="#E3CEA7"></path>
                    <path d="M55.5612793,143.514404 C54.0163574,145.450928 53.1625977,147.08016 53,148.4021 C53.706543,148.740479 54.6096191,148.740479 55.875054,148.434414 C56.154982,148.366709 56.5764321,148.46873 57.1394043,148.740479 L61.7546387,148.740479 C62.5453288,146.559652 62.6761882,144.817627 62.1472168,143.514404 C60.9092611,142.828532 58.7139486,142.828532 55.5612793,143.514404 Z" id="Path-2" fill="#38545E"></path>
                    <path d="M32.5612793,148.514404 C26.0036621,150.676514 22.6435547,152.418538 22.480957,153.740479 C25.8282878,154.596436 30.425293,154.596436 36.2719727,153.740479 L39.1472168,152.914551 C39.6761882,151.284342 39.6761882,149.817627 39.1472168,148.514404 C37.9092611,147.828532 35.7139486,147.828532 32.5612793,148.514404 Z" id="Path-2-Copy" fill="#38545E"></path>
                    <path d="M38.0756836,9.06738281 C39.6782227,10.2519531 40.6051432,11.5048828 40.8564453,12.8261719 C41.1077474,14.1474609 41.5883789,15.101888 42.2983398,15.6894531 C43.4396159,14.0797526 44.2641602,13.7947591 44.7719727,14.8344727 C45.5336914,16.394043 45.3046875,21.1743164 46.9194336,22.2290039 C47.995931,22.9321289 49.1359049,22.9321289 50.3393555,22.2290039 C52.793457,18.6097005 54.1303711,15.3662923 54.3500977,12.4987793 C54.6796875,8.19750977 51.7792969,2.01806641 43.6992188,3.30615234 C38.3125,4.1648763 36.4379883,6.08528646 38.0756836,9.06738281 Z" id="Path-3" fill="#62554A"></path>
                    <path d="M73.0395508,68.0048828 C72.1663411,70.4208984 71.8999023,72.2794596 72.2402344,73.5805664 C72.7507324,75.5322266 73.4035645,76.1574707 74.5202637,76.1574707 C75.6369629,76.1574707 77.9411621,76.130127 78.342041,75.0515137 C78.7429199,73.9729004 79.1130371,71.6645508 78.7121582,70.3881836 C78.4449056,69.5372721 78.0642904,68.5686849 77.5703125,67.4824219 L73.0395508,68.0048828 Z" id="Path-21" fill="#E0CEA8"></path>
                </g>
                <g id="Group-28-Copy-9" transform="translate(261.000000, 381.000000)">
                    <polygon id="Path-88" fill="#FFFFFF" points="7.90942383 2.52416992 24.1171875 11.1882324 17.9370117 14.4121094 2 5.35522461"></polygon>
                    <polygon id="Path-77" fill="#72DBDF" points="2.27373675e-13 4 18.0517578 13.9072266 18.0517578 35.4033203 2.27373675e-13 26.3623047"></polygon>
                    <polygon id="Path-78" fill="#A6E9EA" points="17.8378906 13.9589844 23.934082 11.0776367 8.15795898 2.63623047 7.17675781 2.90185547 7.17675781 0.416503906 25.4848633 10.4521484 25.4848633 31.1904297 17.8378906 35.4763184"></polygon>
                </g>
                <g id="Group-28-Copy-10" transform="translate(251.000000, 387.000000)">
                    <polygon id="Path-88" fill="#FFFFFF" points="7.90942383 2.52416992 24.1171875 11.1882324 17.9370117 14.4121094 2 5.35522461"></polygon>
                    <polygon id="Path-77" fill="#F79B00" points="2.27373675e-13 4 18.0517578 13.9072266 18.0517578 35.4033203 2.27373675e-13 26.3623047"></polygon>
                    <polygon id="Path-78" fill="#FFB840" points="17.8378906 13.9589844 23.934082 11.0776367 8.15795898 2.63623047 7.17675781 2.90185547 7.17675781 0.416503906 25.4848633 10.4521484 25.4848633 31.1904297 17.8378906 35.4763184"></polygon>
                </g>
                <g id="Group-30" transform="translate(382.000000, 177.000000)">
                    <polygon id="Path-74-Copy" fill="#FFFFFF" points="3.0703125 9.74806843 3.0703125 18.210399 18.4102307 26.6727295 18.4102307 19.0593402 4.7002199 9.74806843"></polygon>
                    <polygon id="Path-80-Copy" fill="#657D84" points="3.18505859 16.4306641 3.18505859 17.5454102 18.3460693 25.8178711 18.3460693 19.3029785 3.68652344 9.97900391 23.5988379 0 40.5668945 8.54541016 40.5668945 14.0246582 20.6680121 25.7195818 18.3460693 27.0842285 0.71484375 17.5454102"></polygon>
                </g>
                <g id="Group-30-Copy-2" transform="translate(199.000000, 427.000000)">
                    <polygon id="Path-74-Copy" fill="#FFFFFF" points="3.0703125 9.74806843 3.0703125 18.210399 18.4102307 26.6727295 18.4102307 19.0593402 4.7002199 9.74806843"></polygon>
                    <polygon id="Path-80-Copy" fill="#52E052" points="3.18505859 16.4306641 3.18505859 17.5454102 18.3460693 25.8178711 18.3460693 19.3029785 3.68652344 9.97900391 23.5988379 0 40.5668945 8.54541016 40.5668945 14.0246582 20.6680121 25.7195818 18.3460693 27.0842285 0.71484375 17.5454102"></polygon>
                </g>
                <polygon id="Path-79" fill="#788D94" points="383 187.041114 400.61311 197 423 185.540845 405.868371 175"></polygon>
                <polygon id="Path-79-Copy" fill="#93E88A" points="200 437.041114 217.61311 447 240 435.540845 222.868371 425"></polygon>
                <polygon id="Path-74" fill="#FFFFFF" points="390 180.240738 390 184.246447 403 192 403 187.741528 390.815771 180"></polygon>
                <polygon id="Path-74-Copy-3" fill="#FFFFFF" points="207 430.240738 207 434.246447 220 442 220 437.741528 207.815771 430"></polygon>
                <polygon id="Path-80" fill="#96EBEA" points="390.016672 183.766881 402.543526 191.794845 402.543526 188.668211 389 179.507835 407.619997 170 421 177.983097 421 182.534413 402.543526 193 389 184.280544"></polygon>
                <polygon id="Path-80-Copy-3" fill="#96EBEA" points="207.016672 433.766881 219.543526 441.794845 219.543526 438.668211 206 429.507835 224.619997 420 238 427.983097 238 432.534413 219.543526 443 206 434.280544"></polygon>
                <polygon id="Path-75" fill="#5FE2DE" points="389 179.152664 402.578368 188 421 177.728637 407.62263 170"></polygon>
                <polygon id="Path-75-Copy" fill="#5FE2DE" points="206 429.152664 219.578368 438 238 427.728637 224.62263 420"></polygon>
                <g id="Group-15-Copy" transform="translate(413.000000, 304.500000) scale(-1, 1) translate(-413.000000, -304.500000) translate(374.000000, 220.000000)">
                    <path d="M7.1796875,65.5224609 C5.11132813,78.4990234 3.86360677,90.7089844 3.43652344,102.152344 C2.79589844,119.317383 -0.500976562,158.974609 0.203125,160.486328 C2.35872396,160.486328 5.4202474,159.982422 9.38769531,158.974609 C12.5113932,136.253906 14.2949219,122.093099 14.7382813,116.492188 C15.1816406,110.891276 17.0078125,101.504557 20.2167969,88.3320312 C24.1497396,106.847005 26.09375,119.683268 26.0488281,126.84082 C26.0039063,133.998372 25.5227865,143.782552 24.6054688,156.193359 L31.9541016,157.225586 C35.3603516,132.217122 37.0429688,115.483724 37.0019531,107.025391 C36.9609375,98.5670573 34.7571615,83.7532552 30.390625,62.5839844 L7.1796875,65.5224609 Z" id="Path-27" fill="#598ECC"></path>
                    <path d="M32.0043945,29.171875 C36.4410807,34.6979167 39.9171549,38.6756185 42.4326172,41.1049805 C43.7312826,40.5089518 44.6918945,40.7006836 45.3144531,41.6801758 L45.3144531,49.3232422 L39.1828613,50.104248 L33.0283203,44.5424805 L32.0043945,29.171875 Z" id="Path-29" fill="#6DD2D9"></path>
                    <path d="M36.652832,50.0014648 C48.987793,54.2947591 56.0436198,56.7176107 57.8203125,57.2700195 C59.4820964,57.2700195 61.0641276,57.6848958 62.5664063,58.5146484 C66.2683919,57.4390462 67.8820801,57.3934326 67.4074707,58.3778076 C66.6955566,59.8543701 64.7216797,60.8442383 63.8050537,60.9488525 C62.8884277,61.0534668 60.77771,61.7380371 59.7000732,61.7380371 C58.6224365,61.7380371 34.8486328,57.6464844 32.7089844,57.2700195 C31.2825521,57.019043 32.597168,54.5961914 36.652832,50.0014648 Z" id="Path-30" fill="#F5E0BE"></path>
                    <g id="Group-30-Copy" transform="translate(37.000000, 32.000000)">
                        <polygon id="Path-74-Copy" fill="#FFFFFF" points="2 12.2895529 2 19.7638945 16.6279376 28.9246611 16.6279376 21.3112718 2.91792683 12"></polygon>
                        <polygon id="Path-80-Copy" fill="#657D84" points="1.96459961 17.6945801 1.96459961 18.4316406 16.2241211 27.5175781 16.2241211 21.0026855 1.5645752 11.6787109 24.5469971 7 40.2945557 15.7568359 40.2945557 23.2294922 16.2241211 28.7839355 0 18.4316406"></polygon>
                        <g id="Group-32">
                            <polygon id="Path-74-Copy-2" fill="#FFFFFF" points="2 5.28955285 2 12.7638945 16.6279376 21.9246611 16.6279376 14.3112718 2.91792683 5"></polygon>
                            <polygon id="Path-80-Copy-2" fill="#4DDEE0" points="1.96459961 10.6945801 1.96459961 11.4316406 16.2241211 20.5175781 16.2241211 14.0026855 1.5645752 4.67871094 24.5469971 0 40.2945557 8.75683594 40.2945557 16.2294922 16.2241211 21.7839355 0 11.4316406"></polygon>
                        </g>
                    </g>
                    <path d="M20.9956055,5.87353516 C24.2472331,13.8562826 24.6608073,19.4104818 22.2363281,22.5361328 C16.9189453,24.2529297 12.8652344,21.7333984 11.2851563,19.4140625 C9.76041667,18.859375 8.79654948,17.5136719 8.39355469,15.3769531 L10.7504883,15.3769531 C11.1954753,11.7779948 11.7156576,9.77783203 12.3110352,9.37646484 C12.9064128,8.97509766 15.8012695,7.80745443 20.9956055,5.87353516 Z" id="Path-32" fill="#F5E0BE"></path>
                    <path d="M11.2211914,19.5594482 C8.19319661,18.4521077 6.58902995,17.4401042 6.40869141,16.5234375 C6.13818359,15.1484375 5.96923828,13.4990234 5.31982422,12.2446289 C4.67041016,10.9902344 4.60107422,5.21923828 6.94189453,3.35791016 C9.28271484,1.49658203 10.0258789,0.216308594 14.1391602,0.344238281 C18.2524414,0.472167969 24.4425049,1.05224609 24.9967041,0.344238281 C25.4074585,-0.180514032 24.3556607,9.22201277 22.848877,11.3265381 C22.288208,10.6401367 22.0428467,8.16027832 21.6209717,7.97766113 C18.0458984,7.05249023 15.3334961,9.21451858 14.1391602,9.87923194 C12.9448242,10.5439453 11.2211914,14.5869141 11.2211914,15.8696289 C11.2211914,16.4804658 10.9124295,15.7308104 9.99609375,15.4689941 C9.75176603,15.3991846 9.42490242,15.3991846 9.01550293,15.4689941 C8.79762336,16.0545932 8.79762336,16.4966098 9.01550293,16.7950439 C9.2333825,17.0934781 9.96861199,18.0149462 11.2211914,19.5594482 Z" id="Path-33" fill="#CBA362"></path>
                    <path d="M13.4736328,25.3427734 C7.03417969,25.8974609 3.73079427,27.9889323 3.56347656,31.6171875 C3.3125,37.0595703 2.0703125,61.9882813 3.56347656,67.9921875 C6.72123858,67.9921875 11.57215,67.9921875 18.1162109,67.9921875 L19.1875,51.1035156 C19.1875,36.3951823 19.1875,28.8505859 19.1875,28.4697266 C19.1875,28.0888672 17.2828776,27.0465495 13.4736328,25.3427734 Z" id="Path-25" fill="#FF5050"></path>
                    <path d="M24.5480957,24.0742188 C27.649821,23.7255859 30.0442708,24.485026 31.7314453,26.3525391 C34.262207,29.1538086 31.7314453,60.7822266 31.7314453,66.5097656 C29.0400391,67.5195313 26.8684896,68.0244141 25.2167969,68.0244141 C25.2167969,55.8547092 25.2167969,46.3748915 25.2167969,39.5849609 C25.2167969,32.7950304 24.9938965,27.624783 24.5480957,24.0742188 Z" id="Path-26" fill="#FF5050"></path>
                    <path d="M4.76806641,28.5546875 C7.41389974,27.5273437 9.83951823,27.9233398 12.0449219,29.7426758 C15.3530273,32.4716797 30.4633789,48.3393555 31.9125977,48.7368164 C33.3618164,49.1342773 33.3740234,48.7368164 34.3369141,48.7368164 C34.9788411,48.7368164 35.6575521,48.9791667 36.3730469,49.4638672 C36.8805339,50.4433594 36.8805339,51.2609049 36.3730469,51.9165039 C35.8655599,52.5721029 34.3787435,54.5976562 31.9125977,57.9931641 C29.4396159,58.3079427 28.1217448,57.8326823 27.9589844,56.5673828 C27.8020493,55.3473693 20.6269899,51.3731951 14.3164062,46.2172852 C10.8097486,43.3522552 7.48870545,38.436524 5.98144531,37.4545898 C3.16829427,35.6219076 2.76383464,32.6552734 4.76806641,28.5546875 Z" id="Path-28" fill="#6DD2D9"></path>
                    <path d="M8.10986328,159.399902 C14.5948893,163.259928 18.4467773,165.586426 19.6655273,166.379395 C19.3588867,167.92041 19.7486893,168.512799 18.6645508,168.660156 C15.73109,169.058875 11.4095313,168.387095 8.95703125,167.92041 C6.71777344,167.494303 5.59814453,166.579915 5.59814453,165.177246 L3.37451172,166.379395 L0.8984375,166.379395 L0.8984375,160.583984 L8.10986328,159.399902 Z" id="Path-34" fill="#38545E"></path>
                    <path d="M25.4013672,155.909668 C24.4863281,159.592285 24.0501302,161.947266 24.0927734,162.974609 C25.7666016,163.512695 26.9949544,163.512695 27.777832,162.974609 L28.3125,162.111816 C29.6074219,163.679199 30.719401,164.463216 31.6484375,164.463867 C33.0419922,164.464844 38.8125,166.511719 40.8476562,166.006836 C41.8440755,164.97819 42.016276,164.463867 41.3642578,164.463867 C39.5514323,163.107438 38.1888021,161.95225 37.2763672,160.998303 C36.3639323,160.044356 34.309082,158.602865 31.1118164,156.673828 L25.4013672,155.909668 Z" id="Path-35" fill="#38545E"></path>
                    <path d="M75.7849121,56.0537109 C76.385093,54.9527679 75.8706055,53.0878906 74.8439941,53.0878906 C73.8173828,53.0878906 72.8449707,56.0339355 72.1276855,56.3647461 C71.6494954,56.5852865 70.5725911,56.8324382 68.8969727,57.1062012 C70.0340169,57.9825033 71.1109212,58.3039551 72.1276855,58.0705566 C73.652832,57.720459 75.1847312,57.154654 75.7849121,56.0537109 Z" id="Path-76" fill="#F8E0BD"></path>
                </g>
                <path d="M384.296049,278.393839 C383.784764,276.172652 383.935731,275.041652 384.748952,275.00084 C385.968783,274.939622 388.532042,278.242283 389.3658,278.669643 C389.921638,278.95455 390.112107,279.398002 389.937207,280 L384.296049,278.393839 Z" id="Path-76" fill="#F8E0BD"></path>
            </g>
        </g>
    </g>
</svg>