<?xml version="1.0" encoding="UTF-8"?>
<svg width="34px" height="35px" viewBox="0 0 34 35" version="1.1" xmlns="http://www.w3.org/2000/svg" xmlns:xlink="http://www.w3.org/1999/xlink">
    <!-- Generator: Sketch 47 (45396) - http://www.bohemiancoding.com/sketch -->
    <title>Cursor-move - simple-line-icons</title>
    <desc>Created with Sketch.</desc>
    <defs></defs>
    <g id="Page-2" stroke="none" stroke-width="1" fill="none" fill-rule="evenodd">
        <g id="Artboard-Copy-7" transform="translate(-599.000000, -1082.000000)" fill="#788D94">
            <path d="M632.734375,1098.62695 L632.46875,1098.36133 L632.46875,1098.32812 L632.435547,1098.32812 L628.152344,1094.41016 C627.997395,1094.25521 627.809246,1094.17773 627.587891,1094.17773 C627.366535,1094.17773 627.178386,1094.25521 627.023438,1094.41016 L626.824219,1094.67578 C626.66927,1094.83073 626.608398,1095.00781 626.641602,1095.20703 C626.674805,1095.40625 626.768879,1095.58333 626.923828,1095.73828 L629.480469,1098.0625 L617.128906,1098.0625 L617.128906,1085.64453 L619.453125,1088.20117 C619.608074,1088.35612 619.785155,1088.4502 619.984375,1088.4834 C620.183595,1088.5166 620.360676,1088.45573 620.515625,1088.30078 L620.78125,1088.10156 C620.936199,1087.94661 621.013672,1087.75846 621.013672,1087.53711 C621.013672,1087.31575 620.936199,1087.1276 620.78125,1086.97266 L617.029297,1082.85547 C616.985026,1082.76693 616.929688,1082.68392 616.863281,1082.60645 C616.796875,1082.52897 616.719401,1082.4681 616.630859,1082.42383 L616.564453,1082.39062 C616.498047,1082.30208 616.420573,1082.24121 616.332031,1082.20801 C616.243489,1082.1748 616.143881,1082.1582 616.033203,1082.1582 C615.944661,1082.1582 615.850586,1082.1748 615.750977,1082.20801 C615.651367,1082.24121 615.56836,1082.30208 615.501953,1082.39062 L615.203125,1082.68945 L611.384766,1086.90625 C611.229817,1087.0612 611.152344,1087.24935 611.152344,1087.4707 C611.152344,1087.69206 611.229817,1087.88021 611.384766,1088.03516 L611.650391,1088.23438 C611.805339,1088.38932 611.987955,1088.4502 612.198242,1088.41699 C612.40853,1088.38379 612.580077,1088.28971 612.712891,1088.13477 L615.003906,1085.57812 L615.003906,1098.0293 L602.519531,1098.0293 L605.076172,1095.73828 C605.231121,1095.58333 605.325195,1095.40625 605.358398,1095.20703 C605.391602,1095.00781 605.33073,1094.83073 605.175781,1094.67578 L604.976562,1094.41016 C604.821614,1094.25521 604.633465,1094.17773 604.412109,1094.17773 C604.190754,1094.17773 604.002605,1094.25521 603.847656,1094.41016 L599.730469,1098.16211 C599.641927,1098.20638 599.55892,1098.26172 599.481445,1098.32812 C599.403971,1098.39453 599.343099,1098.472 599.298828,1098.56055 L599.265625,1098.62695 C599.177083,1098.69336 599.116211,1098.77083 599.083008,1098.85938 C599.049805,1098.94792 599.033203,1099.04753 599.033203,1099.1582 C599.033203,1099.24675 599.049805,1099.34082 599.083008,1099.44043 C599.116211,1099.54004 599.177083,1099.62305 599.265625,1099.68945 L599.564453,1099.98828 L603.78125,1103.80664 C603.936199,1103.96159 604.124348,1104.03906 604.345703,1104.03906 C604.567058,1104.03906 604.755208,1103.96159 604.910156,1103.80664 L605.109375,1103.54102 C605.264324,1103.38607 605.325195,1103.20345 605.291992,1102.99316 C605.258789,1102.78288 605.164714,1102.61133 605.009766,1102.47852 L602.419922,1100.1875 L615.003906,1100.1875 L615.003906,1112.67188 L612.712891,1110.11523 C612.580077,1109.96029 612.40853,1109.86621 612.198242,1109.83301 C611.987955,1109.7998 611.805339,1109.86068 611.650391,1110.01562 L611.384766,1110.21484 C611.229817,1110.36979 611.152344,1110.55794 611.152344,1110.7793 C611.152344,1111.00065 611.229817,1111.1888 611.384766,1111.34375 L615.203125,1115.56055 L615.501953,1115.85938 C615.56836,1115.94792 615.651367,1116.00879 615.750977,1116.04199 C615.850586,1116.0752 615.944661,1116.0918 616.033203,1116.0918 C616.143881,1116.0918 616.243489,1116.0752 616.332031,1116.04199 C616.420573,1116.00879 616.498047,1115.94792 616.564453,1115.85938 L616.830078,1115.59375 L616.863281,1115.59375 L616.863281,1115.56055 L620.78125,1111.27734 C620.936199,1111.1224 621.013672,1110.93425 621.013672,1110.71289 C621.013672,1110.49154 620.936199,1110.30339 620.78125,1110.14844 L620.515625,1109.94922 C620.360676,1109.79427 620.183595,1109.7334 619.984375,1109.7666 C619.785155,1109.7998 619.608074,1109.89388 619.453125,1110.04883 L617.162109,1112.60547 L617.162109,1100.1875 L629.546875,1100.1875 L626.990234,1102.47852 C626.835286,1102.61133 626.741211,1102.78288 626.708008,1102.99316 C626.674805,1103.20345 626.735676,1103.38607 626.890625,1103.54102 L627.089844,1103.80664 C627.244792,1103.96159 627.432942,1104.03906 627.654297,1104.03906 C627.875652,1104.03906 628.063801,1103.96159 628.21875,1103.80664 L632.435547,1099.98828 L632.734375,1099.68945 C632.822917,1099.62305 632.883789,1099.54004 632.916992,1099.44043 C632.950195,1099.34082 632.966797,1099.24675 632.966797,1099.1582 C632.966797,1099.04753 632.950195,1098.94792 632.916992,1098.85938 C632.883789,1098.77083 632.822917,1098.69336 632.734375,1098.62695 Z" id="Cursor-move---simple-line-icons"></path>
        </g>
    </g>
</svg>