<?xml version="1.0" encoding="UTF-8"?>
<svg width="48px" height="42px" viewBox="0 0 48 42" version="1.1" xmlns="http://www.w3.org/2000/svg" xmlns:xlink="http://www.w3.org/1999/xlink">
    <!-- Generator: Sketch 47 (45396) - http://www.bohemiancoding.com/sketch -->
    <title>Bubble - simple-line-icons</title>
    <desc>Created with Sketch.</desc>
    <defs></defs>
    <g id="Page-2" stroke="none" stroke-width="1" fill="none" fill-rule="evenodd">
        <g id="Artboard-Copy-7" transform="translate(-994.000000, -3002.000000)" fill="#788D94">
            <path d="M1018,3005 C1015.09374,3005 1012.3672,3005.39062 1009.82031,3006.17188 C1007.27342,3006.95313 1005.0547,3008.02343 1003.16406,3009.38281 C1001.27343,3010.74219 999.773443,3012.33593 998.664062,3014.16406 C997.554682,3015.9922 997,3017.93749 997,3020 C997,3021.25001 997.187498,3022.46093 997.5625,3023.63281 C997.937502,3024.80469 998.484371,3025.90624 999.203125,3026.9375 C999.921879,3027.96876 1000.79687,3028.92968 1001.82812,3029.82031 C1002.85938,3030.71094 1004.04687,3031.48437 1005.39062,3032.14062 L1007.03125,3032.98438 L1007.03125,3035.09375 L1006.98438,3035.1875 C1006.98438,3036 1006.89063,3036.80468 1006.70312,3037.60156 C1006.51562,3038.39844 1006.26563,3039.17187 1005.95312,3039.92188 C1007.35938,3039.26562 1008.62499,3038.50782 1009.75,3037.64844 C1010.87501,3036.78906 1011.5625,3036.21875 1011.8125,3035.9375 L1012.89062,3034.625 L1014.53125,3034.85938 C1014.96875,3034.92188 1015.34375,3034.96094 1015.65625,3034.97656 C1015.96875,3034.99219 1016.32812,3035 1016.73438,3035 L1018,3035 C1020.90626,3035 1023.6328,3034.60938 1026.17969,3033.82812 C1028.72658,3033.04687 1030.9453,3031.97657 1032.83594,3030.61719 C1034.72657,3029.25781 1036.22656,3027.66407 1037.33594,3025.83594 C1038.44532,3024.0078 1039,3022.06251 1039,3020 C1039,3017.93749 1038.44532,3015.9922 1037.33594,3014.16406 C1036.22656,3012.33593 1034.72657,3010.74219 1032.83594,3009.38281 C1030.9453,3008.02343 1028.72658,3006.95313 1026.17969,3006.17188 C1023.6328,3005.39062 1020.90626,3005 1018,3005 Z M1018,3002 C1021.31252,3002 1024.42967,3002.46875 1027.35156,3003.40625 C1030.27345,3004.34375 1032.8203,3005.6328 1034.99219,3007.27344 C1037.16407,3008.91407 1038.87499,3010.8203 1040.125,3012.99219 C1041.37501,3015.16407 1042,3017.49999 1042,3020 C1042,3022.50001 1041.37501,3024.83593 1040.125,3027.00781 C1038.87499,3029.1797 1037.16407,3031.08593 1034.99219,3032.72656 C1032.8203,3034.3672 1030.27345,3035.65625 1027.35156,3036.59375 C1024.42967,3037.53125 1021.31252,3038 1018,3038 L1016.73438,3038 C1016.29687,3038 1015.88281,3037.99219 1015.49219,3037.97656 C1015.10156,3037.96094 1014.64063,3037.90625 1014.10938,3037.8125 C1013.85937,3038.125 1013.36719,3038.58593 1012.63281,3039.19531 C1011.89843,3039.80469 1011.03125,3040.42968 1010.03125,3041.07031 C1009.03125,3041.71094 1007.94532,3042.30468 1006.77344,3042.85156 C1005.60156,3043.39844 1004.42188,3043.78125 1003.23438,3044 L1002.85938,3044 C1002.48437,3044 1002.16406,3043.86719 1001.89844,3043.60156 C1001.63281,3043.33594 1001.5,3043.01563 1001.5,3042.64062 C1001.5,3042.54687 1001.50781,3042.45313 1001.52344,3042.35938 C1001.53906,3042.26562 1001.5625,3042.1875 1001.59375,3042.125 C1002.03125,3041.34375 1002.53906,3040.28907 1003.11719,3038.96094 C1003.69532,3037.63281 1003.98438,3036.29688 1003.98438,3034.95312 C1003.98438,3034.92187 1003.99219,3034.89844 1004.00781,3034.88281 C1004.02344,3034.86719 1004.03125,3034.84375 1004.03125,3034.8125 C1002.43749,3034 1001.01563,3033.06251 999.765625,3032 C998.515619,3030.93749 997.468754,3029.77344 996.625,3028.50781 C995.781246,3027.24218 995.132815,3025.89844 994.679688,3024.47656 C994.22656,3023.05468 994,3021.56251 994,3020 C994,3017.49999 994.624994,3015.16407 995.875,3012.99219 C997.125006,3010.8203 998.835927,3008.91407 1001.00781,3007.27344 C1003.1797,3005.6328 1005.72655,3004.34375 1008.64844,3003.40625 C1011.57033,3002.46875 1014.68748,3002 1018,3002 Z" id="Bubble---simple-line-icons"></path>
        </g>
    </g>
</svg>