<?xml version="1.0" encoding="UTF-8"?>
<svg width="32px" height="23px" viewBox="0 0 32 23" version="1.1" xmlns="http://www.w3.org/2000/svg" xmlns:xlink="http://www.w3.org/1999/xlink">
    <!-- Generator: Sketch 47 (45396) - http://www.bohemiancoding.com/sketch -->
    <title>network_check - material</title>
    <desc>Created with Sketch.</desc>
    <defs></defs>
    <g id="Page-2" stroke="none" stroke-width="1" fill="none" fill-rule="evenodd">
        <g id="Artboard-Copy-7" transform="translate(-108.000000, -1743.000000)" fill="#B9C9CE">
            <path d="M114.106,1755.494 C115.51134,1754.08866 117.131991,1753.03467 118.968,1752.332 C120.736009,1751.67466 122.57199,1751.38 124.476,1751.448 L122.606,1755.494 C121.563328,1755.63 120.549005,1755.94166 119.563,1756.429 C118.576995,1756.91634 117.687337,1757.55666 116.894,1758.35 L114.106,1755.494 Z M131.106,1758.35 C130.629998,1757.874 130.052003,1757.40934 129.372,1756.956 L130.188,1752.842 C131.548007,1753.49934 132.783328,1754.38333 133.894,1755.494 L131.106,1758.35 Z M136.75,1752.706 C135.004658,1750.93799 133.055344,1749.63467 130.902,1748.796 L131.65,1744.818 C134.687349,1745.90601 137.339322,1747.58332 139.606,1749.85 L136.75,1752.706 Z M108.394,1749.85 C111.00068,1747.24332 114.049316,1745.40734 117.54,1744.342 C120.91735,1743.32199 124.351316,1743.118 127.842,1743.73 L126.21,1747.538 C123.512653,1747.198 120.86068,1747.47 118.254,1748.354 C115.57932,1749.26067 113.244677,1750.71132 111.25,1752.706 L108.394,1749.85 Z M129.508,1744.206 C129.712001,1744.206 129.887666,1744.26833 130.035,1744.393 C130.182334,1744.51767 130.256,1744.67067 130.256,1744.852 L126.788,1763.144 L126.788,1763.212 C126.651999,1763.84667 126.317669,1764.37933 125.785,1764.81 C125.252331,1765.24067 124.657337,1765.456 124,1765.456 C123.206663,1765.456 122.532336,1765.17834 121.977,1764.623 C121.421664,1764.06766 121.144,1763.39334 121.144,1762.6 C121.144,1762.124 121.257332,1761.65934 121.484,1761.206 L128.862,1744.75 C128.975334,1744.38733 129.190665,1744.206 129.508,1744.206 Z" id="network_check---material"></path>
        </g>
    </g>
</svg>