<?xml version="1.0" encoding="UTF-8"?>
<svg width="34px" height="35px" viewBox="0 0 34 35" version="1.1" xmlns="http://www.w3.org/2000/svg" xmlns:xlink="http://www.w3.org/1999/xlink">
    <!-- Generator: Sketch 47 (45396) - http://www.bohemiancoding.com/sketch -->
    <title>Docs - simple-line-icons</title>
    <desc>Created with Sketch.</desc>
    <defs></defs>
    <g id="Page-2" stroke="none" stroke-width="1" fill="none" fill-rule="evenodd">
        <g id="Artboard-Copy-7" transform="translate(-107.000000, -1668.000000)" fill="#B9C9CE">
            <path d="M132.5,1668.125 L141,1676.625 L141,1695.75 C141,1696.34766 140.795249,1696.85123 140.385742,1697.26074 C139.976235,1697.67025 139.472659,1697.875 138.875,1697.875 L131.4375,1697.875 L131.4375,1695.75 L138.875,1695.75 L138.875,1678.75 L130.375,1678.75 L130.375,1670.25 L118.6875,1670.25 C118.6875,1669.65234 118.892251,1669.14877 119.301758,1668.73926 C119.711265,1668.32975 120.214841,1668.125 120.8125,1668.125 L132.5,1668.125 Z M132.5,1676.625 L137.978516,1676.625 L132.5,1671.11328 L132.5,1676.625 Z M109.125,1672.375 L120.8125,1672.375 L129.3125,1680.875 L129.3125,1700 C129.3125,1700.59766 129.107749,1701.10123 128.698242,1701.51074 C128.288735,1701.92025 127.785159,1702.125 127.1875,1702.125 L109.125,1702.125 C108.527341,1702.125 108.023765,1701.92025 107.614258,1701.51074 C107.204751,1701.10123 107,1700.59766 107,1700 L107,1674.5 C107,1673.90234 107.204751,1673.39877 107.614258,1672.98926 C108.023765,1672.57975 108.527341,1672.375 109.125,1672.375 Z M127.1875,1700 L127.1875,1683 L118.6875,1683 L118.6875,1674.5 L109.125,1674.5 L109.125,1700 L127.1875,1700 Z M120.8125,1680.875 L126.291016,1680.875 L120.8125,1675.36328 L120.8125,1680.875 Z" id="Docs---simple-line-icons"></path>
        </g>
    </g>
</svg>