<?xml version="1.0" encoding="UTF-8"?>
<svg width="419px" height="264px" viewBox="0 0 419 264" version="1.1" xmlns="http://www.w3.org/2000/svg" xmlns:xlink="http://www.w3.org/1999/xlink">
    <!-- Generator: Sketch 47 (45396) - http://www.bohemiancoding.com/sketch -->
    <title>Group 39</title>
    <desc>Created with Sketch.</desc>
    <defs></defs>
    <g id="Page-2" stroke="none" stroke-width="1" fill="none" fill-rule="evenodd">
        <g id="Artboard-Copy-7" transform="translate(-450.000000, -2596.000000)">
            <g id="Group-39" transform="translate(450.000000, 2595.000000)">
                <polygon id="Path-92" fill="#FFFFFF" points="1 158.859375 209.4375 262.934082 417.875 158.859375 315.328125 107 107.660156 107"></polygon>
                <g id="Group-38-Copy" transform="translate(0.000000, 1.000000)">
                    <polygon id="Path-82-Copy" fill="#B2BDC8" opacity="0.385586504" transform="translate(157.361572, 79.475098) scale(-1, 1) translate(-157.361572, -79.475098) " points="209.723145 0 209.723145 106.87793 106.516113 158.950195 105 54.2167969"></polygon>
                    <polygon id="Path-82" fill="#B2BDC8" opacity="0.385586504" points="106.110352 0 106.110352 106.87793 0.515625 158.345215 0.515625 53.5283203"></polygon>
                    <polygon id="Path-89" fill="#E6EBEE" opacity="0.559952446" points="0.682617188 53.5151367 107.15625 107.260742 106.628418 211.931641 0 159.307617"></polygon>
                    <polygon id="Path-89-Copy" fill="#E6EBEE" opacity="0.517266757" transform="translate(157.739014, 132.778809) scale(-1, 1) translate(-157.739014, -132.778809) " points="106.31543 54.0581055 208.140137 107.150391 209.162598 211.499512 107.179199 158.773926"></polygon>
                    <polygon id="Path-81" fill="#ACBFCD" opacity="0.327105978" points="105.587524 0.44921875 0.647705078 53.5795898 106.731445 107.15918 209.474609 53.8041992"></polygon>
                    <g id="Group-37" opacity="0.815387228" transform="translate(53.000000, 54.000000)" fill="#FF5050">
                        <polygon id="Path-91-Copy" opacity="0.797724185" transform="translate(80.153320, 65.981812) scale(-1, 1) translate(-80.153320, -65.981812) " points="54.0068359 80.0791016 54.0068359 25.7646484 106.299805 52.954834 106.299805 106.198975"></polygon>
                        <polygon id="Path-90" points="1 25.9130859 53.8193359 53.2294922 106.734375 25.9130859 53.8193359 0.439453125"></polygon>
                        <polygon id="Path-91" opacity="0.691066576" points="0.869628906 78.7141113 0.869628906 25.8244629 54.0581055 52.8977051 54.0581055 106.266357"></polygon>
                    </g>
                </g>
                <g id="Group-38-Copy-2" transform="translate(208.000000, 0.000000)">
                    <polygon id="Path-82-Copy" fill="#B2BDC8" opacity="0.385586504" transform="translate(158.361572, 80.475098) scale(-1, 1) translate(-158.361572, -80.475098) " points="210.723145 1 210.723145 107.87793 107.516113 159.950195 106 55.2167969"></polygon>
                    <polygon id="Path-82" fill="#B2BDC8" opacity="0.385586504" points="107.110352 1 107.110352 107.87793 0.264160156 159.851562 1.43701172 54.8364258"></polygon>
                    <polygon id="Path-89" fill="#E6EBEE" opacity="0.559952446" points="0.348632812 54.909668 108.983887 107.606934 108.983887 212.35791 0.348632812 160.006348"></polygon>
                    <polygon id="Path-89-Copy" fill="#E6EBEE" opacity="0.517266757" transform="translate(159.921631, 133.665039) scale(-1, 1) translate(-159.921631, -133.665039) " points="109 55.2226562 210.843262 106.524414 210.843262 212.107422 110.464355 160.527832"></polygon>
                    <polygon id="Path-81" fill="#ACBFCD" opacity="0.327105978" points="106.48877 0.96875 1.45019531 55.0795898 107.98584 108.291504 210.644531 55.0795898"></polygon>
                    <g id="Group-37" opacity="0.803045743" transform="translate(54.000000, 55.000000)" fill="#FF5050">
                        <polygon id="Path-91-Copy" opacity="0.797724185" transform="translate(81.098145, 65.749146) scale(-1, 1) translate(-81.098145, -65.749146) " points="54.6953125 80.1855469 54.0068359 25.2993164 108.189453 52.3173828 108.189453 106.198975"></polygon>
                        <polygon id="Path-90" points="0.986816406 26.6757812 53.8193359 52.9121094 108.396973 25.2299805 53.8193359 0.439453125"></polygon>
                        <polygon id="Path-91" opacity="0.691066576" points="0.869628906 78.7141113 0.869628906 26.7060547 54.0581055 52.8977051 54.0581055 106.266357"></polygon>
                    </g>
                </g>
                <g id="Group-38" transform="translate(106.000000, 54.000000)">
                    <polygon id="Path-82-Copy" fill="#B2BDC8" opacity="0.385586504" transform="translate(156.468262, 79.229980) scale(-1, 1) translate(-156.468262, -79.229980) " points="209.723145 0.826171875 209.125 106.473145 103.213379 157.633789 103.213379 53.6762695"></polygon>
                    <polygon id="Path-82" fill="#B2BDC8" opacity="0.385586504" points="103.244629 0.688476562 103.244629 106.362793 0.514160156 158.068359 1.14257812 54.1635742"></polygon>
                    <polygon id="Path-89" fill="#E6EBEE" opacity="0.559952446" points="0.832804745 54.1267137 102.756501 106.038306 103.46582 210.12793 0.278320312 158.67627"></polygon>
                    <polygon id="Path-89-Copy" fill="#E6EBEE" opacity="0.517266757" transform="translate(156.632599, 132.040771) scale(-1, 1) translate(-156.632599, -132.040771) " points="103.421936 53.5893555 209.843262 106.166016 209.843262 210.492188 103.421936 158.272461"></polygon>
                    <polygon id="Path-81" fill="#A6B9C7" opacity="0.327105978" points="103.501465 0.79296875 0.840576172 54.3222656 104.306152 106.292969 209.766602 53.8144531"></polygon>
                    <g id="Group-37" opacity="0.83446558" transform="translate(49.000000, 54.000000)" fill="#FF5050">
                        <polygon id="Path-91-Copy" opacity="0.797724185" transform="translate(81.909546, 65.609741) scale(-1, 1) translate(-81.909546, -65.609741) " points="54.0068359 79.0825195 54.0068359 25.0205078 109.812256 51.7016602 109.812256 106.198975"></polygon>
                        <polygon id="Path-90" points="1 25.9130859 53.8193359 51.9428711 109.933105 25.0390625 53.8193359 0.439453125"></polygon>
                        <polygon id="Path-91" opacity="0.691066576" points="0.869628906 78.7141113 0.869628906 25.8244629 54.0581055 51.7373047 54.0581055 106.266357"></polygon>
                    </g>
                </g>
                <g id="Group-13" transform="translate(158.903083, 124.834747) scale(-1, 1) rotate(14.000000) translate(-158.903083, -124.834747) translate(114.403083, 59.834747)">
                    <path d="M9.00029433,71.9554618 C10.9844628,77.5228064 15.2941935,80.1127133 21.9294865,79.7251828 C31.8824259,79.1438869 37.8846117,76.569869 39.5462447,81.9724392 C41.2078777,87.3750093 45.093661,123.144313 48.4380004,122.954416 C50.6675599,122.827818 52.9094123,122.361515 55.1635575,121.555508 C52.2919634,91.3562554 50.050111,74.8229068 48.4380004,71.9554618 C50.6611118,72.245556 49.8461978,70.7371091 54.7104842,73.6720672 C64.501604,79.5797224 63.8805587,96.100812 69.5917087,110.398752 C73.1641716,110.09279 75.6237984,109.771912 76.9705891,109.43612 C74.1941241,79.789025 68.6906192,63.797611 60.4600742,61.4618777 C52.2295292,59.1261444 42.2138102,58.6351134 30.4129172,59.9887848 L9.00029433,71.9554618 Z" id="Path-10" fill="#436EA1"></path>
                    <path d="M24.3522633,89 C19.5432886,89.7257026 16.8659016,90.2879458 16.320102,90.6867295 C15.5014027,91.2849051 13.0757522,96.0482508 14.375714,96.3700208 C15.6756758,96.6917907 16.2360868,96.3888983 18.0642034,94.5057999 C19.89232,92.6227016 23.7737904,95.1478447 26.3410599,92.2879324 C28.0525729,90.3813242 27.3896407,89.2853467 24.3522633,89 Z" id="Path-14" fill="#FADCB6" transform="translate(20.633155, 92.740757) scale(-1, 1) translate(-20.633155, -92.740757) "></path>
                    <path d="M69.5644809,49.7283738 C64.7555063,50.4540764 62.0781192,51.0163196 61.5323196,51.4151033 C60.7136203,52.0132789 58.2879698,56.7766247 59.5879316,57.0983946 C60.8878934,57.4201646 61.4483045,57.1172721 63.2764211,55.2341738 C63.9477893,54.5426137 64.8588227,54.0509907 65.5878594,54.5019614 C66.0597354,54.7938564 63.9162732,56.3104682 63.5123093,56.7327926 C63.1320662,57.130318 63.2256301,57.7137204 63.8348502,57.472127 C65.0594254,56.9865073 68.428951,55.2609401 68.6564928,55.0190285 C70.7326929,52.8117115 70.6329287,54.0415656 71.5532775,53.0163062 C73.2647906,51.109698 72.6018583,50.0137205 69.5644809,49.7283738 Z" id="Path-14-Copy" fill="#FADCB6" transform="translate(65.845373, 53.628630) scale(-1, 1) translate(-65.845373, -53.628630) "></path>
                    <rect id="Rectangle-27" fill="#F6DCB7" x="14" y="17" width="9" height="14"></rect>
                    <path d="M12.5895138,24.0690031 C8.48021211,25.2991138 5.46426564,28.2136813 3.5416744,32.8127057 C0.657787536,39.7112424 -5.31721765,65.1356341 13.6822962,92.7258218 C16.7402516,91.2628926 18.983991,89.9901711 20.4135144,88.9076571 L11.2142458,72.8436395 C14.2059879,71.5602406 16.8801294,70.2647161 19.2366702,68.9570659 C23.1723523,66.7731465 29.6169629,62.9724255 32.4467773,59.5252803 C30.9772629,54.0168601 29.8139202,48.2275407 28.9567493,42.1573219 C33.5906851,46.5877513 37.7874137,49.6208785 41.5469351,51.2567038 C45.3064566,52.892529 51.6492016,53.9385088 60.5751701,54.394643 C60.6784866,52.7998266 60.8983384,51.7473593 61.2347257,51.237241 C61.5711129,50.7271227 62.5668539,50.1052088 64.2219487,49.3714994 C54.4356562,47.5248759 47.015465,45.2139093 41.9613751,42.4385995 C34.3802403,38.2756349 33.3836341,25.2379247 28.9550713,24.0690031 C27.2095879,23.6082818 24.3265592,23.0190718 22.6773227,24.0690031 C21.9170939,24.5529773 20.8834465,25.934654 19.5763804,28.214033 L12.5895138,24.0690031 Z" id="Path-9" fill="#ECF8F9"></path>
                    <path d="M69.8855391,113.801137 C70.4958068,116.294944 70.9382686,117.541847 71.2129245,117.541847 C71.3399198,117.541847 73.2315445,117.218661 75.4856667,116.473011 C75.8063928,116.366917 75.8459868,115.924459 76.2834323,115.954936 C79.8830091,116.205725 85.5221454,114.73477 87.7443459,112.481221 C87.3719888,111.866565 86.2239935,110.388313 84.5421212,110.591681 C82.3322881,110.858889 79.0541337,111.24999 77.8670957,111.081656 C76.4734453,110.884023 75.5881398,110.637679 75.2111791,110.342626 L69.8855391,113.801137 Z" id="Path-16" fill="#20596D" transform="translate(78.814942, 113.942237) rotate(19.000000) translate(-78.814942, -113.942237) "></path>
                    <path d="M47.9095863,123.765769 C47.8813132,125.863657 47.8813132,127.000665 47.9095863,127.176794 C47.9942125,127.703979 49.0705272,127.919633 51.2827081,128.424094 C51.6634648,128.510921 51.9337912,128.07611 52.3479962,128.158488 C56.4096193,128.966271 61.9458128,130.031986 64.5394815,127.862802 C64.4655491,127.262515 63.7341366,125.813683 62.2053043,125.442009 C60.7075636,125.077892 58.6247413,124.379669 57.6864434,124.187154 C56.4223941,123.927804 55.2496142,123.133907 54.1681036,121.805462 L47.9095863,123.765769 Z" id="Path-15" fill="#20596D"></path>
                    <path d="M22.4541834,5.94549991 C26.0084166,8.4119256 27.9268339,11.8728421 28.2094354,16.3282493 C28.4920368,20.7836566 29.1736995,22.7417874 30.2544234,22.2026418 C27.0189132,24.1586593 25.0064969,24.4917137 24.2171743,23.2018051 C23.4278518,21.9118965 21.8624274,16.7017764 19.520901,7.57144487 L22.4541834,5.94549991 Z" id="Path-13" fill="#565B5F" transform="translate(24.887662, 14.958103) rotate(15.000000) translate(-24.887662, -14.958103) "></path>
                    <path d="M23.2068246,4.0895893 C24.1153844,7.47703411 24.6377825,9.57732463 24.7740188,10.3904609 C24.878499,11.0140585 25.6049396,11.534279 26.2341552,12.3007331 C26.3616526,12.4560391 26.3616526,12.7473257 26.2341552,13.174593 L25.2867775,14.0882502 C25.610265,16.9422612 25.610265,18.4890324 25.2867775,18.7285638 C24.9161445,18.92772 22.6543611,19.9423543 20.5419203,20.730829 C17.4203293,21.8959721 12.9939245,19.5957746 12.0518877,17.0192401 C10.5080717,12.7967985 9.41236271,5.46792247 14.3673181,4.0895893 C17.6706217,3.17070052 20.6171239,3.17070052 23.2068246,4.0895893 Z" id="Path-11" fill="#FFE8C2" transform="translate(18.540132, 12.221155) rotate(15.000000) translate(-18.540132, -12.221155) "></path>
                    <path d="M20.9753473,2.71236376 C22.9609033,2.77381655 23.682355,5.25573343 23.5610227,5.50595842 C23.0452562,6.56962961 22.0525238,7.32819347 21.2658412,7.97139197 C19.8082206,9.1631551 17.7846156,12.5560669 17.7846156,14.3328148 C17.7846156,16.1095627 20.2262433,21.4998753 20.9803616,22.7507784 C22.0769651,24.5697831 22.0885824,24.7500617 16.964006,26.7538016 C15.6600159,27.2636694 13.4797313,26.6714735 11.5717227,25.2196218 C4.19994037,19.6102473 7.97666995,6.66649249 10.8748743,4.51999683 C13.7730787,2.37350118 18.9897913,2.65091098 20.9753473,2.71236376 Z" id="Path-12" fill="#565B5F" transform="translate(15.431966, 14.800419) rotate(15.000000) translate(-15.431966, -14.800419) "></path>
                </g>
            </g>
        </g>
    </g>
</svg>