<?xml version="1.0" encoding="UTF-8"?>
<svg width="26px" height="26px" viewBox="0 0 26 26" version="1.1" xmlns="http://www.w3.org/2000/svg" xmlns:xlink="http://www.w3.org/1999/xlink">
    <!-- Generator: Sketch 47 (45396) - http://www.bohemiancoding.com/sketch -->
    <title>gesture - material</title>
    <desc>Created with Sketch.</desc>
    <defs></defs>
    <g id="Page-2" stroke="none" stroke-width="1" fill="none" fill-rule="evenodd">
        <g id="Artboard-Copy-7" transform="translate(-637.000000, -2380.000000)" fill="#788D94">
            <path d="M652.652,2402.382 C653.037335,2402.382 653.422665,2402.23467 653.808,2401.94 C654.261336,2401.57733 654.646665,2401.056 654.964,2400.376 C655.326668,2399.58266 655.575999,2398.59667 655.712,2397.418 C654.782662,2397.66733 653.978003,2398.05266 653.298,2398.574 C652.731331,2399.02734 652.289335,2399.53733 651.972,2400.104 C651.722665,2400.58 651.598,2400.98233 651.598,2401.311 C651.598,2401.63967 651.711332,2401.90033 651.938,2402.093 C652.164668,2402.28567 652.402665,2402.382 652.652,2402.382 Z M639.494,2385.858 L637.046,2383.478 C637.499336,2382.934 637.901665,2382.48634 638.253,2382.135 C638.604335,2381.78366 639.051997,2381.44933 639.596,2381.132 C640.480004,2380.61066 641.318663,2380.35 642.112,2380.35 C642.610669,2380.35 643.109331,2380.47467 643.608,2380.724 C644.197336,2381.01867 644.673332,2381.438 645.036,2381.982 C645.466669,2382.63934 645.682,2383.444 645.682,2384.396 C645.682,2385.28 645.512002,2386.096 645.172,2386.844 C644.945332,2387.388 644.492003,2388.12466 643.812,2389.054 C643.426665,2389.62067 642.973336,2390.36866 642.452,2391.298 C641.839997,2392.40867 641.432001,2393.31533 641.228,2394.018 C640.978665,2394.766 640.910666,2395.40633 641.024,2395.939 C641.137334,2396.47167 641.363998,2396.738 641.704,2396.738 C642.112002,2396.738 642.644663,2396.34134 643.302,2395.548 C643.506001,2395.344 643.993329,2394.78867 644.764,2393.882 C645.580004,2392.90733 646.169332,2392.182 646.532,2391.706 C647.325337,2390.73133 648.231995,2389.904 649.252,2389.224 C650.702674,2388.22666 652.13066,2387.728 653.536,2387.728 C654.828006,2387.728 655.927329,2388.068 656.834,2388.748 C657.582004,2389.31467 658.171331,2390.08533 658.602,2391.06 C658.942002,2391.876 659.157333,2392.73733 659.248,2393.644 L662.75,2393.644 L662.75,2397.146 L659.282,2397.146 C659.100666,2399.23134 658.613337,2400.98799 657.82,2402.416 C657.139997,2403.59467 656.278672,2404.49 655.236,2405.102 C654.374662,2405.60067 653.490671,2405.85 652.584,2405.85 C651.767996,2405.85 651.014337,2405.65167 650.323,2405.255 C649.631663,2404.85833 649.082002,2404.32567 648.674,2403.657 C648.265998,2402.98833 648.062,2402.25734 648.062,2401.464 C648.062,2400.58 648.322664,2399.63934 648.844,2398.642 C649.456003,2397.48599 650.283328,2396.5 651.326,2395.684 C652.572673,2394.732 654.034658,2394.10867 655.712,2393.814 C655.644,2393.24733 655.576,2392.862 655.508,2392.658 C655.371999,2392.22733 655.156668,2391.91 654.862,2391.706 C654.453998,2391.434 653.89867,2391.298 653.196,2391.298 C652.402663,2391.298 651.428006,2391.84199 650.272,2392.93 C649.56933,2393.58734 648.617339,2394.66399 647.416,2396.16 C646.327995,2397.45201 645.602668,2398.27933 645.24,2398.642 C644.491996,2399.39 643.778003,2399.866 643.098,2400.07 C642.055328,2400.41 641.080671,2400.36467 640.174,2399.934 C639.357996,2399.54866 638.700669,2398.91967 638.202,2398.047 C637.703331,2397.17433 637.454,2396.22801 637.454,2395.208 C637.454,2394.41466 637.646665,2393.49667 638.032,2392.454 C638.349335,2391.59266 638.79133,2390.66334 639.358,2389.666 C639.743335,2388.96333 640.196664,2388.21534 640.718,2387.422 C641.284669,2386.56066 641.545334,2386.17533 641.5,2386.266 C641.817335,2385.722 642.021333,2385.314 642.112,2385.042 C642.293334,2384.54333 642.225335,2384.23733 641.908,2384.124 C641.703999,2384.03333 641.375336,2384.16933 640.922,2384.532 C640.695332,2384.71333 640.219337,2385.15533 639.494,2385.858 Z" id="gesture---material"></path>
        </g>
    </g>
</svg>