<?xml version="1.0" encoding="UTF-8"?>
<svg width="473px" height="463px" viewBox="0 0 473 463" version="1.1" xmlns="http://www.w3.org/2000/svg" xmlns:xlink="http://www.w3.org/1999/xlink">
    <!-- Generator: Sketch 47 (45396) - http://www.bohemiancoding.com/sketch -->
    <title>Group 34</title>
    <desc>Created with Sketch.</desc>
    <defs>
        <path d="M216.598,49 L358.052578,49 L358.052578,49 C360.591983,49 362.650578,51.0585947 362.650578,53.598 L362.650578,83.231144 L371,90.7663148 L362.650578,97.9445405 L362.650578,143.402 L362.650578,143.402 C362.650578,145.941405 360.591983,148 358.052578,148 L216.598,148 L216.598,148 C214.058595,148 212,145.941405 212,143.402 L212,53.598 L212,53.598 C212,51.0585947 214.058595,49 216.598,49 Z" id="path-1"></path>
        <path d="M36.2252242,20.1251404 C48.318536,21.7341343 54.1050514,16.9000305 60.4474724,22.4501282 C66.7898935,28.0002258 81.3018988,40.880905 80.167072,62.5291443 C78.6087058,62.5291443 76.8191712,62.7263794 74.7984681,63.1208496 C74.0369376,56.5386605 73.149478,51.9459093 72.1360893,49.3425959 C70.7572904,45.8005735 69.1301715,41.8470234 66.3311131,39.7282378 C60.4461792,35.2735565 58.4849656,33.8506917 60.4474724,35.4596436 C63.0106938,50.419768 64.2923045,61.0664821 64.2923045,67.3997858 C63.8147533,67.5308505 63.3407306,67.7230447 62.531868,67.8728693 C62.3221999,68.4859508 62.531868,68.2272672 62.531868,69.9551514 C62.531868,81.1471738 59.4028498,95.7707703 60.4474724,104.759216 C61.1438875,110.751514 62.4254982,124.630688 64.2923045,146.396741 L57.5037122,146.396741 C52.3442916,121.919236 49.7645812,107.100658 49.7645812,101.941007 C49.7645812,94.2015292 50.6020476,73.8498014 48.673812,76.4381436 C46.7455763,79.0264859 41.7674469,96.3849365 41.6995513,102.980591 C41.6316556,109.576245 39.5899373,144.688867 39.3008959,147.844208 C35.4877485,148.59955 33.1395299,148.59955 32.2562402,147.844208 C31.0845557,117.762088 30.6163992,99.5467357 30.8517707,93.1981506 C31.0764936,87.136787 32.5749084,80.5845324 34.8105269,67.8728693 C34.5231477,67.6077622 34.1961285,67.2925008 33.8294694,66.9270852 C35.0528901,44.6071241 35.0965404,33.4471436 33.9604203,33.4471436 C32.2562402,33.4471436 1.82063479,26.7989613 0,1.83969116 C2.25413466,0.996563721 3.9124044,0.575 4.97480923,0.575 C7.90337373,8.70688883 11.3592609,13.9982178 15.3424707,16.4489868 C21.3172855,20.1251404 25.7660352,18.7335636 36.2252242,20.1251404 Z" id="path-2"></path>
    </defs>
    <g id="Page-2" stroke="none" stroke-width="1" fill="none" fill-rule="evenodd">
        <g id="Artboard-Copy-5" transform="translate(-63.000000, -805.000000)">
            <g id="Group-34" transform="translate(63.000000, 808.000000)">
                <path d="M199,0 L199,438" id="Line" stroke="#617481" stroke-width="4.598" stroke-linecap="square"></path>
                <circle id="Oval" stroke="#FFFFFF" stroke-width="3.4485" fill="#FF5050" cx="198.5" cy="91.5" r="10.5"></circle>
                <circle id="Oval-Copy" stroke="#FFFFFF" stroke-width="3.4485" fill="#FF5050" cx="198.5" cy="185.5" r="10.5"></circle>
                <circle id="Oval-Copy-2" stroke="#FFFFFF" stroke-width="3.4485" fill="#9FAEB3" cx="198.5" cy="294.5" r="10.5"></circle>
                <rect id="Rectangle-15" fill="#DAE3E6" x="61" y="171" width="54" height="5"></rect>
                <rect id="Rectangle-15-Copy" fill="#DAE3E6" x="61" y="183" width="89" height="5"></rect>
                <rect id="Rectangle-15-Copy-2" fill="#DAE3E6" x="61" y="194" width="89" height="5"></rect>
                <path d="M4.54747351e-13,109 L169,109 L169,104.83412 C164.224279,103.79265 159.295028,103.79265 154.212246,104.83412 C151.41514,98.1709894 144.164141,86.4053285 125.714857,90.8870476 C108.524735,95.0628895 113.618729,71.0822282 87.1832882,71.0002516 C60.7478476,70.9182749 64.345593,90.8987514 53.9108075,90.8985461 C43.476022,90.8983408 33.7273445,92.9628288 28.1574435,100.981414 C20.8866787,100.981414 11.5008642,103.654276 4.54747351e-13,109 Z" id="Path-8-Copy-2" fill="#CEF1F3"></path>
                <path d="M181.258883,189.825709 L174.81388,184.022311 L174.81388,164.598 C174.81388,162.693446 173.269934,161.1495 171.36538,161.1495 L53.598,161.1495 C51.693446,161.1495 50.1495,162.693446 50.1495,164.598 L50.1495,211.402 C50.1495,213.306554 51.693446,214.8505 53.598,214.8505 L171.36538,214.8505 C173.269934,214.8505 174.81388,213.306554 174.81388,211.402 L174.81388,195.354197 L181.258883,189.825709 Z" id="Rectangle-14" stroke="#BECED4" stroke-width="2.299"></path>
                <g id="Group-14" transform="translate(48.000000, 268.000000)">
                    <rect id="Rectangle-15-Copy-3" fill="#DAE3E6" x="12.6636667" y="11.5213358" width="54.1083942" height="5.7606679"></rect>
                    <rect id="Rectangle-15-Copy-4" fill="#DAE3E6" x="12.6636667" y="23.0426716" width="88.6456671" height="5.7606679"></rect>
                    <rect id="Rectangle-15-Copy-5" fill="#DAE3E6" x="12.6636667" y="34.5640074" width="88.6456671" height="5.7606679"></rect>
                    <path d="M132.569654,30.068024 L126.102948,24.2111543 L126.102948,4.598 C126.102948,2.69344604 124.559002,1.1495 122.654448,1.1495 L4.598,1.1495 C2.69344604,1.1495 1.1495,2.69344604 1.1495,4.598 L1.1495,51.8565455 C1.1495,53.7610994 2.69344604,55.3050455 4.598,55.3050455 L122.654448,55.3050455 C124.559002,55.3050455 126.102948,53.7610994 126.102948,51.8565455 L126.102948,35.6474507 L132.569654,30.068024 Z" id="Rectangle-14-Copy-2" stroke="#BECED4" stroke-width="2.299"></path>
                </g>
                <path d="M304,119 L473,119 L473,114.83412 C468.224279,113.79265 463.295028,113.79265 458.212246,114.83412 C455.41514,108.170989 448.164141,96.4053285 429.714857,100.887048 C412.524735,105.06289 417.618729,81.0822282 391.183288,81.0002516 C364.747848,80.9182749 368.345593,100.898751 357.910807,100.898546 C347.476022,100.898341 337.727345,102.962829 332.157443,110.981414 C324.886679,110.981414 315.500864,113.654276 304,119 Z" id="Path-8-Copy-3" fill="#CEF1F3" transform="translate(388.500000, 100.000000) scale(-1, 1) translate(-388.500000, -100.000000) "></path>
                <g id="Rectangle-14-Copy" transform="translate(291.500000, 98.500000) scale(-1, 1) translate(-291.500000, -98.500000) ">
                    <use fill="#FFFFFF" fill-rule="evenodd" xlink:href="#path-1"></use>
                    <path stroke="#BECED4" stroke-width="2.299" d="M369.26109,90.7453874 L361.501078,83.7421466 L361.501078,53.598 C361.501078,51.693446 359.957132,50.1495 358.052578,50.1495 L216.598,50.1495 C214.693446,50.1495 213.1495,51.693446 213.1495,53.598 L213.1495,143.402 C213.1495,145.306554 214.693446,146.8505 216.598,146.8505 L358.052578,146.8505 C359.957132,146.8505 361.501078,145.306554 361.501078,143.402 L361.501078,97.416881 L369.26109,90.7453874 Z"></path>
                </g>
                <g id="Group-13" transform="translate(55.000000, 82.000000)">
                    <path d="M46.870102,2.16060606 C49.2390826,5.34867806 50.7385652,8.7264273 51.3685495,12.2938538 C51.9985339,15.8612802 52.5185933,17.4175566 52.9287279,16.9626829 C49.6789665,18.320007 47.6594245,18.3964054 46.870102,17.1918781 C46.0807794,15.9873507 44.6840839,11.6289505 42.6800152,4.11667721 L46.870102,2.16060606 Z" id="Path-13" fill="#FF5050"></path>
                    <path d="M46.0822636,0.689166585 C46.9908235,4.07661139 47.5132215,6.17690191 47.6494579,6.99003814 C47.7539381,7.61363576 48.4803787,8.13385624 49.1095942,8.90031038 C49.2370917,9.05561635 49.2370917,9.34690297 49.1095942,9.77417025 L48.1622166,10.6878275 C48.485704,13.5418385 48.485704,15.0886097 48.1622166,15.328141 C47.7915836,15.5272973 45.0820045,16.1461335 42.9695637,16.9346083 C39.8479728,18.0997513 35.8693635,16.1953519 34.9273268,13.6188173 C33.3835107,9.39637579 32.2878018,2.06749975 37.2427572,0.689166585 C40.5460608,-0.229722195 43.4925629,-0.229722195 46.0822636,0.689166585 Z" id="Path-11" fill="#E6D7BE"></path>
                    <path d="M41.0002943,72.9554618 C42.4929894,77.5727726 46.5569834,79.6876627 53.1922764,79.3001322 C63.1452158,78.7188363 70.2290198,74.4788579 71.8906528,79.881428 C73.5522858,85.2839982 77.093661,124.144313 80.4380004,123.954416 C82.6675599,123.827818 84.9094123,123.361515 87.1635575,122.555508 C84.2919634,92.3562554 82.050111,75.8229068 80.4380004,72.9554618 C85.6884235,71.3772066 104.005372,96.114458 108.445526,113.056437 C112.448056,112.090072 114.657596,111.383585 115.074145,110.936975 C104.697632,81.2553681 95.3941024,65.2466979 87.1635575,62.9109646 C78.9330125,60.5752313 70.6827991,59.9345047 62.4129172,60.9887848 L41.0002943,72.9554618 Z" id="Path-10" fill="#5FEAF3"></path>
                    <path d="M12.8397734,73.4606061 C8.01959758,74.228634 5.33660991,74.8120398 4.79081035,75.2108236 C3.97211101,75.8089992 -1.08759842,79.6665461 0.212363373,79.988316 C1.51232516,80.310086 4.26160605,78.954557 6.69689414,77.8488096 C9.13218224,76.7430622 12.3348034,78.6744873 14.82857,76.7485385 C16.4910811,75.4645726 15.8281489,74.3685951 12.8397734,73.4606061 Z" id="Path-14" fill="#E5C899"></path>
                    <path d="M39.5588777,24.3532973 C35.449576,25.583408 32.4336296,28.4979755 30.5110383,33.097 C27.6271515,39.9955366 27.2067383,61.2070334 10.7895511,74.0767762 C12.5035163,77.0096302 13.8638005,78.4760571 14.8704038,78.4760571 C25.2974935,70.0361897 32.6436605,59.6052169 36.908905,47.1831387 C37.6085399,57.1428856 38.8999846,66.1074314 40.7832389,74.0767762 C45.3956523,72.6379529 48.8801294,71.2647161 51.2366702,69.9570659 C55.1723523,67.7731465 59.3415371,62.6001528 63.1610209,62.1406937 C61.6915065,56.6322736 60.9567493,50.304483 60.9567493,43.1573219 C67.0954138,46.8153011 72.2903439,48.5852117 76.5415394,48.4670535 C80.7927349,48.3488954 86.622675,45.0074112 94.0313597,38.442601 L90.6880739,34.811348 C83.6053237,41.5308891 77.5369036,43.5030048 72.4828137,40.7276951 C64.9016789,36.5647305 60.352998,25.5222189 55.9244352,24.3532973 C54.1789518,23.892576 51.2959231,23.303366 49.6466866,24.3532973 C48.8864578,24.8372715 47.8528104,26.2189482 46.5457443,28.4983272 L39.5588777,24.3532973 Z" id="Path-9" fill="#00C8D4"></path>
                    <path d="M44.6520796,0.0210712252 C46.6376356,0.0825240099 46.9186745,1.78691956 46.7973422,2.03714456 C46.2815756,3.10081574 45.2888433,3.8593796 44.5021606,4.5025781 C43.0445401,5.69434123 41.020935,9.08725299 41.020935,10.8640009 C41.020935,12.6407488 43.5282106,16.5131187 43.5282106,18.1992513 C43.5282106,19.328638 41.8128349,20.3855213 39.0919195,19.9878195 C37.7506087,19.7917672 36.2576919,19.8600864 34.4237902,18.1992513 C28.8697279,13.1693297 32.016334,4.18364021 34.9145384,2.03714456 C37.8127428,-0.109351101 42.6665236,-0.0403815595 44.6520796,0.0210712252 Z" id="Path-12" fill="#FF5050"></path>
                    <path d="M110.053422,113.140474 C110.929546,116.013194 111.504936,117.449554 111.779592,117.449554 C112.191576,117.449554 129.118474,112.088392 128.03109,110.692913 C126.943705,109.297433 120.524238,111.285813 118.433763,110.989363 C117.040113,110.79173 116.011909,110.79173 115.349152,110.989363 L110.053422,113.140474 Z" id="Path-16" fill="#20596D"></path>
                    <path d="M79.9095863,124.765769 C79.8203758,126.866944 79.8203758,128.003953 79.9095863,128.176794 C80.043402,128.436056 95.7688567,127.881135 97.6759942,127.038994 C96.3747866,126.434008 96.1657872,126.069459 94.6369548,125.697784 C93.1392141,125.333668 90.3179807,124.958283 89.3796828,124.765769 C88.1156335,124.506419 86.9402679,123.969344 85.8535858,123.154545 L79.9095863,124.765769 Z" id="Path-15" fill="#20596D"></path>
                </g>
                <g id="Group-15" transform="translate(263.000000, 283.000000)">
                    <path d="M7.4966715,68.5007546 C5.33699383,82.0671609 4.03418544,94.83212 3.58824633,106.795632 C2.91933766,124.7409 -0.523094733,166.200728 0.212092991,167.781161 C2.46286188,167.781161 5.65955192,167.25435 9.8021631,166.200728 C13.0637726,142.447266 14.9260443,127.642785 15.388978,121.787287 C15.8519117,115.931789 17.7587093,106.118401 21.1093707,92.3471236 C25.2159533,111.703687 27.2457919,125.123417 27.1988868,132.606312 C27.1519816,140.089208 26.6496203,150.318123 25.6918029,163.293058 L33.3648787,164.372203 C36.921515,138.226992 38.6784199,120.732984 38.6355934,111.890181 C38.592767,103.047378 36.291694,87.5602214 31.7323744,65.4287109 L7.4966715,68.5007546 Z" id="Path-27" fill="#598ECC"></path>
                    <path d="M33.4173921,30.4978693 C38.0499585,36.2750947 41.6795017,40.4336011 44.3060219,42.9733887 C45.6620235,42.3502678 46.6650466,42.5507147 47.3150912,43.5747292 L47.3150912,51.5652077 L40.912789,52.3817139 L34.4865243,46.5671387 L33.4173921,30.4978693 Z" id="Path-29" fill="#6DD2D9"></path>
                    <path d="M38.2710586,52.2742587 C54.7612887,50.5417037 63.9339706,49.9641853 65.7891045,50.5417037 C67.6442384,51.119222 70.0564563,52.588882 73.0257582,54.9506836 C74.5817866,58.98038 74.5817866,61.2111594 73.0257582,61.643022 C70.6917156,62.2908159 65.4138631,59.4326616 64.5038006,58.2871538 C63.5937381,57.141646 62.9559297,56.0312675 61.8307152,56.0312675 C60.7055007,56.0312675 36.3872038,60.2667791 34.1530896,59.8732022 C32.6636802,59.6108176 34.0363365,57.0778365 38.2710586,52.2742587 Z" id="Path-30" fill="#F5E0BE"></path>
                    <path d="M21.9225638,6.14051403 C25.3177511,14.4861136 25.7495847,20.2927764 23.2180645,23.5605025 C17.6659186,25.3553356 13.4332359,22.7212802 11.7833971,20.2965199 C10.1913401,19.7166193 9.18491811,18.3097479 8.76413105,16.0759055 L11.2251235,16.0759055 C11.6897567,12.3133582 12.2329051,10.2222789 12.8545687,9.80266779 C13.4762323,9.38305664 16.4988973,8.16233872 21.9225638,6.14051403 Z" id="Path-32" fill="#F5E0BE"></path>
                    <path d="M11.7166082,20.4485141 C8.55492715,19.2908399 6.87993635,18.2328362 6.69163584,17.2745028 C6.40918508,15.8370028 6.23278081,14.1126154 5.55469505,12.8012029 C4.87660928,11.4897905 4.80421215,5.45647638 7.24837994,3.51054244 C9.69254773,1.56460849 10.4685226,0.226140803 14.7634056,0.359885476 C19.0582887,0.493630149 25.5216442,1.10007546 26.1003113,0.359885476 C26.5292006,-0.188719215 25.4309658,9.64119517 23.8576574,11.8413807 C23.2722349,11.1237793 23.0160408,8.53120006 22.57554,8.34028209 C18.8426268,7.37305797 16.0104716,9.63336033 14.7634056,10.3282879 C13.5163396,11.0232156 11.7166082,15.2499556 11.7166082,16.5909757 C11.7166082,17.2295779 11.3942144,16.4458473 10.4374224,16.1721302 C10.1823076,16.0991475 9.84101291,16.0991475 9.41353838,16.1721302 C9.1860394,16.7843474 9.1860394,17.2464557 9.41353838,17.558455 C9.64103736,17.8704544 10.4087273,18.8338074 11.7166082,20.4485141 Z" id="Path-33" fill="#CBA362"></path>
                    <path d="M14.0684952,26.4947177 C7.3447395,27.0746183 3.89550925,29.2611565 3.72080445,33.0543324 C3.45874724,38.7440962 2.16171703,64.8059304 3.72080445,71.0827415 C7.017982,71.0827415 12.0830617,71.0827415 18.9160436,71.0827415 L20.0346302,53.4264027 C20.0346302,38.0495088 20.0346302,30.1619762 20.0346302,29.763805 C20.0346302,29.3656339 18.0459186,28.2759381 14.0684952,26.4947177 Z" id="Path-25" fill="#FF5050"></path>
                    <path d="M25.6318968,25.1685014 C28.8705636,24.8040217 31.3707287,25.5979818 33.1323921,27.5503817 C35.7748873,30.4789817 33.1323921,63.545055 33.1323921,69.5329368 C30.32216,70.5886009 28.0547364,71.1164329 26.3301212,71.1164329 C26.3301212,58.3935596 26.3301212,48.4828411 26.3301212,41.3842773 C26.3301212,34.2857136 26.0973798,28.8804549 25.6318968,25.1685014 Z" id="Path-26" fill="#FF5050"></path>
                    <path d="M4.97857706,29.8526278 C7.74122423,28.7785866 10.273934,29.1925826 12.5767065,31.0946156 C16.0308652,33.9476651 31.8083404,50.5365989 33.3215424,50.9521262 C34.8347443,51.3676536 34.8474903,50.9521262 35.8528926,50.9521262 C36.5231608,50.9521262 37.2318369,51.2054924 37.9789209,51.7122248 C38.5088135,52.7362393 38.5088135,53.5909461 37.9789209,54.276345 C37.4490283,54.9617439 35.8965688,57.0793679 33.3215424,60.629217 C30.7393782,60.9583037 29.3633229,60.4614406 29.1933766,59.1386275 C29.0295128,57.8631588 21.5376738,53.7083403 14.9484772,48.3180708 C11.2870002,45.3228123 7.81933262,40.1836387 6.24552678,39.1570712 C3.30817481,37.2410852 2.88585824,34.139604 4.97857706,29.8526278 Z" id="Path-28" fill="#6DD2D9"></path>
                    <path d="M46.986755,44.1237842 C58.2271737,38.6126614 64.6485099,35.7779763 66.2507637,35.6197288 C68.6541444,35.3823575 71.4409239,35.4201327 71.8192244,36.3691073 C72.1975249,37.3180819 73.3150918,44.1237842 71.5574221,44.4262029 C70.3856423,44.6278154 70.006832,44.6278154 70.4209911,44.4262029 C70.2452667,41.7450136 69.7338982,40.4044189 68.8868858,40.4044189 C68.0398734,40.4044189 67.2952537,40.6194994 66.6530266,41.0496604 L65.955312,44.4262029 C65.002593,44.7064542 64.2488812,44.2574907 63.6941764,43.0793124 C62.6275934,44.2574907 58.2651567,46.967607 50.6068662,51.2096613 L46.986755,51.9529524 L46.986755,44.1237842 Z" id="Path-31" fill="#F5E0BE"></path>
                    <path d="M8.46791464,166.645352 C15.2392553,170.680834 19.2612046,173.113081 20.5337625,173.942094 C20.2135837,175.553156 20.6205961,176.172472 19.4885928,176.326527 C16.4256194,176.743369 11.9132633,176.041053 9.35248517,175.553156 C7.01436388,175.107681 5.84530323,174.15173 5.84530323,172.685303 L3.52349678,173.942094 L0.938103615,173.942094 L0.938103615,167.883256 L8.46791464,166.645352 Z" id="Path-34" fill="#38545E"></path>
                    <path d="M26.5228404,162.996471 C25.5674022,166.84648 25.1119461,169.308505 25.156472,170.382546 C26.9041999,170.945091 28.1867846,170.945091 29.0042264,170.382546 L29.5625,169.480535 C30.9145928,171.119163 32.075666,171.938817 33.0457195,171.939498 C34.5007998,171.940518 40.5260762,174.080433 42.6510848,173.552601 C43.6914961,172.477199 43.8712993,171.939498 43.1904944,171.939498 C41.2976324,170.521412 39.8748419,169.313716 38.9221229,168.316408 C37.9694039,167.3191 35.8238318,165.812086 32.4854065,163.795366 L26.5228404,162.996471 Z" id="Path-35" fill="#38545E"></path>
                </g>
                <g id="Group-31" transform="translate(280.000000, 136.000000)" stroke="#9FAEB3">
                    <path d="M0.574029126,2.66551006 L81.1497246,320.052741" id="Line-2" stroke-width="4.598" stroke-linecap="round"></path>
                    <path d="M45.4724839,0.574600972 L130.348963,313.987509" id="Line-2-Copy" stroke-width="4.598" stroke-linecap="round"></path>
                    <path d="M5.79637177,12.0227273 L49.5435841,12.0227273" id="Line-3" stroke-width="2.299" stroke-linecap="square"></path>
                    <path d="M5.79637177,23.5227273 L49.5435841,23.5227273" id="Line-3-Copy" stroke-width="2.299" stroke-linecap="square"></path>
                    <path d="M24.5910738,95.6590909 L68.3382861,95.6590909" id="Line-3-Copy-7" stroke-width="2.299" stroke-linecap="square"></path>
                    <path d="M46.5182261,174.068182 L90.2654384,174.068182" id="Line-3-Copy-13" stroke-width="2.299" stroke-linecap="square"></path>
                    <path d="M12.0612724,35.0227273 L55.8084847,35.0227273" id="Line-3-Copy-2" stroke-width="2.299" stroke-linecap="square"></path>
                    <path d="M31.9001245,108.204545 L75.6473368,108.204545" id="Line-3-Copy-8" stroke-width="2.299" stroke-linecap="square"></path>
                    <path d="M49.0750552,185.723803 L94.319448,185.723803" id="Line-3-Copy-14" stroke-width="2.299" stroke-linecap="square"></path>
                    <path d="M12.0612724,47.5681818 L55.8084847,47.5681818" id="Line-3-Copy-3" stroke-width="2.299" stroke-linecap="square"></path>
                    <path d="M32.9442746,122.840909 L76.691487,122.840909" id="Line-3-Copy-9" stroke-width="2.299" stroke-linecap="square"></path>
                    <path d="M52.7831267,197.068182 L96.5303391,197.068182" id="Line-3-Copy-15" stroke-width="2.299" stroke-linecap="square"></path>
                    <path d="M53.2516556,209.769257 L100.584349,209.769257" id="Line-3-Copy-16" stroke-width="2.299" stroke-linecap="square"></path>
                    <path d="M57.4282561,222.314712 L104.760949,222.314712" id="Line-3-Copy-17" stroke-width="2.299" stroke-linecap="square"></path>
                    <path d="M61.6048565,234.860167 L108.93755,234.860167" id="Line-3-Copy-18" stroke-width="2.299" stroke-linecap="square"></path>
                    <path d="M64.7373068,247.405621 L112.07,247.405621" id="Line-3-Copy-19" stroke-width="2.299" stroke-linecap="square"></path>
                    <path d="M66.8256071,259.951076 L116.2466,259.951076" id="Line-3-Copy-20" stroke-width="2.299" stroke-linecap="square"></path>
                    <path d="M69.9580574,272.49653 L119.379051,272.49653" id="Line-3-Copy-21" stroke-width="2.299" stroke-linecap="square"></path>
                    <path d="M74.1346578,285.041985 L123.555651,285.041985" id="Line-3-Copy-22" stroke-width="2.299" stroke-linecap="square"></path>
                    <path d="M77.2671082,298.632894 L126.688101,298.632894" id="Line-3-Copy-23" stroke-width="2.299" stroke-linecap="square"></path>
                    <path d="M18.3261731,59.0681818 L62.0733854,59.0681818" id="Line-3-Copy-4" stroke-width="2.299" stroke-linecap="square"></path>
                    <path d="M38.1650252,137.477273 L81.9122375,137.477273" id="Line-3-Copy-10" stroke-width="2.299" stroke-linecap="square"></path>
                    <path d="M21.4586234,70.5681818 L65.2058357,70.5681818" id="Line-3-Copy-5" stroke-width="2.299" stroke-linecap="square"></path>
                    <path d="M41.2974755,150.022727 L85.0446878,150.022727" id="Line-3-Copy-11" stroke-width="2.299" stroke-linecap="square"></path>
                    <path d="M24.5910738,83.1136364 L68.3382861,83.1136364" id="Line-3-Copy-6" stroke-width="2.299" stroke-linecap="square"></path>
                    <path d="M44.4299259,161.522727 L88.1771382,161.522727" id="Line-3-Copy-12" stroke-width="2.299" stroke-linecap="square"></path>
                </g>
                <g id="Group-16" transform="translate(266.000000, 68.000000)">
                    <g id="Rectangle" transform="translate(25.059603, 40.772727)">
                        <mask id="mask-3" fill="white">
                            <use xlink:href="#path-2"></use>
                        </mask>
                        <use id="Mask" fill="#6DD2D9" xlink:href="#path-2"></use>
                        <rect fill="#4181CC" mask="url(#mask-3)" x="18.794702" y="67.9545455" width="57.4282561" height="86.7727273"></rect>
                        <path d="M75.1731997,63.2566362 C74.2469923,65.9413989 73.7823591,67.8871626 73.7793001,69.0939276 C73.7762411,70.3006925 74.2408743,70.9040749 75.1731997,70.9040749" id="Path-20" stroke="#979797" stroke-width="1.045" mask="url(#mask-3)"></path>
                    </g>
                    <path d="M71.0022075,58.144731 C76.5931011,57.2330211 78.7537985,52.0648573 78.7537985,46.2909712 C78.7537985,40.5170852 75.615553,37.6363636 71.0022075,37.6363636 C68.4069574,37.6363636 65.8875336,37.8454752 64.3554375,40.1693448 C63.1640625,41.9764117 62.6490066,45.5651385 62.6490066,48.0909091 C62.6490066,51.2211212 63.89427,54.8046847 65.1961619,57.2330211 C66.2002896,59.105957 68.9071057,58.4863803 71.0022075,58.144731 Z" id="Oval-2" fill="#E7D5AD"></path>
                    <rect id="Rectangle-16" fill="#788D94" x="27.1479029" y="31.3636364" width="3.02803542" height="8.05"></rect>
                    <path d="M26.6045064,42.6957257 C25.3008451,40.313915 24.6992895,38.5520807 24.7998397,37.4102228 C24.950665,35.697436 25.5810249,33.192448 26.9651256,33.0229381 C28.3492264,32.8534282 28.6491346,34.7200406 30.3702886,34.5569181 C32.0914427,34.3937955 30.4798916,41.6039838 30.3702886,42.1498548 C30.29722,42.5137688 29.0419593,42.6957257 26.6045064,42.6957257 Z" id="Path-18" fill="#E3CEA7"></path>
                    <path d="M83.0739186,187.67415 C81.4607882,189.698697 80.5693349,191.401985 80.3995585,192.784013 C81.9904259,192.593946 83.4311457,192.711866 84.721718,193.137773 L89.5407154,193.137773 C90.3663146,190.857818 90.5029514,189.03661 89.9506259,187.67415 C88.6580143,186.957102 86.3657785,186.957102 83.0739186,187.67415 Z" id="Path-2" fill="#38545E"></path>
                    <path d="M58.0143159,187.67415 C56.4011856,189.698697 55.5097322,191.401985 55.3399558,192.784013 C56.9308232,192.593946 58.371543,192.711866 59.6621153,193.137773 L64.4811128,193.137773 C65.3067119,190.857818 65.4433488,189.03661 64.8910233,187.67415 C63.5984117,186.957102 61.3061759,186.957102 58.0143159,187.67415 Z" id="Path-2-Copy" fill="#38545E"></path>
                    <path d="M63.7721818,41.8886275 C65.4454731,43.1270419 66.4133173,44.4369229 66.6757144,45.8182706 C66.9381115,47.1996183 67.439963,48.1974284 68.1812688,48.811701 C69.3729323,47.1288323 70.2338803,46.8308845 70.7641127,47.9178578 C71.5594614,49.5483176 71.320347,54.5458762 73.0063843,55.6485041 C74.1304092,56.3835893 75.3207131,56.3835893 76.5772961,55.6485041 C79.1397465,51.8646869 80.5356855,48.4738511 80.765113,45.4759965 C81.1092543,40.9792148 78.0808111,34.5188876 69.6439966,35.8655229 C64.0194536,36.7632798 62.062182,38.7709813 63.7721818,41.8886275 Z" id="Path-3" fill="#62554A"></path>
                    <path d="M0.932495387,33.9522594 C2.5055184,11.5335212 10.3818499,0.324152166 24.56149,0.324152166 C23.8674293,8.46420011 24.7723934,16.246915 27.2763823,23.6722967" id="Path-19" stroke="#FFA3A3" stroke-width="13.585"></path>
                    <path d="M28.7304429,31.3529164 L28.7304429,28.1884766 C28.6964536,27.1620798 29.1941414,26.6607074 30.2235062,26.6843595 C31.2528709,26.7080115 33.0133447,26.7198375 35.5049275,26.7198375 C36.487727,26.8064483 36.9791268,26.4987164 36.9791268,25.796642 C36.9791268,25.0945675 36.9791268,23.9366381 36.9791268,22.3228538 L35.2403211,22.3228538" id="Path-4" stroke="#979797" stroke-width="1.045"></path>
                    <rect id="Rectangle-17" fill="#FF5050" x="19.8388521" y="19.8636364" width="15.6622517" height="5.22727273"></rect>
                    <path d="M100.279708,103.505105 C99.3679456,106.030939 99.0897435,107.973981 99.4451012,109.334229 C99.9781378,111.3746 100.659792,112.028265 101.825794,112.028265 C102.991796,112.028265 105.397726,111.999678 105.816303,110.872037 C106.234881,109.744396 106.621339,107.331121 106.202761,105.996737 C105.923709,105.107148 105.52629,104.094534 105.010503,102.958896 L100.279708,103.505105 Z" id="Path-21" fill="#E0CEA8"></path>
                </g>
                <path d="M360,187 C362.387122,188.670366 365.183595,189.505549 368.389419,189.505549 C371.595242,189.505549 374.798769,188.670366 378,187 L378,205.515501 C376.140338,207.146523 373.140338,207.974507 369,207.999453 C364.859662,208.024399 361.859662,207.196415 360,205.515501 L360,187 Z" id="Rectangle-18" fill="#C8D9DE"></path>
                <path d="M360,189 C360.440732,182.057909 362.107399,178.057909 365,177" id="Path-22" stroke="#56757D" stroke-width="1.045"></path>
                <ellipse id="Oval-3" stroke="#FF5050" stroke-width="1.045" fill="#FF6C6C" cx="369" cy="187.5" rx="9" ry="2.5"></ellipse>
                <path d="M378,188.387109 L378,192.493803 C377.741804,193.086227 377.499241,193.007331 377.272311,192.257117 C376.931916,191.131794 377.579171,190.801568 377.119637,190.376383 C376.660104,189.951198 375.943509,189.915648 375.737633,190.376383 C375.531757,190.837118 375.737633,193.083628 375.737633,193.481767 C375.737633,193.879905 375.520158,194.662245 374.946907,194.479651 C374.56474,194.357923 374.373657,194.025294 374.373657,193.481767 C374.508974,192.125034 374.508974,191.34667 374.373657,191.146676 C374.17068,190.846684 374.659336,190.625706 372.402768,190.643541 C370.146201,190.661375 369.432883,190.414177 368.874131,190.84444 C368.501629,191.131283 368.315379,192.589784 368.315379,195.219945 C368.402621,196.431407 368.202628,197.0245 367.715401,196.999225 C366.98456,196.961313 366.938417,196.169643 366.98456,195.592691 C367.030702,195.015739 367.076844,193.353096 367.030702,192.693554 C366.98456,192.034013 367.177198,190.442641 366.364158,190.643541 C365.822131,190.777474 365.551118,191.145928 365.551118,191.748903 C365.717113,192.874619 365.654791,193.493735 365.364152,193.606251 C364.928194,193.775026 364.513669,193.623259 364.522368,193.295866 C364.531067,192.968474 364.50497,192.122002 364.513669,191.748903 C364.522368,191.375803 364.556029,190.376383 364.085905,190.376383 C363.615782,190.376383 363.185497,189.839233 362.666836,190.241387 C362.321061,190.509489 362.148174,191.710794 362.148174,193.8453 C362.30484,194.767793 362.149855,195.184789 361.68322,195.096287 C360.983266,194.963535 361.085889,194.571657 360.983266,194.026712 C360.880643,193.481767 361.188512,191.168407 361.085889,190.643541 C360.983266,190.118674 360.738812,189.079688 360.583869,189.026776 C360.428926,188.973864 359.567727,187.724529 360.275496,188.055819 C360.983266,188.387109 363.325563,189.956159 369.136235,189.943403 C373.010017,189.934899 375.964605,189.416135 378,188.387109 Z" id="Path-24" fill="#FF5050"></path>
                <path d="M372,177 C376,177.222801 378,181.251476 378,189.086025 C377.934765,190.554219 377.749401,191.177734 377.443908,190.956569" id="Path-23" stroke="#5B747D" stroke-width="1.045"></path>
            </g>
        </g>
    </g>
</svg>