<?xml version="1.0" encoding="UTF-8"?>
<svg width="932px" height="323px" viewBox="0 0 932 323" version="1.1" xmlns="http://www.w3.org/2000/svg" xmlns:xlink="http://www.w3.org/1999/xlink">
    <!-- Generator: Sketch 47 (45396) - http://www.bohemiancoding.com/sketch -->
    <title>Group 33</title>
    <desc>Created with Sketch.</desc>
    <defs>
        <linearGradient x1="50%" y1="0.159438776%" x2="50%" y2="100%" id="linearGradient-1">
            <stop stop-color="#F4F6F7" offset="0%"></stop>
            <stop stop-color="#E4E9EB" offset="100%"></stop>
        </linearGradient>
    </defs>
    <g id="Page-2" stroke="none" stroke-width="1" fill="none" fill-rule="evenodd">
        <g id="Artboard-Copy-5" transform="translate(-301.000000, -370.000000)">
            <g id="Group-33" transform="translate(300.000000, 370.000000)">
                <g id="Group-12" transform="translate(0.000000, 63.000000)">
                    <path d="M0.04296875,243 C69.021174,242.805197 117.883153,239.883244 146.628906,234.23414 C265.698618,210.834608 342.454937,175.922851 378.821464,169.480099 C453.125333,156.316307 570.284586,149.903726 628.165787,156.817825 C686.046988,163.731924 786.616233,161.376771 817.802257,202.188385 C838.59294,229.396128 876.985677,243 932.980469,243 C863.046441,251.208333 813.662977,255.3125 784.830078,255.3125 C759.935579,255.3125 577.128821,263.783129 286.955078,257.664062 C256.350721,257.01869 215.548643,252.130669 164.548843,243 L0.04296875,243 Z" id="Path-7" fill="#FFFFFF"></path>
                    <g id="Group-2" transform="translate(344.000000, 101.000000)" fill-rule="nonzero">
                        <rect id="Rectangle-path" fill="#CFDCE5" x="6.61764706" y="0" width="31.7647059" height="13.2098765"></rect>
                        <polyline id="Shape" fill="#FFFFFF" points="45 107 45 7.92592593 0 7.92592593 0 107"></polyline>
                        <rect id="Rectangle-path" fill="#C1CFD8" opacity="0.812896286" x="0" y="18.4938272" width="45" height="3.96296296"></rect>
                        <rect id="Rectangle-path" fill="#C1CFD8" opacity="0.66576087" x="0" y="29.0617284" width="45" height="3.96296296"></rect>
                        <rect id="Rectangle-path" fill="#C1CFD8" opacity="0.693500906" x="0" y="39.6296296" width="45" height="3.96296296"></rect>
                        <rect id="Rectangle-path" fill="#C1CFD8" opacity="0.703464674" x="0" y="50.1975309" width="45" height="3.96296296"></rect>
                        <rect id="Rectangle-path" fill="#C1CFD8" opacity="0.532835145" x="0" y="62.0864198" width="45" height="3.96296296"></rect>
                        <rect id="Rectangle-path" fill="#C1CFD8" opacity="0.394078351" x="0" y="72.654321" width="45" height="3.96296296"></rect>
                        <rect id="Rectangle-path" fill="#C1CFD8" opacity="0.260416667" x="0" y="83.2222222" width="45" height="3.96296296"></rect>
                        <rect id="Rectangle-path" fill="#C1CFD8" opacity="0.237941576" x="0" y="93.7901235" width="45" height="3.96296296"></rect>
                    </g>
                    <g id="Group-3" transform="translate(486.000000, 26.000000)" fill-rule="nonzero">
                        <path d="M26.398232,19.1328471 L29.6581112,0 L32.9179904,19.1328471 C33.186726,20.7092078 31.9448134,22.1779693 30.1446998,22.4133013 C28.3445861,22.6486332 26.6673445,21.5610895 26.398609,19.9847288 C26.3499878,19.6992279 26.3541338,19.4041554 26.398232,19.1328471 Z" id="Shape" fill="#6E767C"></path>
                        <g id="Group" transform="translate(6.590909, 13.203125)" fill="#F0F2F4">
                            <polygon id="Shape" points="41.9696937 23.820418 4.1552176 23.820418 4.1552176 10.4542344 23.0622921 0.162398437 41.9696937 10.4542344"></polygon>
                            <rect id="Rectangle-path" x="0.168839458" y="19.0478184" width="45.7878868" height="28.3721953"></rect>
                        </g>
                        <rect id="Rectangle-path" fill="#BAC6CC" x="6.59090909" y="52.8125" width="46.1363636" height="7.921875"></rect>
                        <g id="Group" transform="translate(14.500000, 39.609375)" fill="#415E72">
                            <path d="M3.155,19.6839428 C1.56233333,19.6839428 0.272,18.4471081 0.272,16.9211889 L0.272,2.92374685 C0.272,1.39814705 1.56233333,0.160992944 3.155,0.160992944 C4.74766667,0.160992944 6.038,1.39782762 6.038,2.92374685 L6.038,16.9211889 C6.038,18.4467887 4.747,19.6839428 3.155,19.6839428 Z" id="Shape"></path>
                            <path d="M25.8336667,19.6839428 C24.241,19.6839428 22.9506667,18.4471081 22.9506667,16.9211889 L22.9506667,2.92374685 C22.9506667,1.39814705 24.241,0.160992944 25.8336667,0.160992944 C27.4263333,0.160992944 28.7166667,1.39782762 28.7166667,2.92374685 L28.7166667,16.9211889 C28.7166667,18.4467887 27.4256667,19.6839428 25.8336667,19.6839428 Z" id="Shape"></path>
                            <path d="M14.4943333,19.6839428 C12.9016667,19.6839428 11.6113333,18.4471081 11.6113333,16.9211889 L11.6113333,2.92374685 C11.6113333,1.39814705 12.9016667,0.160992944 14.4943333,0.160992944 C16.087,0.160992944 17.3773333,1.39782762 17.3773333,2.92374685 L17.3773333,16.9211889 C17.3773333,18.4467887 16.0863333,19.6839428 14.4943333,19.6839428 Z" id="Shape"></path>
                        </g>
                        <polyline id="Shape" fill="#FFFFFF" points="57.6884457 167.80477 57.6884457 55.774649 0.275795592 55.774649 0.275795592 167.80477"></polyline>
                        <path d="M8.89080682,75.1886994 C7.73673864,75.1886994 6.80082955,74.2548501 6.80082955,73.1025874 L6.80082955,67.0337184 C6.80082955,65.8814557 7.73673864,64.9476064 8.89080682,64.9476064 C10.044875,64.9476064 10.9807841,65.8814557 10.9807841,67.0337184 L10.9807841,73.1025874 C10.9811136,74.2545212 10.044875,75.1886994 8.89080682,75.1886994 Z" id="Shape" fill="#C1CFD8"></path>
                        <path d="M18.6957727,75.1886994 C17.5417045,75.1886994 16.6057955,74.2548501 16.6057955,73.1025874 L16.6057955,67.0337184 C16.6057955,65.8814557 17.5417045,64.9476064 18.6957727,64.9476064 C19.8498409,64.9476064 20.78575,65.8814557 20.78575,67.0337184 L20.78575,73.1025874 C20.78575,74.2545212 19.8498409,75.1886994 18.6957727,75.1886994 Z" id="Shape" fill="#C1CFD8"></path>
                        <path d="M48.1086932,75.1886994 C46.954625,75.1886994 46.0187159,74.2548501 46.0187159,73.1025874 L46.0187159,67.0337184 C46.0187159,65.8814557 46.954625,64.9476064 48.1086932,64.9476064 C49.2627614,64.9476064 50.1986705,65.8814557 50.1986705,67.0337184 L50.1986705,73.1025874 C50.1986705,74.2545212 49.2627614,75.1886994 48.1086932,75.1886994 Z" id="Shape" fill="#C1CFD8"></path>
                        <path d="M38.3040568,75.1886994 C37.1499886,75.1886994 36.2140795,74.2548501 36.2140795,73.1025874 L36.2140795,67.0337184 C36.2140795,65.8814557 37.1499886,64.9476064 38.3040568,64.9476064 C39.458125,64.9476064 40.3940341,65.8814557 40.3940341,67.0337184 L40.3940341,73.1025874 C40.3943636,74.2545212 39.4587841,75.1886994 38.3040568,75.1886994 Z" id="Shape" fill="#C1CFD8"></path>
                        <path d="M28.5000795,75.1886994 C27.3460114,75.1886994 26.4101023,74.2548501 26.4101023,73.1025874 L26.4101023,67.0337184 C26.4101023,65.8814557 27.3460114,64.9476064 28.5000795,64.9476064 C29.6541477,64.9476064 30.5900568,65.8814557 30.5900568,67.0337184 L30.5900568,73.1025874 C30.5900568,74.2545212 29.6541477,75.1886994 28.5000795,75.1886994 Z" id="Shape" fill="#C1CFD8"></path>
                        <path d="M8.89080682,108.947729 C7.73673864,108.947729 6.80082955,108.013879 6.80082955,106.861617 L6.80082955,100.792748 C6.80082955,99.6404849 7.73673864,98.7066356 8.89080682,98.7066356 C10.044875,98.7066356 10.9807841,99.6404849 10.9807841,100.792748 L10.9807841,106.861617 C10.9811136,108.013221 10.044875,108.947729 8.89080682,108.947729 Z" id="Shape" fill="#C1CFD8"></path>
                        <path d="M18.6957727,108.947729 C17.5417045,108.947729 16.6057955,108.013879 16.6057955,106.861617 L16.6057955,100.792748 C16.6057955,99.6404849 17.5417045,98.7066356 18.6957727,98.7066356 C19.8498409,98.7066356 20.78575,99.6404849 20.78575,100.792748 L20.78575,106.861617 C20.78575,108.013221 19.8498409,108.947729 18.6957727,108.947729 Z" id="Shape" fill="#C1CFD8"></path>
                        <path d="M48.1086932,108.947729 C46.954625,108.947729 46.0187159,108.013879 46.0187159,106.861617 L46.0187159,100.792748 C46.0187159,99.6404849 46.954625,98.7066356 48.1086932,98.7066356 C49.2627614,98.7066356 50.1986705,99.6404849 50.1986705,100.792748 L50.1986705,106.861617 C50.1986705,108.013221 49.2627614,108.947729 48.1086932,108.947729 Z" id="Shape" fill="#C1CFD8"></path>
                        <path d="M38.3040568,108.947729 C37.1499886,108.947729 36.2140795,108.013879 36.2140795,106.861617 L36.2140795,100.792748 C36.2140795,99.6404849 37.1499886,98.7066356 38.3040568,98.7066356 C39.458125,98.7066356 40.3940341,99.6404849 40.3940341,100.792748 L40.3940341,106.861617 C40.3943636,108.013221 39.4587841,108.947729 38.3040568,108.947729 Z" id="Shape" fill="#C1CFD8"></path>
                        <path d="M28.5000795,108.947729 C27.3460114,108.947729 26.4101023,108.013879 26.4101023,106.861617 L26.4101023,100.792748 C26.4101023,99.6404849 27.3460114,98.7066356 28.5000795,98.7066356 C29.6541477,98.7066356 30.5900568,99.6404849 30.5900568,100.792748 L30.5900568,106.861617 C30.5900568,108.013221 29.6541477,108.947729 28.5000795,108.947729 Z" id="Shape" fill="#C1CFD8"></path>
                        <path d="M8.89080682,142.706429 C7.73673864,142.706429 6.80082955,141.77258 6.80082955,140.620317 L6.80082955,134.551448 C6.80082955,133.399185 7.73673864,132.465336 8.89080682,132.465336 C10.044875,132.465336 10.9807841,133.399185 10.9807841,134.551448 L10.9807841,140.620317 C10.9811136,141.772251 10.044875,142.706429 8.89080682,142.706429 Z" id="Shape" fill="#C1CFD8"></path>
                        <path d="M18.6957727,142.706429 C17.5417045,142.706429 16.6057955,141.77258 16.6057955,140.620317 L16.6057955,134.551448 C16.6057955,133.399185 17.5417045,132.465336 18.6957727,132.465336 C19.8498409,132.465336 20.78575,133.399185 20.78575,134.551448 L20.78575,140.620317 C20.78575,141.772251 19.8498409,142.706429 18.6957727,142.706429 Z" id="Shape" fill="#C1CFD8"></path>
                        <path d="M48.1086932,142.706429 C46.954625,142.706429 46.0187159,141.77258 46.0187159,140.620317 L46.0187159,134.551448 C46.0187159,133.399185 46.954625,132.465336 48.1086932,132.465336 C49.2627614,132.465336 50.1986705,133.399185 50.1986705,134.551448 L50.1986705,140.620317 C50.1986705,141.772251 49.2627614,142.706429 48.1086932,142.706429 Z" id="Shape" fill="#C1CFD8"></path>
                        <path d="M38.3040568,142.706429 C37.1499886,142.706429 36.2140795,141.77258 36.2140795,140.620317 L36.2140795,134.551448 C36.2140795,133.399185 37.1499886,132.465336 38.3040568,132.465336 C39.458125,132.465336 40.3940341,133.399185 40.3940341,134.551448 L40.3940341,140.620317 C40.3943636,141.772251 39.4587841,142.706429 38.3040568,142.706429 Z" id="Shape" fill="#C1CFD8"></path>
                        <path d="M28.5000795,142.706429 C27.3460114,142.706429 26.4101023,141.77258 26.4101023,140.620317 L26.4101023,134.551448 C26.4101023,133.399185 27.3460114,132.465336 28.5000795,132.465336 C29.6541477,132.465336 30.5900568,133.399185 30.5900568,134.551448 L30.5900568,140.620317 C30.5900568,141.772251 29.6541477,142.706429 28.5000795,142.706429 Z" id="Shape" fill="#C1CFD8"></path>
                        <path d="M8.89080682,159.585779 C7.73673864,159.585779 6.80082955,158.65193 6.80082955,157.499667 L6.80082955,151.430798 C6.80082955,150.278535 7.73673864,149.344686 8.89080682,149.344686 C10.044875,149.344686 10.9807841,150.278535 10.9807841,151.430798 L10.9807841,157.499667 C10.9811136,158.651601 10.044875,159.585779 8.89080682,159.585779 Z" id="Shape" fill="#C1CFD8"></path>
                        <path d="M18.6957727,159.585779 C17.5417045,159.585779 16.6057955,158.65193 16.6057955,157.499667 L16.6057955,151.430798 C16.6057955,150.278535 17.5417045,149.344686 18.6957727,149.344686 C19.8498409,149.344686 20.78575,150.278535 20.78575,151.430798 L20.78575,157.499667 C20.78575,158.651601 19.8498409,159.585779 18.6957727,159.585779 Z" id="Shape" fill="#C1CFD8"></path>
                        <path d="M48.1086932,159.585779 C46.954625,159.585779 46.0187159,158.65193 46.0187159,157.499667 L46.0187159,151.430798 C46.0187159,150.278535 46.954625,149.344686 48.1086932,149.344686 C49.2627614,149.344686 50.1986705,150.278535 50.1986705,151.430798 L50.1986705,157.499667 C50.1986705,158.651601 49.2627614,159.585779 48.1086932,159.585779 Z" id="Shape" fill="#C1CFD8"></path>
                        <path d="M38.3040568,159.585779 C37.1499886,159.585779 36.2140795,158.65193 36.2140795,157.499667 L36.2140795,151.430798 C36.2140795,150.278535 37.1499886,149.344686 38.3040568,149.344686 C39.458125,149.344686 40.3940341,150.278535 40.3940341,151.430798 L40.3940341,157.499667 C40.3943636,158.651601 39.4587841,159.585779 38.3040568,159.585779 Z" id="Shape" fill="#C1CFD8"></path>
                        <path d="M28.5000795,159.585779 C27.3460114,159.585779 26.4101023,158.65193 26.4101023,157.499667 L26.4101023,151.430798 C26.4101023,150.278535 27.3460114,149.344686 28.5000795,149.344686 C29.6541477,149.344686 30.5900568,150.278535 30.5900568,151.430798 L30.5900568,157.499667 C30.5900568,158.651601 29.6541477,159.585779 28.5000795,159.585779 Z" id="Shape" fill="#C1CFD8"></path>
                        <path d="M8.89080682,92.0680495 C7.73673864,92.0680495 6.80082955,91.1342003 6.80082955,89.9819375 L6.80082955,83.9130686 C6.80082955,82.7608058 7.73673864,81.8269565 8.89080682,81.8269565 C10.044875,81.8269565 10.9807841,82.7608058 10.9807841,83.9130686 L10.9807841,89.9819375 C10.9811136,91.1338713 10.044875,92.0680495 8.89080682,92.0680495 Z" id="Shape" fill="#C1CFD8"></path>
                        <path d="M18.6957727,92.0680495 C17.5417045,92.0680495 16.6057955,91.1342003 16.6057955,89.9819375 L16.6057955,83.9130686 C16.6057955,82.7608058 17.5417045,81.8269565 18.6957727,81.8269565 C19.8498409,81.8269565 20.78575,82.7608058 20.78575,83.9130686 L20.78575,89.9819375 C20.78575,91.1338713 19.8498409,92.0680495 18.6957727,92.0680495 Z" id="Shape" fill="#C1CFD8"></path>
                        <path d="M48.1086932,92.0680495 C46.954625,92.0680495 46.0187159,91.1342003 46.0187159,89.9819375 L46.0187159,83.9130686 C46.0187159,82.7608058 46.954625,81.8269565 48.1086932,81.8269565 C49.2627614,81.8269565 50.1986705,82.7608058 50.1986705,83.9130686 L50.1986705,89.9819375 C50.1986705,91.1338713 49.2627614,92.0680495 48.1086932,92.0680495 Z" id="Shape" fill="#C1CFD8"></path>
                        <path d="M38.3040568,92.0680495 C37.1499886,92.0680495 36.2140795,91.1342003 36.2140795,89.9819375 L36.2140795,83.9130686 C36.2140795,82.7608058 37.1499886,81.8269565 38.3040568,81.8269565 C39.458125,81.8269565 40.3940341,82.7608058 40.3940341,83.9130686 L40.3940341,89.9819375 C40.3943636,91.1338713 39.4587841,92.0680495 38.3040568,92.0680495 Z" id="Shape" fill="#C1CFD8"></path>
                        <path d="M28.5000795,92.0680495 C27.3460114,92.0680495 26.4101023,91.1342003 26.4101023,89.9819375 L26.4101023,83.9130686 C26.4101023,82.7608058 27.3460114,81.8269565 28.5000795,81.8269565 C29.6541477,81.8269565 30.5900568,82.7608058 30.5900568,83.9130686 L30.5900568,89.9819375 C30.5900568,91.1338713 29.6541477,92.0680495 28.5000795,92.0680495 Z" id="Shape" fill="#C1CFD8"></path>
                        <path d="M8.89080682,125.827079 C7.73673864,125.827079 6.80082955,124.893229 6.80082955,123.740967 L6.80082955,117.672098 C6.80082955,116.519835 7.73673864,115.585986 8.89080682,115.585986 C10.044875,115.585986 10.9807841,116.519835 10.9807841,117.672098 L10.9807841,123.740967 C10.9811136,124.892901 10.044875,125.827079 8.89080682,125.827079 Z" id="Shape" fill="#C1CFD8"></path>
                        <path d="M18.6957727,125.827079 C17.5417045,125.827079 16.6057955,124.893229 16.6057955,123.740967 L16.6057955,117.672098 C16.6057955,116.519835 17.5417045,115.585986 18.6957727,115.585986 C19.8498409,115.585986 20.78575,116.519835 20.78575,117.672098 L20.78575,123.740967 C20.78575,124.892901 19.8498409,125.827079 18.6957727,125.827079 Z" id="Shape" fill="#C1CFD8"></path>
                        <path d="M48.1086932,125.827079 C46.954625,125.827079 46.0187159,124.893229 46.0187159,123.740967 L46.0187159,117.672098 C46.0187159,116.519835 46.954625,115.585986 48.1086932,115.585986 C49.2627614,115.585986 50.1986705,116.519835 50.1986705,117.672098 L50.1986705,123.740967 C50.1986705,124.892901 49.2627614,125.827079 48.1086932,125.827079 Z" id="Shape" fill="#C1CFD8"></path>
                        <path d="M38.3040568,125.827079 C37.1499886,125.827079 36.2140795,124.893229 36.2140795,123.740967 L36.2140795,117.672098 C36.2140795,116.519835 37.1499886,115.585986 38.3040568,115.585986 C39.458125,115.585986 40.3940341,116.519835 40.3940341,117.672098 L40.3940341,123.740967 C40.3943636,124.892901 39.4587841,125.827079 38.3040568,125.827079 Z" id="Shape" fill="#C1CFD8"></path>
                        <path d="M28.5000795,125.827079 C27.3460114,125.827079 26.4101023,124.893229 26.4101023,123.740967 L26.4101023,117.672098 C26.4101023,116.519835 27.3460114,115.585986 28.5000795,115.585986 C29.6541477,115.585986 30.5900568,116.519835 30.5900568,117.672098 L30.5900568,123.740967 C30.5900568,124.892901 29.6541477,125.827079 28.5000795,125.827079 Z" id="Shape" fill="#C1CFD8"></path>
                        <rect id="Rectangle-path" fill="#BAC6CC" x="9.22727273" y="29.046875" width="38.2272727" height="3.9609375"></rect>
                    </g>
                    <g id="Group-4" transform="translate(399.000000, 84.000000)" fill-rule="nonzero">
                        <rect id="Rectangle-path" fill="#CFDCE5" x="5.28571429" y="15.8709677" width="25.1071429" height="13.2258065"></rect>
                        <rect id="Rectangle-path" fill="#BAC6CC" x="5.28571429" y="21.1612903" width="25.1071429" height="6.61290323"></rect>
                        <polyline id="Shape" fill="#FFFFFF" points="35.8619457 122.91261 35.8619457 23.8064516 0 23.8064516 0 122.91261"></polyline>
                        <rect id="Rectangle-path" fill="#C1CFD8" opacity="0.812896286" x="0" y="33.0645161" width="36.0799554" height="4.55963567"></rect>
                        <rect id="Rectangle-path" fill="#C1CFD8" opacity="0.66576087" x="0" y="44.9677419" width="36.0799554" height="4.55963567"></rect>
                        <rect id="Rectangle-path" fill="#C1CFD8" opacity="0.693500906" x="0" y="55.5483871" width="36.0799554" height="4.55963567"></rect>
                        <rect id="Rectangle-path" fill="#C1CFD8" opacity="0.703464674" x="0" y="66.1290323" width="36.0799554" height="4.55963567"></rect>
                        <rect id="Rectangle-path" fill="#C1CFD8" opacity="0.532835145" x="0" y="76.7096774" width="36.0799554" height="4.55963567"></rect>
                        <rect id="Rectangle-path" fill="#C1CFD8" opacity="0.394078351" x="0" y="87.2903226" width="36.0799554" height="4.55963567"></rect>
                        <rect id="Rectangle-path" fill="#C1CFD8" opacity="0.260416667" x="0" y="99.1935484" width="36.0799554" height="4.55963567"></rect>
                        <rect id="Rectangle-path" fill="#C1CFD8" opacity="0.237941576" x="0" y="109.774194" width="36.0799554" height="4.55963567"></rect>
                        <rect id="Rectangle-path" fill="#415E72" x="17.1785714" y="0" width="3.96428571" height="15.8709677"></rect>
                    </g>
                    <g id="Group-9" transform="translate(386.000000, 186.000000)">
                        <rect id="Rectangle-10" fill="#FFFFFF" x="3.94285714" y="3.97058824" width="38.1142857" height="41.0294118"></rect>
                        <rect id="Rectangle-11" fill="#EEF0F1" x="6.57142857" y="9.26470588" width="3.94285714" height="3.97058824"></rect>
                        <rect id="Rectangle-11-Copy" fill="#EEF0F1" x="13.1428571" y="9.26470588" width="3.94285714" height="3.97058824"></rect>
                        <rect id="Rectangle-11-Copy-6" fill="#EEF0F1" x="6.57142857" y="27.7941176" width="3.94285714" height="6.61764706"></rect>
                        <rect id="Rectangle-11-Copy-7" fill="#EEF0F1" x="35.4857143" y="27.7941176" width="3.94285714" height="6.61764706"></rect>
                        <rect id="Rectangle-11-Copy-2" fill="#EEF0F1" x="28.9142857" y="9.26470588" width="3.94285714" height="3.97058824"></rect>
                        <rect id="Rectangle-11-Copy-3" fill="#EEF0F1" x="35.4857143" y="9.26470588" width="3.94285714" height="3.97058824"></rect>
                        <rect id="Rectangle-11-Copy-4" fill="#EEF0F1" x="18.4" y="27.7941176" width="7.88571429" height="11.9117647"></rect>
                        <rect id="Rectangle-9-Copy-6" fill="#DBDFE1" x="0" y="0" width="46" height="6.61764706"></rect>
                        <rect id="Rectangle-9-Copy-8" fill="#E7EAEB" opacity="0.680819746" x="0" y="17.2058824" width="46" height="6.61764706"></rect>
                    </g>
                    <g id="hospital" transform="translate(673.000000, 122.000000)" fill-rule="nonzero">
                        <path d="M80,33.6314526 L80,62.3469388 L66.0869565,62.3469388 L64.3478261,62.3469388 L0,62.3469388 L0,33.6314526 C0,32.6402299 0.778608696,31.8367347 1.73913043,31.8367347 L64.3478261,31.8367347 L66.0869565,31.8367347 L78.2608696,31.8367347 C79.2213913,31.8367347 80,32.6402299 80,33.6314526 Z" id="XMLID_1886_" fill="#FFFFFF"></path>
                        <polygon id="XMLID_1893_" fill="#E7EDF0" points="69.5081967 31.8367347 64.3008679 61.50913 64.3008679 65 15.6991321 65 15.6991321 61.50913 10.4918033 31.8367347 15.6991321 31.8367347 64.3008679 31.8367347"></polygon>
                        <path d="M64.2622951,1.75675676 L64.2622951,65 L15.7377049,65 L15.7377049,1.75675676 C15.7377049,0.7865 16.5135785,0 17.470726,0 L62.529274,0 C63.4864215,0 64.2622951,0.7865 64.2622951,1.75675676 Z" id="XMLID_3239_" fill="#FFFFFF"></path>
                        <polygon id="XMLID_3329_" fill="#DEE5EA" points="27.5409836 13.2653061 32.7868852 13.2653061 32.7868852 18.5714286 27.5409836 18.5714286"></polygon>
                        <polygon id="XMLID_3333_" fill="#DEE5EA" points="36.7213115 13.2653061 41.9672131 13.2653061 41.9672131 18.5714286 36.7213115 18.5714286"></polygon>
                        <polygon id="XMLID_3334_" fill="#DEE5EA" points="52.4590164 13.2653061 52.4590164 18.5714286 47.2131148 18.5714286 47.2131148 13.2653061"></polygon>
                        <polygon id="XMLID_3328_" fill="#DEE5EA" points="27.5409836 22.5510204 32.7868852 22.5510204 32.7868852 27.8571429 27.5409836 27.8571429"></polygon>
                        <polygon id="XMLID_3323_" fill="#DEE5EA" points="36.7213115 22.5510204 41.9672131 22.5510204 41.9672131 27.8571429 36.7213115 27.8571429"></polygon>
                        <polygon id="XMLID_3321_" fill="#DEE5EA" points="47.2131148 22.5510204 52.4590164 22.5510204 52.4590164 27.8571429 47.2131148 27.8571429"></polygon>
                        <polygon id="XMLID_3320_" fill="#F9FAFB" points="52.4590164 65 27.5409836 65 27.5409836 39.7959184 52.4590164 39.7959184"></polygon>
                        <polygon id="XMLID_3319_" fill="#E7EDF0" points="52.4590164 65 40.6557377 65 40.6557377 39.7959184 52.4590164 39.7959184"></polygon>
                        <path d="M80,63.2312925 C80,64.2081497 79.2213913,65 78.2608696,65 L1.73913043,65 C0.778608696,65 0,64.2081497 0,63.2312925 L0,59.6938776 L80,59.6938776 L80,63.2312925 Z" id="XMLID_3335_" fill="#F0F3F5"></path>
                    </g>
                    <g id="Group-11" transform="translate(673.000000, 169.000000)">
                        <g id="church">
                            <polygon id="Shape" fill="#FFFFFF" fill-rule="nonzero" points="61 31.4453601 61 51 2.65217391 51 2.65217391 31.4453601 31.8260221 20.1315789"></polygon>
                            <rect id="Rectangle-12" fill="#E7EAEB" x="49.0652174" y="37.5789474" width="6.63043478" height="4.02631579"></rect>
                            <rect id="Rectangle-12-Copy" fill="#E7EAEB" x="6.63043478" y="37.5789474" width="9.2826087" height="4.02631579"></rect>
                            <path d="M61,30.0766383 L32.3505644,17.6663387 C31.8022062,17.3743783 31.1168548,17.3743783 30.5684966,17.6663387 L1.54552161e-14,30.0766383 C-2.36918245e-13,31.4445604 1.48988499e-13,33.4346613 -1.13686838e-13,34.8947368 L31.3629829,34.8947368 L61,34.8947368 C61,33.9470271 61,32.0176961 61,30.0766383 Z" id="Shape" fill="#DBDFE1" fill-rule="nonzero"></path>
                            <path d="M45.0869565,17.3608182 L45.0869565,48.3157895 L18.5652174,48.3157895 L18.5652174,17.3608182 C23.774815,12.1223155 26.6164339,9.2649301 31.8261425,4.02631579 L45.0869565,17.3608182 Z" id="Shape" fill="#FFFFFF" fill-rule="nonzero"></path>
                            <path d="M47.7391304,15.7831308 L33.2098299,0.63135229 C32.4026105,-0.210450763 31.1342155,-0.210450763 30.3269961,0.63135229 L15.9130435,15.7831308 C16.7547684,16.6625092 18.0444664,18.0365028 18.7958772,18.7894737 L31.826087,5.08072166 L44.8562967,18.6691839 C45.5946411,17.9216929 46.9322491,16.6835069 47.7391304,15.7831308 Z" id="Shape" fill="#DBDFE1" fill-rule="nonzero"></path>
                            <path d="M32.4891304,32.2105263 C29.212879,32.2105263 26.5217391,34.8632517 26.5217391,38.0927364 L26.5217391,46.9736842 L38.4565217,46.9736842 L38.4565217,38.0927364 C38.4565217,34.8632517 35.7653818,32.2105263 32.4891304,32.2105263 Z" id="Shape" fill="#EEF0F1" fill-rule="nonzero"></path>
                        </g>
                        <rect id="Rectangle-13" fill="#E5EAEB" x="26.6181818" y="13.3043478" width="8.87272727" height="8.86956522"></rect>
                    </g>
                    <g id="Group-5" transform="translate(429.000000, 29.000000)">
                        <polygon id="Rectangle-4" fill="#FFFFFF" points="0 0.527009882 46 0.527009882 46 152.683761 0 152.683761"></polygon>
                        <rect id="Rectangle-5" fill="url(#linearGradient-1)" transform="translate(7.885714, 71.735043) rotate(-180.000000) translate(-7.885714, -71.735043) " x="6.57142857" y="7.8974359" width="2.62857143" height="127.675214"></rect>
                        <rect id="Rectangle-5-Copy-2" fill="url(#linearGradient-1)" transform="translate(23.657143, 71.735043) rotate(-180.000000) translate(-23.657143, -71.735043) " x="22.3428571" y="7.8974359" width="2.62857143" height="127.675214"></rect>
                        <rect id="Rectangle-5-Copy" fill="url(#linearGradient-1)" transform="translate(13.142857, 71.735043) rotate(-180.000000) translate(-13.142857, -71.735043) " x="11.8285714" y="7.8974359" width="2.62857143" height="127.675214"></rect>
                        <rect id="Rectangle-5-Copy-3" fill="url(#linearGradient-1)" transform="translate(28.914286, 71.735043) rotate(-180.000000) translate(-28.914286, -71.735043) " x="27.6" y="7.8974359" width="2.62857143" height="127.675214"></rect>
                        <rect id="Rectangle-5-Copy-5" fill="url(#linearGradient-1)" transform="translate(39.428571, 71.735043) rotate(-180.000000) translate(-39.428571, -71.735043) " x="38.1142857" y="7.8974359" width="2.62857143" height="127.675214"></rect>
                        <rect id="Rectangle-5-Copy" fill="url(#linearGradient-1)" transform="translate(18.400000, 71.735043) rotate(-180.000000) translate(-18.400000, -71.735043) " x="17.0857143" y="7.8974359" width="2.62857143" height="127.675214"></rect>
                        <rect id="Rectangle-5-Copy-4" fill="url(#linearGradient-1)" transform="translate(34.171429, 71.735043) rotate(-180.000000) translate(-34.171429, -71.735043) " x="32.8571429" y="7.8974359" width="2.62857143" height="127.675214"></rect>
                    </g>
                    <g id="apartment-(1)" transform="translate(555.000000, 77.000000)" fill-rule="nonzero">
                        <polygon id="Shape" fill="#FFFFFF" points="0 100 59 100 59 6.57894737 0 6.57894737"></polygon>
                        <polygon id="Shape" fill="#CAD3DB" points="18.3555556 6.57894737 43.2666667 6.57894737 43.2666667 0 18.3555556 0"></polygon>
                        <g id="Group" transform="translate(0.000000, 14.473684)" fill="#A7B1B6">
                            <polygon id="Shape" opacity="0.681272645" points="0 10.3942842 8.65163455 10.3942842 8.65163455 0.120457778 0 0.120457778"></polygon>
                            <polygon id="Shape" opacity="0.681272645" points="15.5728638 10.3942842 25.9549037 10.3942842 25.9549037 0.120457778 15.5728638 0.120457778"></polygon>
                            <polygon id="Shape" opacity="0.681272645" points="32.8761329 10.3942842 43.2581728 10.3942842 43.2581728 0.120457778 32.8761329 0.120457778"></polygon>
                            <polygon id="Shape" opacity="0.559159873" points="0 27.5175223 8.65163455 27.5175223 8.65163455 17.2436958 0 17.2436958"></polygon>
                            <polygon id="Shape" opacity="0.559159873" points="15.5728638 27.5175223 25.9549037 27.5175223 25.9549037 17.2436958 15.5728638 17.2436958"></polygon>
                            <polygon id="Shape" opacity="0.559159873" points="32.8761329 27.5175223 43.2581728 27.5175223 43.2581728 17.2436958 32.8761329 17.2436958"></polygon>
                            <polygon id="Shape" opacity="0.406589674" points="0 44.6407604 8.65163455 44.6407604 8.65163455 34.3667399 0 34.3667399"></polygon>
                            <polygon id="Shape" opacity="0.406589674" points="15.5728638 44.6407604 25.9549037 44.6407604 25.9549037 34.3667399 15.5728638 34.3667399"></polygon>
                            <polygon id="Shape" opacity="0.406589674" points="32.8761329 44.6407604 43.2581728 44.6407604 43.2581728 34.3667399 32.8761329 34.3667399"></polygon>
                            <polygon id="Shape" opacity="0.275022645" points="0 61.7639984 8.65163455 61.7639984 8.65163455 51.489978 0 51.489978"></polygon>
                            <polygon id="Shape" opacity="0.275022645" points="15.5728638 61.7639984 25.9549037 61.7639984 25.9549037 51.489978 15.5728638 51.489978"></polygon>
                            <polygon id="Shape" opacity="0.275022645" points="32.8761329 61.7639984 43.2581728 61.7639984 43.2581728 51.489978 32.8761329 51.489978"></polygon>
                            <polygon id="Shape" opacity="0.111243207" points="0 78.8872365 8.65163455 78.8872365 8.65163455 68.6132161 0 68.6132161"></polygon>
                            <polygon id="Shape" opacity="0.111243207" points="15.5728638 78.8872365 25.9549037 78.8872365 25.9549037 68.6132161 15.5728638 68.6132161"></polygon>
                            <polygon id="Shape" opacity="0.111243207" points="32.8761329 78.8872365 43.2581728 78.8872365 43.2581728 68.6132161 32.8761329 68.6132161"></polygon>
                            <polygon id="Shape" opacity="0.681272645" points="50.179402 10.3942842 58.8310365 10.3942842 58.8310365 0.120457778 50.179402 0.120457778"></polygon>
                            <polygon id="Shape" opacity="0.559159873" points="50.179402 27.5175223 58.8310365 27.5175223 58.8310365 17.2436958 50.179402 17.2436958"></polygon>
                            <polygon id="Shape" opacity="0.406589674" points="50.179402 44.6407604 58.8310365 44.6407604 58.8310365 34.3667399 50.179402 34.3667399"></polygon>
                            <polygon id="Shape" opacity="0.275022645" points="50.179402 61.7639984 58.8310365 61.7639984 58.8310365 51.489978 50.179402 51.489978"></polygon>
                            <polygon id="Shape" opacity="0.111243207" points="50.179402 78.8872365 58.8310365 78.8872365 58.8310365 68.6132161 50.179402 68.6132161"></polygon>
                        </g>
                    </g>
                    <g id="Group-2" transform="translate(760.000000, 101.000000)" fill-rule="nonzero">
                        <rect id="Rectangle-path" fill="#CFDCE5" x="6.61764706" y="0" width="31.7647059" height="13.2098765"></rect>
                        <polyline id="Shape" fill="#FFFFFF" points="45 107 45 7.92592593 0 7.92592593 0 107"></polyline>
                        <rect id="Rectangle-path" fill="#C1CFD8" opacity="0.812896286" x="0" y="18.4938272" width="45" height="3.96296296"></rect>
                        <rect id="Rectangle-path" fill="#C1CFD8" opacity="0.66576087" x="0" y="29.0617284" width="45" height="3.96296296"></rect>
                        <rect id="Rectangle-path" fill="#C1CFD8" opacity="0.693500906" x="0" y="39.6296296" width="45" height="3.96296296"></rect>
                        <rect id="Rectangle-path" fill="#C1CFD8" opacity="0.703464674" x="0" y="50.1975309" width="45" height="3.96296296"></rect>
                        <rect id="Rectangle-path" fill="#C1CFD8" opacity="0.532835145" x="0" y="62.0864198" width="45" height="3.96296296"></rect>
                        <rect id="Rectangle-path" fill="#C1CFD8" opacity="0.394078351" x="0" y="72.654321" width="45" height="3.96296296"></rect>
                        <rect id="Rectangle-path" fill="#C1CFD8" opacity="0.260416667" x="0" y="83.2222222" width="45" height="3.96296296"></rect>
                        <rect id="Rectangle-path" fill="#C1CFD8" opacity="0.237941576" x="0" y="93.7901235" width="45" height="3.96296296"></rect>
                    </g>
                    <g id="apartment" transform="translate(548.000000, 138.000000)" fill-rule="nonzero">
                        <g id="Group">
                            <path d="M20.5,7.51854143 C19.7352923,7.51854143 19.2255352,7.0173148 19.2255352,6.26540388 L19.2255352,1.25313756 C19.2255352,0.501226632 19.7352923,0 20.5,0 C21.2647077,0 21.7744648,0.501226632 21.7744648,1.25313756 L21.7744648,6.26540388 C21.7744648,7.01717285 21.2647077,7.51854143 20.5,7.51854143" id="Shape" fill="#E6EEF3"></path>
                            <path d="M15.4024296,7.51854143 C14.6377218,7.51854143 14.1279648,7.0173148 14.1279648,6.26540388 L14.1279648,2.50613316 C14.1279648,1.75422224 14.6377218,1.25299561 15.4024296,1.25299561 C16.1671373,1.25299561 16.6768944,1.75422224 16.6768944,2.50613316 L16.6768944,6.26540388 C16.67675,7.01717285 16.166993,7.51854143 15.4024296,7.51854143" id="Shape" fill="#E6EEF3"></path>
                            <path d="M25.5975704,7.51854143 C24.8328627,7.51854143 24.3231056,7.0173148 24.3231056,6.26540388 L24.3231056,3.75927072 C24.3231056,3.00735979 24.8328627,2.50613316 25.5975704,2.50613316 C26.3622782,2.50613316 26.8720352,3.00735979 26.8720352,3.75927072 L26.8720352,6.26540388 C26.8720352,7.01717285 26.3622782,7.51854143 25.5975704,7.51854143" id="Shape" fill="#E6EEF3"></path>
                            <polygon id="Shape" fill="#FFFFFF" points="38.3416408 67.6663051 38.3416408 62.6538968 30.6952852 62.6538968 30.6952852 57.6416305 38.3416408 57.6416305 38.3416408 52.6293642 30.6952852 52.6293642 30.6952852 47.6169559 38.3416408 47.6169559 38.3416408 42.6046896 30.6952852 42.6046896 30.6952852 37.5924233 38.3416408 37.5924233 38.3416408 32.580015 30.6952852 32.580015 30.6952852 27.5677487 38.3416408 27.5677487 38.3416408 22.5554824 30.6952852 22.5554824 30.6952852 17.5430741 38.3416408 17.5430741 38.3416408 12.5308078 2.65835915 12.5308078 2.65835915 17.5430741 10.3047148 17.5430741 10.3047148 22.5554824 2.65835915 22.5554824 2.65835915 27.5677487 10.3047148 27.5677487 10.3047148 32.580015 2.65835915 32.580015 2.65835915 37.5924233 10.3047148 37.5924233 10.3047148 42.6046896 2.65835915 42.6046896 2.65835915 47.6169559 10.3047148 47.6169559 10.3047148 52.6293642 2.65835915 52.6293642 2.65835915 57.6416305 10.3047148 57.6416305 10.3047148 62.6538968 2.65835915 62.6538968 2.65835915 67.6663051 0.109573944 67.6663051 0.109573944 72.6785714 10.3047148 72.6785714 15.4024296 72.6785714 25.5975704 72.6785714 30.6952852 72.6785714 40.8904261 72.6785714 40.8904261 67.6663051"></polygon>
                        </g>
                        <g id="Group" transform="translate(0.000000, 6.607143)">
                            <polygon id="Shape" fill="#CAD3DB" points="7.75592958 6.30871114 33.2440704 6.30871114 33.2440704 0.0196630711 7.75592958 0.0196630711"></polygon>
                            <polygon id="Shape" fill="#CAD3DB" points="0.109573944 16.3712166 10.3047148 16.3712166 10.3047148 11.3398926 0.109573944 11.3398926"></polygon>
                            <polygon id="Shape" fill="#CAD3DB" points="15.4024296 16.3712166 25.5975704 16.3712166 25.5975704 11.3398926 15.4024296 11.3398926"></polygon>
                            <polygon id="Shape" fill="#CAD3DB" points="30.6952852 16.3712166 40.8904261 16.3712166 40.8904261 11.3398926 30.6952852 11.3398926"></polygon>
                            <polygon id="Shape" fill="#CAD3DB" points="0.109573944 26.4335795 10.3047148 26.4335795 10.3047148 21.402398 0.109573944 21.402398"></polygon>
                            <polygon id="Shape" fill="#CAD3DB" points="15.4024296 26.4335795 25.5975704 26.4335795 25.5975704 21.402398 15.4024296 21.402398"></polygon>
                            <polygon id="Shape" fill="#CAD3DB" points="30.6952852 26.4335795 40.8904261 26.4335795 40.8904261 21.402398 30.6952852 21.402398"></polygon>
                            <polygon id="Shape" fill="#DEE4EA" points="0.109573944 36.4960849 10.3047148 36.4960849 10.3047148 31.4649034 0.109573944 31.4649034"></polygon>
                            <polygon id="Shape" fill="#DEE4EA" points="15.4024296 36.4960849 25.5975704 36.4960849 25.5975704 31.4649034 15.4024296 31.4649034"></polygon>
                            <polygon id="Shape" fill="#DEE4EA" points="30.6952852 36.4960849 40.8904261 36.4960849 40.8904261 31.4649034 30.6952852 31.4649034"></polygon>
                            <polygon id="Shape" fill="#CAD3DB" opacity="0.387907609" points="0.109573944 46.5585903 10.3047148 46.5585903 10.3047148 41.5272664 0.109573944 41.5272664"></polygon>
                            <polygon id="Shape" fill="#CAD3DB" opacity="0.387907609" points="15.4024296 46.5585903 25.5975704 46.5585903 25.5975704 41.5272664 15.4024296 41.5272664"></polygon>
                            <polygon id="Shape" fill="#CAD3DB" opacity="0.387907609" points="30.6952852 46.5585903 40.8904261 46.5585903 40.8904261 41.5272664 30.6952852 41.5272664"></polygon>
                            <polygon id="Shape" fill="#CAD3DB" opacity="0.340296649" points="0.109573944 56.6209532 10.3047148 56.6209532 10.3047148 51.5897718 0.109573944 51.5897718"></polygon>
                            <polygon id="Shape" fill="#CAD3DB" opacity="0.340296649" points="15.4024296 56.6209532 25.5975704 56.6209532 25.5975704 51.5897718 15.4024296 51.5897718"></polygon>
                            <polygon id="Shape" fill="#CAD3DB" opacity="0.340296649" points="30.6952852 56.6209532 40.8904261 56.6209532 40.8904261 51.5897718 30.6952852 51.5897718"></polygon>
                            <polygon id="Shape" fill="#CAD3DB" opacity="0.138473732" points="0.109573944 66.6834586 10.3047148 66.6834586 10.3047148 61.6522772 0.109573944 61.6522772"></polygon>
                            <polygon id="Shape" fill="#CAD3DB" opacity="0.138473732" points="15.4024296 66.6834586 25.5975704 66.6834586 25.5975704 61.6522772 15.4024296 61.6522772"></polygon>
                            <polygon id="Shape" fill="#CAD3DB" opacity="0.138473732" points="30.6952852 66.6834586 40.8904261 66.6834586 40.8904261 61.6522772 30.6952852 61.6522772"></polygon>
                        </g>
                    </g>
                    <g id="Group-10" transform="translate(623.000000, 0.000000)">
                        <g id="Group-7" transform="translate(0.000000, 22.395210)">
                            <g id="Group-6" transform="translate(23.500000, 99.000000) scale(-1, 1) translate(-23.500000, -99.000000) ">
                                <polygon id="Rectangle-4-Copy" fill="#FFFFFF" points="0 0 25.5142857 17.6532092 25.5142857 49.5066897 47 69.5604884 47 169.94012 0 169.94012"></polygon>
                                <rect id="Rectangle-5" fill="url(#linearGradient-1)" transform="translate(7.833333, 105.389222) rotate(-180.000000) translate(-7.833333, -105.389222) " x="6.52777778" y="13.1736527" width="2.61111111" height="184.431138"></rect>
                                <rect id="Rectangle-5-Copy-2" fill="url(#linearGradient-1)" transform="translate(23.500000, 126.467066) rotate(-180.000000) translate(-23.500000, -126.467066) " x="22.1944444" y="55.3293413" width="2.61111111" height="142.275449"></rect>
                                <rect id="Rectangle-5-Copy" fill="url(#linearGradient-1)" transform="translate(13.055556, 107.365269) rotate(-180.000000) translate(-13.055556, -107.365269) " x="11.75" y="17.1257485" width="2.61111111" height="180.479042"></rect>
                                <rect id="Rectangle-5-Copy-3" fill="url(#linearGradient-1)" transform="translate(28.722222, 129.101796) rotate(-180.000000) translate(-28.722222, -129.101796) " x="27.4166667" y="60.5988024" width="2.61111111" height="137.005988"></rect>
                                <rect id="Rectangle-5-Copy-5" fill="url(#linearGradient-1)" transform="translate(39.166667, 133.712575) rotate(-180.000000) translate(-39.166667, -133.712575) " x="37.8611111" y="69.8203593" width="2.61111111" height="127.784431"></rect>
                                <rect id="Rectangle-5-Copy" fill="url(#linearGradient-1)" transform="translate(18.277778, 109.341317) rotate(-180.000000) translate(-18.277778, -109.341317) " x="16.9722222" y="21.0778443" width="2.61111111" height="176.526946"></rect>
                                <rect id="Rectangle-5-Copy-4" fill="url(#linearGradient-1)" transform="translate(33.944444, 131.077844) rotate(-180.000000) translate(-33.944444, -131.077844) " x="32.6388889" y="64.5508982" width="2.61111111" height="133.053892"></rect>
                            </g>
                        </g>
                        <polygon id="Path-5" fill-opacity="0.35082654" fill="#A7B1B6" points="21.5722656 72.0922998 46.9515516 49.5221276 46.9515516 22.1629982 21.5722656 39.9384239"></polygon>
                        <rect id="Rectangle-6" fill="#415E72" x="43.0833333" y="0" width="3.91666667" height="25.0299401"></rect>
                    </g>
                    <g id="Group-8" transform="translate(286.000000, 152.000000)">
                        <rect id="Rectangle-8" fill="#FFFFFF" x="1.33333333" y="6.48648649" width="45.3333333" height="41.5135135"></rect>
                        <rect id="Rectangle-9" fill="#E7EAEB" x="8" y="22.0540541" width="6.66666667" height="6.48648649"></rect>
                        <rect id="Rectangle-9-Copy-4" fill="#E7EAEB" x="8" y="35.027027" width="6.66666667" height="6.48648649"></rect>
                        <rect id="Rectangle-9-Copy" fill="#E7EAEB" x="17.3333333" y="22.0540541" width="6.66666667" height="6.48648649"></rect>
                        <rect id="Rectangle-9-Copy-5" fill="#E7EAEB" x="17.3333333" y="35.027027" width="6.66666667" height="6.48648649"></rect>
                        <rect id="Rectangle-9-Copy-7" fill="#E7EAEB" opacity="0.440217391" x="34.6666667" y="35.027027" width="9.33333333" height="12.972973"></rect>
                        <rect id="Rectangle-9-Copy-6" fill="#E7EAEB" x="0" y="29.8378378" width="52" height="1.2972973"></rect>
                        <rect id="Rectangle-9-Copy-2" fill="#E7EAEB" x="29.3333333" y="22.0540541" width="6.66666667" height="6.48648649"></rect>
                        <rect id="Rectangle-9-Copy-3" fill="#E7EAEB" x="40" y="22.0540541" width="6.66666667" height="6.48648649"></rect>
                        <polygon id="Rectangle-7" fill="#DBDFE1" points="0 0 50.6666667 0 50.6666667 18.1621622 33.9301422 18.1621622 25.6843998 8.25552826 17.4339451 18.1621622 0 18.1621622"></polygon>
                    </g>
                    <g id="Group-8-Copy" transform="translate(451.000000, 152.000000)">
                        <rect id="Rectangle-8" fill="#FFFFFF" x="1.30952381" y="6.625" width="51.0714286" height="46.375"></rect>
                        <rect id="Rectangle-9" fill="#E7EAEB" x="9.16666667" y="23.85" width="6.54761905" height="6.625"></rect>
                        <rect id="Rectangle-9-Copy-4" fill="#E7EAEB" x="9.16666667" y="39.75" width="6.54761905" height="6.625"></rect>
                        <rect id="Rectangle-9-Copy" fill="#E7EAEB" x="19.6428571" y="23.85" width="6.54761905" height="6.625"></rect>
                        <rect id="Rectangle-9-Copy-5" fill="#E7EAEB" x="19.6428571" y="39.75" width="6.54761905" height="6.625"></rect>
                        <rect id="Rectangle-9-Copy-7" fill="#E7EAEB" opacity="0.440217391" x="36.6666667" y="39.75" width="10.4761905" height="13.25"></rect>
                        <rect id="Rectangle-9-Copy-2" fill="#E7EAEB" x="32.7380952" y="23.85" width="6.54761905" height="6.625"></rect>
                        <rect id="Rectangle-9-Copy-3" fill="#E7EAEB" x="43.2142857" y="23.85" width="6.54761905" height="6.625"></rect>
                        <polygon id="Rectangle-7" fill="#DBDFE1" points="0 0 55 0 55 19.875 36.8320623 19.875 27.8810919 9.03409091 18.9250062 19.875 0 19.875"></polygon>
                    </g>
                    <g id="church-(1)" transform="translate(776.000000, 180.000000)" fill-rule="nonzero">
                        <rect id="Rectangle-path" fill="#FFFFFF" x="10.6666667" y="23.85" width="57.3333333" height="27.825"></rect>
                        <polygon id="Shape" fill="#EFF3F5" points="67.0334874 13.25 10.7463442 13.25 0 23.85 72 23.85"></polygon>
                        <path d="M24.7338019,2.65 C20.8412182,6.66135443 18.6935207,8.87458257 14.6666667,13.0243043 L14.6666667,53 L34.6666667,53 L34.6666667,13.0243043 C30.774083,9.01294985 28.6263855,6.66148411 24.7338019,2.65 Z" id="Shape" fill="#FFFFFF"></path>
                        <rect id="Rectangle-path" fill="#EEF0F1" x="18.6666667" y="38.425" width="10.6666667" height="14.575"></rect>
                        <path d="M40.6697653,13.459201 L27.4941104,0.627633167 C26.6348344,-0.209211056 25.2026629,-0.209211056 24.3433869,0.627633167 L11.3111237,13.459201 C10.4518477,14.2960452 10.4518477,15.6908292 11.3111237,16.5276734 C11.7407617,16.9460955 12.3136571,17.225 12.8864183,17.225 C13.4591794,17.225 14.0320748,16.9460955 14.4617129,16.5276734 L26.0619389,5.23027639 L37.662165,16.5276734 C38.521441,17.3645176 39.9536124,17.3645176 40.8128884,16.5276734 C41.5290413,15.6908292 41.5290413,14.2960452 40.6697653,13.459201 Z" id="Shape" fill="#EFF3F5"></path>
                        <rect id="Rectangle-path" fill="#E6EAEB" x="41.3333333" y="30.475" width="9.33333333" height="18.55"></rect>
                        <rect id="Rectangle-path-Copy" fill="#E6EAEB" x="4" y="30.475" width="6.66666667" height="10.6"></rect>
                        <rect id="Rectangle-path-Copy-2" fill="#E6EAEB" x="21.3333333" y="13.25" width="6.66666667" height="10.6"></rect>
                        <rect id="Rectangle-path" fill="#E6EAEB" x="53.3333333" y="30.475" width="9.33333333" height="18.55"></rect>
                    </g>
                    <g id="church-(1)-copy" transform="translate(621.000000, 225.000000) scale(-1, 1) translate(-621.000000, -225.000000) translate(593.000000, 204.000000)" fill-rule="nonzero">
                        <rect id="Rectangle-path" fill="#FFFFFF" x="8.78431373" y="18.7894737" width="45.0196078" height="22.1052632"></rect>
                        <polygon id="Shape" fill="#ECF0F3" points="52.1371568 11.0526316 8.35826771 11.0526316 0 19.8947368 56 19.8947368"></polygon>
                        <path d="M18.7182686,2.21052632 C15.726322,5.38052992 14.0755427,7.12955043 10.9803922,10.4088998 L10.9803922,42 L26.3529412,42 L26.3529412,10.4088998 C23.3609945,7.23889624 21.7102153,5.3806324 18.7182686,2.21052632 Z" id="Shape" fill="#FFFFFF"></path>
                        <path d="M31.3204289,10.3635128 L20.9416521,0.483274183 C20.26478,-0.161091394 19.1366245,-0.161091394 18.4597524,0.483274183 L8.19392862,10.3635128 C7.51705647,11.0078784 7.51705647,12.0818546 8.19392862,12.7262201 C8.53236469,13.0484029 8.98364805,13.2631579 9.43482564,13.2631579 C9.88600323,13.2631579 10.3372866,13.0484029 10.6757227,12.7262201 L19.8134966,4.02728485 L28.9512706,12.7262201 C29.6281428,13.3705857 30.7562983,13.3705857 31.4331704,12.7262201 C31.9973011,12.0818546 31.9973011,11.0078784 31.3204289,10.3635128 Z" id="Shape" fill="#EBF0F3"></path>
                        <rect id="Rectangle-path-Copy-2" fill="#F8F9FA" x="16.4705882" y="11.0526316" width="5.49019608" height="8.84210526"></rect>
                    </g>
                    <polygon id="Shape" fill="#CAD3DB" fill-rule="nonzero" opacity="0.138473732" points="604 232 614 232 614 227 604 227"></polygon>
                    <polygon id="Shape-Copy" fill="#CAD3DB" fill-rule="nonzero" opacity="0.138473732" points="604 240 614 240 614 235 604 235"></polygon>
                    <polygon id="Path-6" fill="#F8F9FA" points="568 227 524 227 534.642978 214 558.585642 214"></polygon>
                    <polygon id="Path-6-Copy-2" fill="#F8F9FA" points="465 233 421 233 431.642978 220 455.585642 220"></polygon>
                    <polygon id="Path-6" fill="#F8F9FA" points="524 219 480 219 502 201"></polygon>
                    <polygon id="Path-6-Copy" fill="#F8F9FA" points="614 247 570 247 592 229"></polygon>
                    <polygon id="Shape" fill="#CAD3DB" fill-rule="nonzero" opacity="0.138473732" points="492 228 502 228 502 223 492 223"></polygon>
                </g>
                <path d="M639,50 L786,50 L786,46.3822623 C781.845971,45.4778279 777.558397,45.4778279 773.137279,46.3822623 C770.704293,40.5958592 764.397212,30.3783116 748.349609,34.2703308 C733.397255,37.8967199 737.828125,17.0714087 714.833984,17.0002185 C691.839844,16.9290282 694.969244,34.2804946 685.892833,34.2803163 C676.816421,34.2801381 668.336803,36.0729829 663.491977,43.0364915 C657.167703,43.0364915 649.00371,45.357661 639,50 Z" id="Path-8" fill="#CEF1F3"></path>
                <path d="M564,33 L711,33 L711,29.3822623 C706.845971,28.4778279 702.558397,28.4778279 698.137279,29.3822623 C695.704293,23.5958592 689.397212,13.3783116 673.349609,17.2703308 C658.397255,20.8967199 662.828125,0.0714086963 639.833984,0.000218463775 C616.839844,-0.0709717688 619.969244,17.2804946 610.892833,17.2803163 C601.816421,17.2801381 593.336803,19.0729829 588.491977,26.0364915 C582.167703,26.0364915 574.00371,28.357661 564,33 Z" id="Path-8-Copy" fill="#DBF1F2" opacity="0.587126359"></path>
                <path d="M297,83 L392,83 C387.892388,81.4033741 385.218554,79.7439791 383.978499,78.0218151 C382.083535,75.3901252 381.547486,73.2873424 380.797509,70.3267023 C378.568288,61.5265309 373.305189,58.8317536 369.387943,59.0080256 C363.279703,59.2828901 360.049131,61.7059189 355.950398,65.8511977 C353.217909,68.6147169 350.218718,69.1100489 346.952823,67.3371937 C342.344665,64.5779966 338.887574,64.5779966 336.581551,67.3371937 C333.122516,71.4759893 332.401154,71.4759893 328.852678,71.4759893 C325.304202,71.4759893 321.914192,69.0470135 317.531581,72.5999744 C313.148969,76.1529354 313.926718,79.2631142 311.738329,79.3857308 C309.54994,79.5083474 308.772191,79.1404977 306.459363,79.2631142 C304.917477,79.3448586 301.764356,80.5904872 297,83 Z" id="Path-17" fill="#D3F0F3" opacity="0.69067029"></path>
            </g>
        </g>
    </g>
</svg>