<?xml version="1.0" encoding="UTF-8"?>
<svg width="374px" height="297px" viewBox="0 0 374 297" version="1.1" xmlns="http://www.w3.org/2000/svg" xmlns:xlink="http://www.w3.org/1999/xlink">
    <!-- Generator: Sketch 47 (45396) - http://www.bohemiancoding.com/sketch -->
    <title>Group 35</title>
    <desc>Created with Sketch.</desc>
    <defs>
        <path d="M34.6935023,19.2501343 C46.2754689,20.7891719 51.8173114,16.1652466 57.8915539,21.4740356 C63.9657965,26.7828247 77.8641864,39.1034744 76.7773438,59.8104858 C75.2848704,59.8104858 73.5710032,59.9991455 71.6357422,60.3764648 C70.9064117,54.0804579 70.0564768,49.6873915 69.0859375,47.1972656 C67.7654388,43.8092442 66.2071199,40.0275876 63.5264148,38.0009231 C57.8903154,33.7399236 56.0120284,32.3789225 57.8915539,33.9179199 C60.3463939,48.2276042 61.5738138,58.4114176 61.5738138,64.4693604 C61.1164551,64.5947266 60.6624756,64.7785645 59.8878144,64.921875 C59.6870117,65.5083008 59.8878144,65.2608643 59.8878144,66.913623 C59.8878144,77.6190358 56.8911014,91.6068237 57.8915539,100.204468 C58.5585223,105.93623 59.7859423,118.545296 61.5738138,138.031665 L55.0722656,138.031665 C50.1310023,115.951733 47.6603706,102.444108 47.6603706,97.5087891 C47.6603706,90.1058105 48.4624262,70.6389404 46.6157227,73.1147461 C44.7690192,75.5905518 40.0013815,92.1942871 39.9363567,98.5031738 C39.8713319,104.812061 37.9159442,138.398047 37.6391244,141.416199 C33.9872094,142.1387 31.7382813,142.1387 30.8923399,141.416199 C29.7701982,112.641997 29.3218369,95.2186168 29.5472561,89.1460571 C29.7624769,83.348231 31.1975338,77.080857 33.338623,64.921875 C33.0633952,64.6682943 32.7502035,64.3667399 32.3990479,64.0172119 C33.5707383,42.6676839 33.6125429,31.9929199 32.5244617,31.9929199 C30.8923399,31.9929199 1.74365234,25.6337891 0,1.75970459 C2.15882241,0.953234863 3.74697504,0.55 4.76445789,0.55 C7.56919303,8.32832845 10.8789539,13.3895996 14.6937405,15.7338135 C20.4159204,19.2501343 24.6765622,17.9190609 34.6935023,19.2501343 Z" id="path-1"></path>
    </defs>
    <g id="Page-2" stroke="none" stroke-width="1" fill="none" fill-rule="evenodd">
        <g id="Artboard-Copy-5" transform="translate(-694.000000, -1439.000000)">
            <g id="Group-35" transform="translate(694.000000, 1439.000000)">
                <g id="Group-25" transform="translate(119.000000, 0.000000)">
                    <polygon id="Rectangle-20" fill="#FFFFFF" points="0 41.8 154.978448 93.5 154.978448 253 0 201.3"></polygon>
                    <polygon id="Path-37" fill="#D3D9E0" points="153.566958 92.3731445 253.348073 54.2845703 253.348073 200.153809 154.978448 252.167107"></polygon>
                    <polygon id="Path-38" fill="#CCD3DB" points="0.222167969 41.8901367 101.007448 0 254.491756 54.2523438 154.224252 93.1530273"></polygon>
                    <polygon id="Path-39" fill="#E1E5EA" points="0.0617191709 41.7527344 154.030656 93.1916992 154.030656 113.737988 0.0617191709 61.0056641"></polygon>
                    <ellipse id="Oval-9" fill="#FF9090" cx="7.69396552" cy="54.7" rx="2.19827586" ry="3.3"></ellipse>
                    <ellipse id="Oval-9-Copy" fill="#ECBF75" cx="14.2887931" cy="56.9" rx="2.19827586" ry="3.3"></ellipse>
                    <ellipse id="Oval-9-Copy" fill="#AADD7D" cx="20.9827586" cy="59.2" rx="2.19827586" ry="3.3"></ellipse>
                </g>
                <polygon id="Rectangle-21" fill="#FFFFFF" points="151 58 232 85.75 232 95 151 67.25"></polygon>
                <g id="Group-23" transform="translate(224.000000, 169.000000)">
                    <polygon id="Path-42" fill="#D3D9E0" points="0 0 0 40 27 32.7582634 27 10.0769278"></polygon>
                    <polygon id="Path-43" fill="#EDF0F3" points="1 39.8118787 27 49 27 28"></polygon>
                </g>
                <g id="Group-21" transform="translate(114.000000, 80.000000)">
                    <polygon id="Rectangle-20-Copy" fill="#AFE4E7" points="0 5.4 88.2882883 34.8 88.2882883 125.502128 0 96.1021277"></polygon>
                    <polygon id="Path-40" fill="#87CDD1" points="0.349275056 5.40439453 12.6090935 0.550195312 99.8697917 29.9329102 88.244299 35.0077148"></polygon>
                    <polygon id="Path-41" fill="#97D9DD" points="99.3762317 29.8485352 99.3762317 117.144607 88.0459072 125.42915 88.0459072 34.8829102"></polygon>
                </g>
                <path d="M88,105.619101 L143,120 C141.931854,118.965811 140.665628,117.407669 139.201323,115.325574 C137.004865,112.202432 137.147249,107.199446 137.080896,103.724654 C137.014544,100.249863 132.736627,96.8977 130.465292,97.0023896 C126.923553,97.1656341 125.050372,98.6046929 122.673805,101.066612 C121.089427,102.707891 119.350407,103.002073 117.456745,101.949158 C114.784798,100.310446 112.780275,100.310446 111.443174,101.949158 C109.437523,104.407226 106.390136,104.133792 104.579167,102.434497 C102.768199,100.735202 101.086488,100.986692 98.5453202,103.096827 C96.0041524,105.206963 97.5761391,105.546278 96.3072463,105.619101 C95.0383535,105.691924 94.5488631,105.546278 93.2078164,105.619101 C92.3137854,105.66765 90.5778465,105.66765 88,105.619101 Z" id="Path-17-Copy" fill="#FFFFFF" opacity="0.69067029"></path>
                <g id="church-(1)-copy" opacity="0.745018116" transform="translate(155.500000, 145.500000) scale(-1, 1) translate(-155.500000, -145.500000) translate(122.000000, 111.000000)" fill-rule="nonzero">
                    <polygon id="Rectangle-path" fill="#FFFFFF" points="5 40 64 22 64 51 5 69"></polygon>
                    <polygon id="Shape" fill="#ECF0F3" points="61.8955287 12 7.38085938 24 0.893554688 41.0703125 67 24"></polygon>
                    <polygon id="Shape" fill="#FFFFFF" points="23.9794922 3.0625 15 14.9203203 15 53 35 53 35 13.9203203"></polygon>
                    <path d="M40.3075812,16.0647674 C29.8552322,5.14366982 24.3301791,-0.0253802391 23.7324219,0.557617188 L9.43359375,24.0229608 C8.53695792,24.8974569 8.53695792,26.354996 9.43359375,27.2294922 C9.88191167,27.6667403 10.4797156,27.9581934 11.0773794,27.9581934 C11.6750432,27.9581934 12.2728472,27.6667403 12.7211651,27.2294922 L25.0646319,7.46560087 L37.1692157,19.2712988 C38.0658515,20.1457949 39.5602912,20.1457949 40.4569271,19.2712988 C41.204217,18.3968026 41.204217,16.9392635 40.3075812,16.0647674 Z" id="Shape" fill="#EBF0F3"></path>
                    <polygon id="Rectangle-path-Copy-2" fill="#F8F9FA" points="22 19 29 17 29 29 22 31"></polygon>
                    <polygon id="Rectangle-path-Copy-3" fill="#F8F9FA" points="53 33 60 31 60 43 53 45"></polygon>
                    <polygon id="Rectangle-path-Copy-4" fill="#F8F9FA" points="44 36 51 34 51 46 44 48"></polygon>
                </g>
                <polygon id="Path-45" fill="#FF8686" points="211 131.494662 220 129 220 141.845205 211 146"></polygon>
                <polygon id="Path-44" fill="#FF5050" points="209.439189 144.564321 204 141.824946 204 128 212 131.35725 212 146"></polygon>
                <g id="Group-16-Copy-2" transform="translate(175.500000, 220.000000) scale(-1, 1) translate(-175.500000, -220.000000) translate(136.000000, 143.000000)">
                    <g id="Rectangle" transform="translate(1.000000, 8.000000)">
                        <mask id="mask-2" fill="white">
                            <use xlink:href="#path-1"></use>
                        </mask>
                        <use id="Mask" fill="#FFB439" xlink:href="#path-1"></use>
                        <rect fill="#4181CC" mask="url(#mask-2)" x="18" y="65" width="55" height="83"></rect>
                        <path d="M71.9946289,60.5063477 C71.1075846,63.0743815 70.6625977,64.9355469 70.659668,66.0898438 C70.6567383,67.2441406 71.1017253,67.8212891 71.9946289,67.8212891" id="Path-20" stroke="#979797" mask="url(#mask-2)"></path>
                    </g>
                    <path d="M45,24.6166992 C50.3544922,23.7446289 52.4238281,18.8011678 52.4238281,13.2783203 C52.4238281,7.75547281 49.418278,5 45,5 C42.5144856,5 40.1015914,5.20001971 38.6342773,7.42285156 C37.4932777,9.15135031 37,12.5840455 37,15 C37,17.9941159 38.1926096,21.4218724 39.4394531,23.7446289 C40.401123,25.5361328 42.993486,24.9434942 45,24.6166992 Z" id="Oval-2" fill="#E7D5AD"></path>
                    <path d="M2.47958017,9.83938985 C1.23104193,7.56113613 0.654922113,5.87590332 0.751220703,4.78369141 C0.895668588,3.14537354 1.49937476,0.749298096 2.82495117,0.587158203 C4.15052758,0.425018311 4.43775471,2.21047363 6.08613266,2.05444336 C7.73451062,1.89841309 6.19110122,8.79511494 6.08613266,9.3172524 C6.01615362,9.66534403 4.81396946,9.83938985 2.47958017,9.83938985 Z" id="Path-18" fill="#E3CEA7"></path>
                    <path d="M56.5612793,146.514404 C54.8212077,147.832275 53.5174154,149.433268 52.6499023,151.317383 C54.3574219,152.672689 56.398112,153.208659 58.7719727,152.925293 L63.1472168,152.223633 C63.6761882,149.720703 63.6761882,147.817627 63.1472168,146.514404 C61.9092611,145.828532 59.7139486,145.828532 56.5612793,146.514404 Z" id="Path-2" fill="#38545E"></path>
                    <path d="M32.5612793,148.514404 C27.572998,149.461344 24.9975586,150.595785 24.8349609,151.917725 C25.8156434,152.851873 28.6506348,153.740479 33.144043,153.427979 C33.374817,153.411929 33.7066041,153.516096 34.1394043,153.740479 L38.7546387,153.740479 C39.5453288,151.559652 39.6761882,149.817627 39.1472168,148.514404 C37.9092611,147.828532 35.7139486,147.828532 32.5612793,148.514404 Z" id="Path-2-Copy" fill="#38545E"></path>
                    <path d="M38.0756836,9.06738281 C39.6782227,10.2519531 40.6051432,11.5048828 40.8564453,12.8261719 C41.1077474,14.1474609 41.5883789,15.101888 42.2983398,15.6894531 C43.4396159,14.0797526 44.2641602,13.7947591 44.7719727,14.8344727 C45.5336914,16.394043 45.3046875,21.1743164 46.9194336,22.2290039 C47.995931,22.9321289 49.1359049,22.9321289 50.3393555,22.2290039 C52.793457,18.6097005 54.1303711,15.3662923 54.3500977,12.4987793 C54.6796875,8.19750977 51.7792969,2.01806641 43.6992188,3.30615234 C38.3125,4.1648763 36.4379883,6.08528646 38.0756836,9.06738281 Z" id="Path-3" fill="#62554A"></path>
                    <path d="M73.0395508,68.0048828 C72.1663411,70.4208984 71.8999023,72.2794596 72.2402344,73.5805664 C72.7507324,75.5322266 73.4035645,76.1574707 74.5202637,76.1574707 C75.6369629,76.1574707 77.9411621,76.130127 78.342041,75.0515137 C78.7429199,73.9729004 79.1130371,71.6645508 78.7121582,70.3881836 C78.4449056,69.5372721 78.0642904,68.5686849 77.5703125,67.4824219 L73.0395508,68.0048828 Z" id="Path-21" fill="#E0CEA8"></path>
                </g>
                <g id="Group-24-Copy-4" transform="translate(10.000000, 189.000000)">
                    <polygon id="Rectangle-20" fill="#FF9650" points="1 5 17 11.490099 17 28 1 21.509901"></polygon>
                    <polygon id="Path-37" fill="#FFBB8D" points="17 11.3603516 28.9558105 7.27779431 28.9558105 22.2949219 17 28.1733398"></polygon>
                    <polygon id="Path-38" fill="#F6883F" points="0.854492188 5.23168945 12.5842285 0.98046875 28.9970703 7.40063477 17.0043945 11.5822754"></polygon>
                </g>
                <g id="Group-24" transform="translate(17.000000, 193.000000)">
                    <polygon id="Rectangle-20" fill="#FFA3A3" points="0 9.6 27.9568966 21 27.9568966 50 0 38.6"></polygon>
                    <polygon id="Path-37" fill="#F98B8B" points="27.7586207 20.7251953 49.2285156 10.1494141 49.2285156 37.2001953 28.0132425 49.7786431"></polygon>
                    <polygon id="Path-38" fill="#FF7070" points="0 9.54980469 21.1303332 0 49.0654297 10.468457 27.9106193 20.9369141"></polygon>
                </g>
                <g id="Group-24-Copy-5" transform="translate(40.000000, 235.000000)">
                    <polygon id="Rectangle-20" fill="#B8C8DB" points="0.896551724 4.48275862 15.2413793 10.3014681 15.2413793 25.1034483 0.896551724 19.2847388"></polygon>
                    <polygon id="Path-37" fill="#DDE1E6" points="15.2413793 10.1851428 25.9603819 5.52491904 25.9603819 18.9885506 15.2413793 25.2588564"></polygon>
                    <polygon id="Path-38" fill="#D3D9E0" points="0.766096444 4.6904802 11.1782227 0.166015625 25.9853516 5.63157496 15.2453192 10.384109"></polygon>
                </g>
                <g id="Group-24-Copy" transform="translate(0.000000, 219.000000)">
                    <polygon id="Rectangle-20" fill="#88D9DE" points="0 5 16 11.490099 16 28 0 21.509901"></polygon>
                    <polygon id="Path-37" fill="#B2E7EA" points="16 11.8711005 28 6 28 21.0171276 16 28.1733398"></polygon>
                    <polygon id="Path-38" fill="#4DC2CA" points="0 5.47347407 11.6277183 0 28 6 16.0288086 12.2338867"></polygon>
                </g>
                <g id="Group-24-Copy-3" transform="translate(96.000000, 258.000000)">
                    <polygon id="Rectangle-20" fill="#88D9DE" points="0 5 16 11.490099 16 28 0 21.509901"></polygon>
                    <polygon id="Path-37" fill="#B2E7EA" points="16 11.8711005 28 6 28 21.0171276 16 28.1733398"></polygon>
                    <polygon id="Path-38" fill="#4DC2CA" points="0 5.47347407 11.6277183 0 28 6 16.0288086 12.2338867"></polygon>
                </g>
                <g id="Group-24-Copy-2" transform="translate(81.000000, 224.000000)">
                    <polygon id="Rectangle-20" fill="#B9E092" points="0 6 18 12.9946289 18 32 0 24.6633663"></polygon>
                    <polygon id="Path-37" fill="#B8E986" points="18 12.6717051 31.0771484 6.36474609 31.0771484 23.8481445 18 32.2939453"></polygon>
                    <polygon id="Path-38" fill="#9CD562" points="0 5.92959691 13.3503433 0 31 6.5 17.6341918 13"></polygon>
                </g>
                <g id="Group-22" transform="translate(224.000000, 115.000000)">
                    <polygon id="Path-42" fill="#D3D9E0" points="0 0 0 14.3416748 8 11.4653922 8 2.82692471"></polygon>
                    <polygon id="Path-43" fill="#EDF0F3" points="0 14.3517448 8 17 8 10"></polygon>
                </g>
                <g id="Group-22-Copy" transform="translate(236.000000, 120.000000)">
                    <polygon id="Path-42" fill="#D3D9E0" points="0 0 0 14.3269043 8 11.4653922 8 2.82692471"></polygon>
                    <polygon id="Path-43" fill="#EDF0F3" points="0 14.3517448 8 17 8 10"></polygon>
                </g>
                <g id="Group-22-Copy-2" transform="translate(248.000000, 125.000000)">
                    <polygon id="Path-42" fill="#D3D9E0" points="0 0 0 14.3457031 8 11.4653922 8 2.82692471"></polygon>
                    <polygon id="Path-43" fill="#EDF0F3" points="0 14.3517448 8 17 8 10"></polygon>
                </g>
                <polygon id="Path-46" fill="#E73C3C" points="204 128.422574 212.251371 126 220 129.499038 212.106025 132"></polygon>
            </g>
        </g>
    </g>
</svg>