<?xml version="1.0" encoding="UTF-8"?>
<svg width="50px" height="36px" viewBox="0 0 50 36" version="1.1" xmlns="http://www.w3.org/2000/svg" xmlns:xlink="http://www.w3.org/1999/xlink">
    <!-- Generator: Sketch 47 (45396) - http://www.bohemiancoding.com/sketch -->
    <title>Eyeglass - simple-line-icons</title>
    <desc>Created with Sketch.</desc>
    <defs></defs>
    <g id="Page-2" stroke="none" stroke-width="1" fill="none" fill-rule="evenodd">
        <g id="Artboard-Copy-7" transform="translate(-604.000000, -3005.000000)" fill="#788D94">
            <path d="M653.046875,3029.5625 C653.078125,3029.65625 653.085938,3029.74219 653.070312,3029.82031 C653.054687,3029.89844 653.03125,3029.98437 653,3030.07812 C653,3030.14063 653.007812,3030.21094 653.023438,3030.28906 C653.039063,3030.36719 653.046875,3030.45312 653.046875,3030.54688 C653.046875,3031.98438 652.77344,3033.33593 652.226562,3034.60156 C651.679685,3035.86719 650.929692,3036.97656 649.976562,3037.92969 C649.023433,3038.88282 647.914069,3039.63281 646.648438,3040.17969 C645.382806,3040.72657 644.015632,3041 642.546875,3041 C641.109368,3041 639.750006,3040.72657 638.46875,3040.17969 C637.187494,3039.63281 636.062505,3038.88282 635.09375,3037.92969 C634.124995,3036.97656 633.359378,3035.86719 632.796875,3034.60156 C632.234372,3033.33593 631.953125,3031.98438 631.953125,3030.54688 C631.953125,3030.07812 631.976562,3029.63281 632.023438,3029.21094 C632.070313,3028.78906 632.156249,3028.375 632.28125,3027.96875 C631.968748,3027.84375 631.531253,3027.71875 630.96875,3027.59375 C630.406247,3027.46875 629.750004,3027.40625 629,3027.40625 C628.218746,3027.40625 627.55469,3027.47656 627.007812,3027.61719 C626.460935,3027.75781 626.031252,3027.89062 625.71875,3028.01562 C625.8125,3028.42188 625.890625,3028.83594 625.953125,3029.25781 C626.015625,3029.67969 626.046875,3030.10937 626.046875,3030.54688 C626.046875,3031.98438 625.77344,3033.33593 625.226562,3034.60156 C624.679685,3035.86719 623.929692,3036.97656 622.976562,3037.92969 C622.023433,3038.88282 620.914069,3039.63281 619.648438,3040.17969 C618.382806,3040.72657 617.015632,3041 615.546875,3041 C614.109368,3041 612.750006,3040.72657 611.46875,3040.17969 C610.187494,3039.63281 609.062505,3038.88282 608.09375,3037.92969 C607.124995,3036.97656 606.359378,3035.86719 605.796875,3034.60156 C605.234372,3033.33593 604.953125,3031.98438 604.953125,3030.54688 L604.953125,3029.89062 C604.953125,3029.82812 604.945313,3029.75781 604.929688,3029.67969 C604.914062,3029.60156 604.921875,3029.53125 604.953125,3029.46875 C604.953125,3029.3125 605.078124,3028.43751 605.328125,3026.84375 C605.578126,3025.24999 605.859373,3023.46876 606.171875,3021.5 C606.484377,3019.53124 606.789061,3017.64845 607.085938,3015.85156 C607.382814,3014.05468 607.578125,3012.875 607.671875,3012.3125 C607.671875,3012.1875 607.679687,3012.07031 607.695312,3011.96094 C607.710938,3011.85156 607.734375,3011.73438 607.765625,3011.60938 C607.890626,3010.45312 608.351559,3009.06251 609.148438,3007.4375 C609.945316,3005.81249 612.062483,3005 615.5,3005 C615.906252,3005 616.257811,3005.14844 616.554688,3005.44531 C616.851564,3005.74219 617,3006.09375 617,3006.5 C617,3006.90625 616.851564,3007.25781 616.554688,3007.55469 C616.257811,3007.85156 615.906252,3008 615.5,3008 C613.374989,3008 612.08594,3008.38281 611.632812,3009.14844 C611.179685,3009.91407 610.875001,3010.85937 610.71875,3011.98438 C610.71875,3012.10938 610.703125,3012.24219 610.671875,3012.38281 C610.640625,3012.52344 610.625,3012.65625 610.625,3012.78125 C610.53125,3013.3125 610.312502,3014.52343 609.96875,3016.41406 C609.624998,3018.3047 609.281252,3020.29686 608.9375,3022.39062 C609.843755,3021.67187 610.859369,3021.10156 611.984375,3020.67969 C613.109381,3020.25781 614.296869,3020.04688 615.546875,3020.04688 C617.484385,3020.04688 619.24218,3020.52343 620.820312,3021.47656 C622.398445,3022.42969 623.656245,3023.67187 624.59375,3025.20312 C625.031252,3025.01562 625.617184,3024.83594 626.351562,3024.66406 C627.085941,3024.49219 627.968745,3024.40625 629,3024.40625 C630.000005,3024.40625 630.882809,3024.49219 631.648438,3024.66406 C632.414066,3024.83594 633.015623,3025.01562 633.453125,3025.20312 C634.39063,3023.67187 635.664054,3022.42969 637.273438,3021.47656 C638.882821,3020.52343 640.640615,3020.04688 642.546875,3020.04688 C643.734381,3020.04688 644.867182,3020.24219 645.945312,3020.63281 C647.023443,3021.02344 647.999996,3021.54687 648.875,3022.20312 C648.531248,3020.10936 648.195314,3018.14845 647.867188,3016.32031 C647.539061,3014.49218 647.328125,3013.3125 647.234375,3012.78125 C647.203125,3012.65625 647.179688,3012.52344 647.164062,3012.38281 C647.148437,3012.24219 647.140625,3012.10938 647.140625,3011.98438 C646.984374,3010.85937 646.67969,3009.91407 646.226562,3009.14844 C645.773435,3008.38281 644.484386,3008 642.359375,3008 C641.921873,3008 641.562501,3007.85156 641.28125,3007.55469 C640.999999,3007.25781 640.859375,3006.90625 640.859375,3006.5 C640.859375,3006.09375 640.999999,3005.74219 641.28125,3005.44531 C641.562501,3005.14844 641.921873,3005 642.359375,3005 C645.796892,3005 647.906246,3005.81249 648.6875,3007.4375 C649.468754,3009.06251 649.937499,3010.45312 650.09375,3011.60938 C650.125,3011.73438 650.148437,3011.85156 650.164062,3011.96094 C650.179688,3012.07031 650.1875,3012.1875 650.1875,3012.3125 C650.28125,3012.875 650.484373,3014.06249 650.796875,3015.875 C651.109377,3017.68751 651.429686,3019.57812 651.757812,3021.54688 C652.085939,3023.51563 652.382811,3025.30468 652.648438,3026.91406 C652.914064,3028.52345 653.046875,3029.40625 653.046875,3029.5625 Z M615.546875,3038 C617.609385,3038 619.374993,3037.27344 620.84375,3035.82031 C622.312507,3034.36718 623.046875,3032.60939 623.046875,3030.54688 C623.046875,3028.48436 622.312507,3026.71876 620.84375,3025.25 C619.374993,3023.78124 617.609385,3023.04688 615.546875,3023.04688 C613.484365,3023.04688 611.703133,3023.78906 610.203125,3025.27344 C608.703117,3026.75782 607.953125,3028.51561 607.953125,3030.54688 C607.953125,3032.54689 608.703117,3034.28906 610.203125,3035.77344 C611.703133,3037.25782 613.484365,3038 615.546875,3038 Z M642.546875,3038 C644.609385,3038 646.374993,3037.27344 647.84375,3035.82031 C649.312507,3034.36718 650.046875,3032.60939 650.046875,3030.54688 C650.046875,3030.45312 650.039063,3030.375 650.023438,3030.3125 C650.007812,3030.25 650,3030.1875 650,3030.125 C650,3030.0625 649.992188,3030 649.976562,3029.9375 C649.960937,3029.875 649.9375,3029.8125 649.90625,3029.75 C649.90625,3029.625 649.898438,3029.49219 649.882812,3029.35156 C649.867187,3029.21094 649.859375,3029.0625 649.859375,3028.90625 C649.484373,3027.24999 648.617194,3025.85938 647.257812,3024.73438 C645.898431,3023.60937 644.328134,3023.04688 642.546875,3023.04688 C640.484365,3023.04688 638.703133,3023.78906 637.203125,3025.27344 C635.703117,3026.75782 634.953125,3028.51561 634.953125,3030.54688 C634.953125,3032.54689 635.703117,3034.28906 637.203125,3035.77344 C638.703133,3037.25782 640.484365,3038 642.546875,3038 Z" id="Eyeglass---simple-line-icons"></path>
        </g>
    </g>
</svg>