<?xml version="1.0" encoding="UTF-8"?>
<svg width="99px" height="30px" viewBox="0 0 99 30" version="1.1" xmlns="http://www.w3.org/2000/svg" xmlns:xlink="http://www.w3.org/1999/xlink">
    <!-- Generator: Sketch 47 (45396) - http://www.bohemiancoding.com/sketch -->
    <title>proplin</title>
    <desc>Created with Sketch.</desc>
    <defs></defs>
    <g id="Page-2" stroke="none" stroke-width="1" fill="none" fill-rule="evenodd">
        <g id="Artboard-Copy-7" transform="translate(-391.000000, -25.000000)" fill="#FF5050">
            <path d="M401.21,41.23 C401.21,39.8499931 400.900003,38.7450041 400.28,37.915 C399.659997,37.0849958 398.740006,36.67 397.52,36.67 C397.119998,36.67 396.750002,36.6849998 396.41,36.715 C396.069998,36.7450001 395.790001,36.7799998 395.57,36.82 L395.57,44.89 C395.850001,45.0700009 396.214998,45.2199994 396.665,45.34 C397.115002,45.4600006 397.569998,45.52 398.03,45.52 C400.150011,45.52 401.21,44.0900143 401.21,41.23 Z M405.77,41.11 C405.77,42.3300061 405.620002,43.439995 405.32,44.44 C405.019998,45.440005 404.580003,46.2999964 404,47.02 C403.419997,47.7400036 402.700004,48.299998 401.84,48.7 C400.979996,49.100002 399.990006,49.3 398.87,49.3 C398.249997,49.3 397.670003,49.2400006 397.13,49.12 C396.589997,48.9999994 396.070002,48.8300011 395.57,48.61 L395.57,54.55 L391.1,54.55 L391.1,33.76 C391.500002,33.6399994 391.959997,33.5250006 392.48,33.415 C393.000003,33.3049994 393.544997,33.2100004 394.115,33.13 C394.685003,33.0499996 395.264997,32.9850002 395.855,32.935 C396.445003,32.8849997 397.009997,32.86 397.55,32.86 C398.850007,32.86 400.009995,33.054998 401.03,33.445 C402.050005,33.835002 402.909996,34.3849965 403.61,35.095 C404.310003,35.8050036 404.844998,36.6699949 405.215,37.69 C405.585002,38.7100051 405.77,39.8499937 405.77,41.11 Z M418.73,37.18 C418.329998,37.0799995 417.860003,36.9750006 417.32,36.865 C416.779997,36.7549994 416.200003,36.7 415.58,36.7 C415.299999,36.7 414.965002,36.7249998 414.575,36.775 C414.184998,36.8250003 413.890001,36.8799997 413.69,36.94 L413.69,49 L409.22,49 L409.22,34.06 C410.020004,33.7799986 410.964995,33.5150012 412.055,33.265 C413.145005,33.0149988 414.359993,32.89 415.7,32.89 C415.940001,32.89 416.229998,32.9049998 416.57,32.935 C416.910002,32.9650002 417.249998,33.0049997 417.59,33.055 C417.930002,33.1050003 418.269998,33.1649996 418.61,33.235 C418.950002,33.3050004 419.239999,33.3899995 419.48,33.49 L418.73,37.18 Z M436.64,41.08 C436.64,42.3200062 436.460002,43.4549949 436.1,44.485 C435.739998,45.5150052 435.220003,46.3949963 434.54,47.125 C433.859997,47.8550037 433.045005,48.419998 432.095,48.82 C431.144995,49.220002 430.080006,49.42 428.9,49.42 C427.739994,49.42 426.685005,49.220002 425.735,48.82 C424.784995,48.419998 423.970003,47.8550037 423.29,47.125 C422.609997,46.3949963 422.080002,45.5150052 421.7,44.485 C421.319998,43.4549949 421.13,42.3200062 421.13,41.08 C421.13,39.8399938 421.324998,38.7100051 421.715,37.69 C422.105002,36.6699949 422.644997,35.8000036 423.335,35.08 C424.025003,34.3599964 424.844995,33.800002 425.795,33.4 C426.745005,32.999998 427.779994,32.8 428.9,32.8 C430.040006,32.8 431.084995,32.999998 432.035,33.4 C432.985005,33.800002 433.799997,34.3599964 434.48,35.08 C435.160003,35.8000036 435.689998,36.6699949 436.07,37.69 C436.450002,38.7100051 436.64,39.8399938 436.64,41.08 Z M432.08,41.08 C432.08,39.6999931 431.805003,38.615004 431.255,37.825 C430.704997,37.0349961 429.920005,36.64 428.9,36.64 C427.879995,36.64 427.090003,37.0349961 426.53,37.825 C425.969997,38.615004 425.69,39.6999931 425.69,41.08 C425.69,42.4600069 425.969997,43.5549959 426.53,44.365 C427.090003,45.175004 427.879995,45.58 428.9,45.58 C429.920005,45.58 430.704997,45.175004 431.255,44.365 C431.805003,43.5549959 432.08,42.4600069 432.08,41.08 Z M450.2,41.23 C450.2,39.8499931 449.890003,38.7450041 449.27,37.915 C448.649997,37.0849958 447.730006,36.67 446.51,36.67 C446.109998,36.67 445.740002,36.6849998 445.4,36.715 C445.059998,36.7450001 444.780001,36.7799998 444.56,36.82 L444.56,44.89 C444.840001,45.0700009 445.204998,45.2199994 445.655,45.34 C446.105002,45.4600006 446.559998,45.52 447.02,45.52 C449.140011,45.52 450.2,44.0900143 450.2,41.23 Z M454.76,41.11 C454.76,42.3300061 454.610002,43.439995 454.31,44.44 C454.009998,45.440005 453.570003,46.2999964 452.99,47.02 C452.409997,47.7400036 451.690004,48.299998 450.83,48.7 C449.969996,49.100002 448.980006,49.3 447.86,49.3 C447.239997,49.3 446.660003,49.2400006 446.12,49.12 C445.579997,48.9999994 445.060002,48.8300011 444.56,48.61 L444.56,54.55 L440.09,54.55 L440.09,33.76 C440.490002,33.6399994 440.949997,33.5250006 441.47,33.415 C441.990003,33.3049994 442.534997,33.2100004 443.105,33.13 C443.675003,33.0499996 444.254997,32.9850002 444.845,32.935 C445.435003,32.8849997 445.999997,32.86 446.54,32.86 C447.840007,32.86 448.999995,33.054998 450.02,33.445 C451.040005,33.835002 451.899996,34.3849965 452.6,35.095 C453.300004,35.8050036 453.834998,36.6699949 454.205,37.69 C454.575002,38.7100051 454.76,39.8499937 454.76,41.11 Z M464.51,49.3 C463.209993,49.2799999 462.155004,49.1400013 461.345,48.88 C460.534996,48.6199987 459.895002,48.2550023 459.425,47.785 C458.954998,47.3149977 458.635001,46.7450033 458.465,46.075 C458.294999,45.4049967 458.21,44.6500042 458.21,43.81 L458.21,26.44 L462.68,25.72 L462.68,42.91 C462.68,43.310002 462.71,43.6699984 462.77,43.99 C462.83,44.3100016 462.944999,44.5799989 463.115,44.8 C463.285001,45.0200011 463.529998,45.1999993 463.85,45.34 C464.170002,45.4800007 464.599997,45.5699998 465.14,45.61 L464.51,49.3 Z M472.16,49 L467.69,49 L467.69,33.22 L472.16,33.22 L472.16,49 Z M472.58,28.66 C472.58,29.4800041 472.315003,30.1249977 471.785,30.595 C471.254997,31.0650024 470.630004,31.3 469.91,31.3 C469.189996,31.3 468.565003,31.0650024 468.035,30.595 C467.504997,30.1249977 467.24,29.4800041 467.24,28.66 C467.24,27.8399959 467.504997,27.1950023 468.035,26.725 C468.565003,26.2549976 469.189996,26.02 469.91,26.02 C470.630004,26.02 471.254997,26.2549976 471.785,26.725 C472.315003,27.1950023 472.58,27.8399959 472.58,28.66 Z M476.36,33.76 C477.120004,33.5399989 478.099994,33.335001 479.3,33.145 C480.500006,32.954999 481.759993,32.86 483.08,32.86 C484.420007,32.86 485.534996,33.0349983 486.425,33.385 C487.315004,33.7350017 488.019997,34.2299968 488.54,34.87 C489.060003,35.5100032 489.429999,36.2699956 489.65,37.15 C489.870001,38.0300044 489.98,39.0099946 489.98,40.09 L489.98,49 L485.51,49 L485.51,40.63 C485.51,39.1899928 485.320002,38.170003 484.94,37.57 C484.559998,36.969997 483.850005,36.67 482.81,36.67 C482.489998,36.67 482.150002,36.6849998 481.79,36.715 C481.429998,36.7450001 481.110001,36.7799998 480.83,36.82 L480.83,49 L476.36,49 L476.36,33.76 Z" id="proplin"></path>
        </g>
    </g>
</svg>