<?xml version="1.0" encoding="UTF-8"?>
<svg width="34px" height="35px" viewBox="0 0 34 35" version="1.1" xmlns="http://www.w3.org/2000/svg" xmlns:xlink="http://www.w3.org/1999/xlink">
    <!-- Generator: Sketch 47 (45396) - http://www.bohemiancoding.com/sketch -->
    <title>Layers - simple-line-icons</title>
    <desc>Created with Sketch.</desc>
    <defs></defs>
    <g id="Page-2" stroke="none" stroke-width="1" fill="none" fill-rule="evenodd">
        <g id="Artboard-Copy-7" transform="translate(-599.000000, -1012.000000)" fill="#788D94">
            <path d="M599.730469,1022.15234 C599.553385,1022.0638 599.41504,1021.93099 599.31543,1021.75391 C599.21582,1021.57682 599.166016,1021.38867 599.166016,1021.18945 C599.166016,1020.99023 599.221354,1020.80762 599.332031,1020.6416 C599.442709,1020.47559 599.586588,1020.34831 599.763672,1020.25977 L615.701172,1012.25781 C615.856121,1012.16927 616.016601,1012.125 616.182617,1012.125 C616.348634,1012.125 616.509114,1012.16927 616.664062,1012.25781 L632.435547,1020.25977 C632.612631,1020.34831 632.750976,1020.47559 632.850586,1020.6416 C632.950196,1020.80762 633,1020.99023 633,1021.18945 C633,1021.38867 632.950196,1021.57682 632.850586,1021.75391 C632.750976,1021.93099 632.623699,1022.0638 632.46875,1022.15234 L616.498047,1030.75195 C616.43164,1030.79622 616.354167,1030.82389 616.265625,1030.83496 C616.177083,1030.84603 616.088542,1030.85156 616,1030.85156 C615.911458,1030.85156 615.828451,1030.84049 615.750977,1030.81836 C615.673502,1030.79622 615.590495,1030.77409 615.501953,1030.75195 L599.730469,1022.15234 Z M616.166016,1014.38281 L602.519531,1021.25586 L616,1028.59375 L629.646484,1021.25586 L616.166016,1014.38281 Z M632.236328,1028.0625 C632.413412,1028.15104 632.557291,1028.28385 632.667969,1028.46094 C632.778646,1028.63802 632.833984,1028.8151 632.833984,1028.99219 C632.833984,1029.19141 632.78418,1029.37956 632.68457,1029.55664 C632.58496,1029.73372 632.446615,1029.86654 632.269531,1029.95508 L616.332031,1038.55469 C616.243489,1038.59896 616.160482,1038.63216 616.083008,1038.6543 C616.005533,1038.67643 615.922526,1038.6875 615.833984,1038.6875 C615.745442,1038.6875 615.656901,1038.67643 615.568359,1038.6543 C615.479817,1038.63216 615.391276,1038.59896 615.302734,1038.55469 L599.53125,1029.95508 C599.376301,1029.86654 599.249024,1029.73372 599.149414,1029.55664 C599.049804,1029.37956 599,1029.19141 599,1028.99219 C599,1028.79297 599.049804,1028.61035 599.149414,1028.44434 C599.249024,1028.27832 599.387369,1028.15104 599.564453,1028.0625 L602.917969,1026.40234 L605.175781,1027.63086 L602.353516,1029.05859 L615.833984,1036.39648 L629.480469,1029.05859 L626.824219,1027.69727 L629.082031,1026.46875 L632.236328,1028.0625 Z M632.236328,1035.5 C632.413412,1035.58854 632.557291,1035.72135 632.667969,1035.89844 C632.778646,1036.07552 632.833984,1036.2526 632.833984,1036.42969 C632.833984,1036.62891 632.78418,1036.81706 632.68457,1036.99414 C632.58496,1037.17122 632.446615,1037.30404 632.269531,1037.39258 L616.332031,1045.99219 C616.243489,1046.03646 616.160482,1046.06966 616.083008,1046.0918 C616.005533,1046.11393 615.922526,1046.125 615.833984,1046.125 C615.745442,1046.125 615.656901,1046.11393 615.568359,1046.0918 C615.479817,1046.06966 615.391276,1046.03646 615.302734,1045.99219 L599.53125,1037.39258 C599.376301,1037.30404 599.249024,1037.17122 599.149414,1036.99414 C599.049804,1036.81706 599,1036.62891 599,1036.42969 C599,1036.23047 599.049804,1036.04785 599.149414,1035.88184 C599.249024,1035.71582 599.387369,1035.58854 599.564453,1035.5 L602.71875,1034.07227 L604.976562,1035.30078 L602.353516,1036.49609 L615.833984,1043.83398 L629.480469,1036.49609 L626.990234,1035.26758 L629.248047,1034.03906 L632.236328,1035.5 Z" id="Layers---simple-line-icons"></path>
        </g>
    </g>
</svg>