<?xml version="1.0" encoding="UTF-8"?>
<svg width="34px" height="34px" viewBox="0 0 34 34" version="1.1" xmlns="http://www.w3.org/2000/svg" xmlns:xlink="http://www.w3.org/1999/xlink">
    <!-- Generator: Sketch 47 (45396) - http://www.bohemiancoding.com/sketch -->
    <title>social-dropbox - simple-line-icons</title>
    <desc>Created with Sketch.</desc>
    <defs></defs>
    <g id="Page-2" stroke="none" stroke-width="1" fill="none" fill-rule="evenodd">
        <g id="Artboard-Copy-7" transform="translate(-633.000000, -2260.000000)" fill="#788D94">
            <path d="M666.966797,2267.5957 C666.988932,2267.75065 666.966797,2267.91113 666.900391,2268.07715 C666.833984,2268.24316 666.734376,2268.38151 666.601562,2268.49219 L661.123047,2273.07422 L665.804688,2276.79297 C665.937501,2276.88151 666.037109,2277.00325 666.103516,2277.1582 C666.169922,2277.31315 666.203125,2277.47917 666.203125,2277.65625 C666.203125,2277.83333 666.158855,2277.99381 666.070312,2278.1377 C665.98177,2278.28158 665.871094,2278.39779 665.738281,2278.48633 L661.621094,2281.24219 L661.621094,2286.45508 C661.621094,2286.63216 661.576823,2286.79818 661.488281,2286.95312 C661.399739,2287.10807 661.277996,2287.24088 661.123047,2287.35156 L650.564453,2293.39453 C650.475911,2293.46094 650.381836,2293.50521 650.282227,2293.52734 C650.182617,2293.54948 650.088542,2293.56055 650,2293.56055 C649.911458,2293.56055 649.817383,2293.54948 649.717773,2293.52734 C649.618164,2293.50521 649.524089,2293.46094 649.435547,2293.39453 L638.744141,2287.35156 C638.589192,2287.24088 638.467448,2287.10807 638.378906,2286.95312 C638.290364,2286.79818 638.246094,2286.63216 638.246094,2286.45508 L638.246094,2282.17188 C638.246094,2282.01693 638.279297,2281.87305 638.345703,2281.74023 C638.41211,2281.60742 638.50065,2281.49675 638.611328,2281.4082 L634.261719,2278.48633 C634.10677,2278.39779 633.99056,2278.28158 633.913086,2278.1377 C633.835612,2277.99381 633.785807,2277.83333 633.763672,2277.65625 C633.763672,2277.47917 633.796875,2277.31315 633.863281,2277.1582 C633.929688,2277.00325 634.040364,2276.88151 634.195312,2276.79297 L638.876953,2273.07422 L633.398438,2268.49219 C633.265624,2268.38151 633.166016,2268.24316 633.099609,2268.07715 C633.033203,2267.91113 633.011068,2267.75065 633.033203,2267.5957 C633.033203,2267.41862 633.077474,2267.25814 633.166016,2267.11426 C633.254558,2266.97038 633.376301,2266.85417 633.53125,2266.76562 L642.994141,2260.85547 C643.171225,2260.72266 643.375975,2260.66732 643.608398,2260.68945 C643.840821,2260.71159 644.045572,2260.78906 644.222656,2260.92188 L650,2265.60352 L655.777344,2260.92188 C655.954428,2260.78906 656.159179,2260.71159 656.391602,2260.68945 C656.624025,2260.66732 656.828775,2260.72266 657.005859,2260.85547 L666.46875,2266.76562 C666.623699,2266.85417 666.745442,2266.97038 666.833984,2267.11426 C666.922526,2267.25814 666.966797,2267.41862 666.966797,2267.5957 Z M657.470703,2273.10742 L650,2268.22656 L642.529297,2273.10742 L650,2277.75586 L657.470703,2273.10742 Z M635.888672,2267.79492 L640.636719,2271.7793 L648.207031,2266.86523 L643.458984,2263.04688 L635.888672,2267.79492 Z M640.636719,2274.40234 L636.652344,2277.55664 L643.890625,2282.37109 L648.140625,2279.11719 L640.636719,2274.40234 Z M640.371094,2282.57031 L640.371094,2285.85742 L648.871094,2290.60547 L648.871094,2281.24219 L644.587891,2284.5293 C644.388671,2284.66211 644.178387,2284.72852 643.957031,2284.72852 C643.735676,2284.72852 643.525392,2284.67318 643.326172,2284.5625 L640.371094,2282.57031 Z M659.496094,2285.85742 L659.496094,2282.63672 L656.640625,2284.5625 C656.552083,2284.60677 656.458008,2284.64551 656.358398,2284.67871 C656.258789,2284.71191 656.153646,2284.72852 656.042969,2284.72852 C655.932291,2284.72852 655.821615,2284.71191 655.710938,2284.67871 C655.60026,2284.64551 655.500651,2284.5957 655.412109,2284.5293 L650.996094,2281.14258 L650.996094,2290.67188 L659.496094,2285.85742 Z M663.314453,2277.52344 L659.363281,2274.40234 L651.859375,2279.11719 L656.076172,2282.37109 L663.314453,2277.52344 Z M659.363281,2271.7793 L664.111328,2267.79492 L656.541016,2263.04688 L651.792969,2266.86523 L659.363281,2271.7793 Z" id="social-dropbox---simple-line-icons"></path>
        </g>
    </g>
</svg>