<?xml version="1.0" encoding="UTF-8"?>
<svg width="34px" height="35px" viewBox="0 0 34 35" version="1.1" xmlns="http://www.w3.org/2000/svg" xmlns:xlink="http://www.w3.org/1999/xlink">
    <!-- Generator: Sketch 47 (45396) - http://www.bohemiancoding.com/sketch -->
    <title>Equalizer - simple-line-icons</title>
    <desc>Created with Sketch.</desc>
    <defs></defs>
    <g id="Page-2" stroke="none" stroke-width="1" fill="none" fill-rule="evenodd">
        <g id="Artboard-Copy-7" transform="translate(-599.000000, -935.000000)" fill="#788D94">
            <path d="M604.3125,948.007812 C605.242192,948.251303 606.005856,948.749345 606.603516,949.501953 C607.201175,950.254561 607.5,951.128901 607.5,952.125 C607.5,953.121099 607.201175,953.995439 606.603516,954.748047 C606.005856,955.500655 605.242192,955.998697 604.3125,956.242188 L604.3125,968.0625 C604.3125,968.350262 604.207358,968.599283 603.99707,968.80957 C603.786783,969.019858 603.537762,969.125 603.25,969.125 C602.962238,969.125 602.713217,969.019858 602.50293,968.80957 C602.292642,968.599283 602.1875,968.350262 602.1875,968.0625 L602.1875,956.242188 C601.279943,955.998697 600.521813,955.500655 599.913086,954.748047 C599.304359,953.995439 599,953.121099 599,952.125 C599,951.128901 599.304359,950.254561 599.913086,949.501953 C600.521813,948.749345 601.279943,948.251303 602.1875,948.007812 L602.1875,936.1875 C602.1875,935.899738 602.292642,935.650717 602.50293,935.44043 C602.713217,935.230142 602.962238,935.125 603.25,935.125 C603.537762,935.125 603.786783,935.230142 603.99707,935.44043 C604.207358,935.650717 604.3125,935.899738 604.3125,936.1875 L604.3125,948.007812 Z M603.25,954.25 C603.847659,954.25 604.351235,954.039716 604.760742,953.619141 C605.170249,953.198566 605.375,952.700524 605.375,952.125 C605.375,951.549476 605.170249,951.051434 604.760742,950.630859 C604.351235,950.210284 603.847659,950 603.25,950 C602.652341,950 602.148765,950.210284 601.739258,950.630859 C601.329751,951.051434 601.125,951.549476 601.125,952.125 C601.125,952.700524 601.329751,953.198566 601.739258,953.619141 C602.148765,954.039716 602.652341,954.25 603.25,954.25 Z M617.0625,954.382812 C617.992192,954.626303 618.755856,955.124345 619.353516,955.876953 C619.951175,956.629561 620.25,957.503901 620.25,958.5 C620.25,959.496099 619.951175,960.370439 619.353516,961.123047 C618.755856,961.875655 617.992192,962.373697 617.0625,962.617188 L617.0625,968.0625 C617.0625,968.350262 616.957358,968.599283 616.74707,968.80957 C616.536783,969.019858 616.287762,969.125 616,969.125 C615.712238,969.125 615.463217,969.019858 615.25293,968.80957 C615.042642,968.599283 614.9375,968.350262 614.9375,968.0625 L614.9375,962.617188 C614.029943,962.373697 613.271813,961.875655 612.663086,961.123047 C612.054359,960.370439 611.75,959.496099 611.75,958.5 C611.75,957.503901 612.054359,956.629561 612.663086,955.876953 C613.271813,955.124345 614.029943,954.626303 614.9375,954.382812 L614.9375,936.1875 C614.9375,935.899738 615.042642,935.650717 615.25293,935.44043 C615.463217,935.230142 615.712238,935.125 616,935.125 C616.287762,935.125 616.536783,935.230142 616.74707,935.44043 C616.957358,935.650717 617.0625,935.899738 617.0625,936.1875 L617.0625,954.382812 Z M616,960.625 C616.597659,960.625 617.101235,960.414716 617.510742,959.994141 C617.920249,959.573566 618.125,959.075524 618.125,958.5 C618.125,957.924476 617.920249,957.426434 617.510742,957.005859 C617.101235,956.585284 616.597659,956.375 616,956.375 C615.402341,956.375 614.898765,956.585284 614.489258,957.005859 C614.079751,957.426434 613.875,957.924476 613.875,958.5 C613.875,959.075524 614.079751,959.573566 614.489258,959.994141 C614.898765,960.414716 615.402341,960.625 616,960.625 Z M629.8125,941.632812 C630.742192,941.876303 631.505856,942.374345 632.103516,943.126953 C632.701175,943.879561 633,944.753901 633,945.75 C633,946.746099 632.701175,947.620439 632.103516,948.373047 C631.505856,949.125655 630.742192,949.623697 629.8125,949.867188 L629.8125,968.0625 C629.8125,968.350262 629.707358,968.599283 629.49707,968.80957 C629.286783,969.019858 629.037762,969.125 628.75,969.125 C628.462238,969.125 628.213217,969.019858 628.00293,968.80957 C627.792642,968.599283 627.6875,968.350262 627.6875,968.0625 L627.6875,949.867188 C626.779943,949.623697 626.021813,949.125655 625.413086,948.373047 C624.804359,947.620439 624.5,946.746099 624.5,945.75 C624.5,944.753901 624.804359,943.879561 625.413086,943.126953 C626.021813,942.374345 626.779943,941.876303 627.6875,941.632812 L627.6875,936.1875 C627.6875,935.899738 627.792642,935.650717 628.00293,935.44043 C628.213217,935.230142 628.462238,935.125 628.75,935.125 C629.037762,935.125 629.286783,935.230142 629.49707,935.44043 C629.707358,935.650717 629.8125,935.899738 629.8125,936.1875 L629.8125,941.632812 Z M628.75,947.875 C629.347659,947.875 629.851235,947.664716 630.260742,947.244141 C630.670249,946.823566 630.875,946.325524 630.875,945.75 C630.875,945.174476 630.670249,944.676434 630.260742,944.255859 C629.851235,943.835284 629.347659,943.625 628.75,943.625 C628.152341,943.625 627.648765,943.835284 627.239258,944.255859 C626.829751,944.676434 626.625,945.174476 626.625,945.75 C626.625,946.325524 626.829751,946.823566 627.239258,947.244141 C627.648765,947.664716 628.152341,947.875 628.75,947.875 Z" id="Equalizer---simple-line-icons"></path>
        </g>
    </g>
</svg>