<?xml version="1.0" encoding="UTF-8"?>
<svg width="28px" height="35px" viewBox="0 0 28 35" version="1.1" xmlns="http://www.w3.org/2000/svg" xmlns:xlink="http://www.w3.org/1999/xlink">
    <!-- Generator: Sketch 47 (45396) - http://www.bohemiancoding.com/sketch -->
    <title>Globe-alt - simple-line-icons</title>
    <desc>Created with Sketch.</desc>
    <defs></defs>
    <g id="Page-2" stroke="none" stroke-width="1" fill="none" fill-rule="evenodd">
        <g id="Artboard-Copy-7" transform="translate(-110.000000, -1528.000000)" fill="#B9C9CE">
            <path d="M137.878906,1541.87109 C137.878906,1544.01824 137.535811,1546.01041 136.849609,1547.84766 C136.163408,1549.68491 135.206061,1551.29524 133.977539,1552.67871 C132.749017,1554.06218 131.282561,1555.19661 129.578125,1556.08203 C127.873689,1556.96745 126.003265,1557.5319 123.966797,1557.77539 L123.966797,1560 L127.1875,1560 C127.497397,1560 127.757486,1560.09961 127.967773,1560.29883 C128.178061,1560.49805 128.283203,1560.7526 128.283203,1561.0625 C128.283203,1561.35026 128.178061,1561.59928 127.967773,1561.80957 C127.757486,1562.01986 127.497397,1562.125 127.1875,1562.125 L118.787109,1562.125 C118.477212,1562.125 118.21159,1562.01986 117.990234,1561.80957 C117.768879,1561.59928 117.658203,1561.35026 117.658203,1561.0625 C117.658203,1560.7526 117.768879,1560.49805 117.990234,1560.29883 C118.21159,1560.09961 118.477212,1560 118.787109,1560 L121.875,1560 L121.875,1557.9082 L121.841797,1557.9082 C120.801427,1557.9082 119.783208,1557.80859 118.787109,1557.60938 C117.791011,1557.41016 116.817062,1557.1224 115.865234,1556.74609 C115.599608,1556.63542 115.405925,1556.44173 115.28418,1556.16504 C115.162434,1555.88834 115.1569,1555.61719 115.267578,1555.35156 C115.378256,1555.08594 115.571939,1554.89779 115.848633,1554.78711 C116.125327,1554.67643 116.396483,1554.67643 116.662109,1554.78711 C117.481124,1555.11914 118.327795,1555.36816 119.202148,1555.53418 C120.076502,1555.7002 120.956376,1555.7832 121.841797,1555.7832 C123.85613,1555.7832 125.715486,1555.43457 127.419922,1554.7373 C129.124357,1554.04004 130.590814,1553.07715 131.819336,1551.84863 C133.047858,1550.62011 134.010739,1549.15365 134.708008,1547.44922 C135.405277,1545.74478 135.753906,1543.88543 135.753906,1541.87109 C135.753906,1540.67578 135.593426,1539.50814 135.272461,1538.36816 C134.951496,1537.22818 134.497724,1536.14909 133.911133,1535.13086 C133.324541,1534.11263 132.610681,1533.18295 131.769531,1532.3418 C130.928381,1531.50065 129.9655,1530.75912 128.880859,1530.11719 C128.637369,1529.96224 128.476888,1529.74642 128.399414,1529.46973 C128.32194,1529.19303 128.360676,1528.92188 128.515625,1528.65625 C128.648438,1528.41276 128.858723,1528.25228 129.146484,1528.1748 C129.434246,1528.09733 129.710936,1528.13607 129.976562,1528.29102 C131.194017,1529.02149 132.295242,1529.87369 133.280273,1530.84766 C134.265304,1531.82162 135.095374,1532.89518 135.770508,1534.06836 C136.445641,1535.24154 136.965818,1536.48665 137.331055,1537.80371 C137.696291,1539.12077 137.878906,1540.47656 137.878906,1541.87109 Z M133.529297,1541.9707 C133.529297,1543.5866 133.224938,1545.10286 132.616211,1546.51953 C132.007484,1547.9362 131.17188,1549.17578 130.109375,1550.23828 C129.04687,1551.30079 127.807299,1552.13639 126.390625,1552.74512 C124.973951,1553.35384 123.45769,1553.6582 121.841797,1553.6582 C120.225903,1553.6582 118.709643,1553.35384 117.292969,1552.74512 C115.876295,1552.13639 114.636724,1551.30079 113.574219,1550.23828 C112.511713,1549.17578 111.67611,1547.9362 111.067383,1546.51953 C110.458656,1545.10286 110.154297,1543.5866 110.154297,1541.9707 C110.154297,1540.35481 110.458656,1538.83855 111.067383,1537.42188 C111.67611,1536.0052 112.511713,1534.76563 113.574219,1533.70312 C114.636724,1532.64062 115.876295,1531.79948 117.292969,1531.17969 C118.709643,1530.55989 120.225903,1530.25 121.841797,1530.25 C123.45769,1530.25 124.973951,1530.55989 126.390625,1531.17969 C127.807299,1531.79948 129.04687,1532.64062 130.109375,1533.70312 C131.17188,1534.76563 132.007484,1536.0052 132.616211,1537.42188 C133.224938,1538.83855 133.529297,1540.35481 133.529297,1541.9707 Z M112.246094,1541.9707 C112.246094,1543.29883 112.500648,1544.54394 113.009766,1545.70605 C113.518883,1546.86817 114.205074,1547.88086 115.068359,1548.74414 C115.931645,1549.60743 116.94433,1550.28808 118.106445,1550.78613 C119.26856,1551.28418 120.513665,1551.5332 121.841797,1551.5332 C123.169929,1551.5332 124.415033,1551.28418 125.577148,1550.78613 C126.739264,1550.28808 127.751949,1549.60743 128.615234,1548.74414 C129.47852,1547.88086 130.159177,1546.86817 130.657227,1545.70605 C131.155276,1544.54394 131.404297,1543.29883 131.404297,1541.9707 C131.404297,1540.66471 131.155276,1539.42514 130.657227,1538.25195 C130.159177,1537.07877 129.47852,1536.06055 128.615234,1535.19727 C127.751949,1534.33398 126.739264,1533.64779 125.577148,1533.13867 C124.415033,1532.62955 123.169929,1532.375 121.841797,1532.375 C120.513665,1532.375 119.26856,1532.62955 118.106445,1533.13867 C116.94433,1533.64779 115.931645,1534.33398 115.068359,1535.19727 C114.205074,1536.06055 113.518883,1537.07877 113.009766,1538.25195 C112.500648,1539.42514 112.246094,1540.66471 112.246094,1541.9707 Z" id="Globe-alt---simple-line-icons"></path>
        </g>
    </g>
</svg>